<?xml version="1.0" encoding="utf-8"?>
<!-- Generator: Adobe Illustrator 20.1.0, SVG Export Plug-In . SVG Version: 6.00 Build 0)  -->
<svg version="1.1"
	 id="svg8" inkscape:version="0.92.1 r15371" sodipodi:docname="Azurey.svg" xmlns:cc="http://creativecommons.org/ns#" xmlns:dc="http://purl.org/dc/elements/1.1/" xmlns:inkscape="http://www.inkscape.org/namespaces/inkscape" xmlns:rdf="http://www.w3.org/1999/02/22-rdf-syntax-ns#" xmlns:sodipodi="http://sodipodi.sourceforge.net/DTD/sodipodi-0.dtd" xmlns:svg="http://www.w3.org/2000/svg"
	 xmlns="http://www.w3.org/2000/svg" xmlns:xlink="http://www.w3.org/1999/xlink" x="0px" y="0px" width="64.8" height="64.8" viewBox="0 0 64.8 64.8"
	 style="enable-background:new 0 0 64.8 64.8;" xml:space="preserve">
<style type="text/css">
	.st0{fill:#0F488A;}
	.st1{fill:#47B4E7;}
</style>
<g>
	<path class="st0" d="M34.2,64.8c-2.1-0.1-3.2-1.3-3.6-3.5c-0.1-0.6-0.1-0.6-0.1-4.4l0-3.7h0.9h0.9l0,3.5c0,3.2,0,3.6,0,3.8
		c0.1,0.9,0.4,1.5,0.8,2c0.3,0.4,0.7,0.6,1.3,0.7c0.3,0.1,1,0.1,1.2,0c0.6-0.1,1-0.4,1.4-0.8c0.4-0.4,0.8-1.1,0.9-1.8l0.1-0.2l0-3.6
		l0-3.6h0.9h0.9v5.6v5.6h-0.9H38v-0.9c0-0.6,0-0.9,0-0.9c0,0-0.1,0.1-0.1,0.2c-0.3,0.6-0.8,1.1-1.4,1.4
		C35.8,64.7,35.1,64.9,34.2,64.8L34.2,64.8z"/>
	<path class="st0" d="M60.3,58c-0.1-1.5-0.4-2.7-1.2-3.5c-0.7-0.8-1.8-1.4-2.9-1.5c-0.5,0-1.2,0-1.6,0.1c-0.7,0.2-1.4,0.5-2,1
		c-0.2,0.2-0.6,0.6-0.8,0.8c-0.7,0.8-1.2,2-1.3,3.3c-0.1,0.5-0.1,1.4,0,2c0.2,1.8,1,3.2,2.3,4c0.6,0.4,1.4,0.6,2.1,0.7
		c0.3,0,1.4,0,1.7,0c1-0.1,1.9-0.4,2.7-0.9l0.2-0.1v-0.8c0-0.7,0-0.8,0-0.8c0,0-0.1,0.1-0.2,0.1c-0.7,0.5-1.6,0.9-2.5,1
		c-0.3,0-1,0.1-1.3,0.1c-0.8-0.1-1.5-0.4-2-0.9c-0.3-0.2-0.6-0.7-0.8-1.2c-0.2-0.5-0.4-1.1-0.4-1.7v-0.2l4,0l4,0l0-0.5
		C60.3,58.6,60.3,58.2,60.3,58z M58.4,57.8h-3h-3l0-0.1c0-0.2,0.1-0.6,0.2-0.8c0.2-0.6,0.5-1.1,1-1.6c0.4-0.4,0.9-0.7,1.5-0.8
		c0.3-0.1,0.8-0.1,1.1,0c0.6,0.1,1,0.3,1.4,0.7c0.5,0.5,0.9,1.5,0.9,2.4L58.4,57.8z"/>
	<path class="st0" d="M12.5,49l-0.1-0.2h-1h-1l-3,7.9c-1.6,4.3-3,7.9-3,7.9c0,0,0.2,0,1,0h1l0.8-2.1c0.4-1.2,0.8-2.2,0.8-2.2l0-0.1
		h3.3h3.3l0.8,2.2l0.8,2.2h1c0.6,0,1,0,1,0C18.5,64.5,12.7,49.6,12.5,49z M11.5,58.5c-1.5,0-2.7,0-2.7,0c0,0,0.5-1.5,1.2-3.3
		c0.7-1.8,1.2-3.4,1.3-3.5c0.1-0.2,0.2-0.6,0.2-0.8c0-0.2,0.1-0.2,0.1,0c0.1,0.6,0.2,0.8,1.4,4.2c0.7,1.8,1.2,3.4,1.2,3.4
		C14.2,58.5,13,58.5,11.5,58.5z"/>
	<path class="st0" d="M19.1,64.3V64l3.3-4.6l3.3-4.6l-3,0l-3,0l0-0.8l0-0.8h4.3h4.3v0.3v0.3l-3.3,4.6c-1.8,2.5-3.3,4.6-3.3,4.6
		c0,0,1.5,0,3.3,0h3.3v0.8v0.8h-4.6h-4.6C19.1,64.5,19.1,64.3,19.1,64.3z"/>
	<path class="st0" d="M43.5,64.5c0,0,0-2.5,0-5.6v-5.6h0.9h0.9v1.2c0,0.6,0,1.2,0,1.2c0,0,0.1-0.1,0.1-0.2c0.2-0.6,0.6-1.1,1-1.6
		c0.4-0.4,0.9-0.6,1.4-0.7c0.2,0,0.3,0,0.6,0c0.4,0,0.6,0,0.8,0.1l0.1,0v0.9v0.9L49.1,55c-0.4-0.2-0.8-0.3-1.2-0.2
		c-0.3,0-0.5,0.1-0.7,0.1c-0.5,0.2-0.9,0.5-1.1,0.9c-0.4,0.6-0.7,1.4-0.8,2.2c0,0.1,0,1.2,0,3.4l0,3.2h-0.9
		C43.9,64.5,43.5,64.5,43.5,64.5z"/>
</g>
<g>
	<path class="st1" d="M30.3,40.9c7.2-1.3,13.1-2.3,13.2-2.3l0.1,0l-6.8-8c-3.7-4.4-6.8-8.1-6.8-8.1c0,0,7-19.3,7-19.4
		c0,0,4.8,8.2,11.5,19.9c6.3,11,11.5,20,11.6,20.1l0.1,0.2l-21.5,0l-21.5,0C17.3,43.2,30.3,40.9,30.3,40.9z"/>
	<path class="st1" d="M4.5,38.5c0,0,3.2-5.5,7.1-12.3l7.1-12.3l8.3-6.9C31.5,3.1,35.2,0,35.2,0c0,0,0,0.1-0.1,0.3s-4.1,8.8-9,19.2
		l-8.8,18.9l-6.4,0C7.4,38.5,4.5,38.5,4.5,38.5z"/>
</g>
</svg>
