<?xml version="1.0" encoding="utf-8"?>
<!-- Generator: Adobe Illustrator 20.1.0, SVG Export Plug-In . SVG Version: 6.00 Build 0)  -->
<svg version="1.1" id="Слой_1" xmlns="http://www.w3.org/2000/svg" xmlns:xlink="http://www.w3.org/1999/xlink" x="0px" y="0px"
	 width="154" height="47.9" viewBox="0 0 154 47.9" style="enable-background:new 0 0 154 47.9;" xml:space="preserve">
<style type="text/css">
	.st0{fill:#009BDE;}
	.st1{fill:#0F488A;}
</style>
<path class="st0" d="M22.9,41h-1.4l-0.1,6.9h1.4c2.2,0,3.9-1.2,3.9-3.5S25,41,22.9,41z M22.6,47.1h-0.3l-0.1-5.4h0.3
	c1.8,0,3.3,0.7,3.3,2.7S24.3,47.1,22.6,47.1z"/>
<rect x="45.7" y="41" class="st0" width="0.9" height="6.9"/>
<path class="st0" d="M68.1,44.8c0.9-0.1,1.6-0.9,1.6-1.9c0-0.6-0.3-1.3-0.9-1.6C68.3,41,67.6,41,67,41h-1v6.9h0.8V45h0.4l2,2.9h1
	L68.1,44.8z M67.1,44.2h-0.3v-2.5H67c0.9,0,1.9,0.1,1.9,1.2C68.9,44,68,44.2,67.1,44.2z"/>
<polygon class="st0" points="89.1,41 92.8,41 92.8,41.8 90,41.8 90,43.7 92.7,43.7 92.7,44.5 90,44.5 90,47.1 92.8,47.1 92.8,47.9 
	89.1,47.9 89.1,41 "/>
<path class="st0" d="M116.9,42.3c-0.5-0.4-1.2-0.7-1.8-0.7c-1.5,0-2.7,1.3-2.7,2.8s1.2,2.8,2.7,2.8c0.7,0,1.3-0.3,1.8-0.7v1
	c-0.5,0.3-1.2,0.5-1.8,0.5c-2,0-3.6-1.6-3.6-3.6s1.6-3.6,3.6-3.6c0.6,0,1.2,0.1,1.7,0.5L116.9,42.3L116.9,42.3z"/>
<path class="st0" d="M137.9,47.9H137v-6.1h-1.6V41h4.1v0.8h-1.6C137.9,41.7,137.9,47.9,137.9,47.9z"/>
<polygon class="st1" points="32.4,0 41.4,0 25.7,28 15.7,28 0,0 9,0 20.7,20.2 32.4,0 "/>
<polygon class="st1" points="56.2,7.8 44.5,28 35.5,28 51.2,0 61.2,0 77,28 68,28 56.2,7.8 "/>
<path class="st1" d="M117,15.8c0,0.3-0.1,0.7-0.4,1.2c-0.2,0.5-0.6,1-1,1.5c-0.5,0.5-1.2,1-2.2,1.5s-2.2,0.8-3.6,0.8H91.1V28h-8.7
	V13.6h23.9c0.9,0,1.5-0.2,1.8-0.7c0.4-0.5,0.5-1.2,0.5-2.2V10c0-0.8-0.2-1.6-0.5-2.2c-0.4-0.6-0.9-1-1.7-1h-24V0h27.5
	c1.4,0,2.6,0.2,3.6,0.7s1.7,1,2.2,1.5s0.8,1,1,1.5s0.3,0.9,0.4,1.2L117,15.8L117,15.8z"/>
<polygon class="st1" points="123.1,0 154,0 154,6.6 123.1,6.6 123.1,0 "/>
<polygon class="st1" points="123.1,10.8 154,10.8 154,16.9 123.1,16.9 123.1,10.8 "/>
<polygon class="st1" points="123.1,21.3 154,21.3 154,28 123.1,28 123.1,21.3 "/>
</svg>
