<?xml version="1.0" encoding="utf-8"?>
<!-- Generator: Adobe Illustrator 20.1.0, SVG Export Plug-In . SVG Version: 6.00 Build 0)  -->
<svg version="1.1" id="Layer_1" xmlns="http://www.w3.org/2000/svg" xmlns:xlink="http://www.w3.org/1999/xlink" x="0px" y="0px"
	 width="137.7" height="25.3" viewBox="0 0 137.7 25.3" style="enable-background:new 0 0 137.7 25.3;" xml:space="preserve">
<g>
	<path d="M18,20.5H7.2l-1.5,4.2H0L9.4,0.5h6.4l9.3,24.2h-5.6L18,20.5z M8.6,16h8l-4-11.1L8.6,16z"/>
	<path d="M46.2,14.8L36.9,0.5h5.9l6,9.7l5.9-9.7h5.9l-9.2,14.3v9.9h-5.1V14.8z"/>
	<path d="M84.3,15l-1.9,2.3v7.4h-5.1V0.5h5.1v10.8L91,0.5h6.3l-9.6,11.3L98,24.7h-6.3L84.3,15z"/>
	<path d="M124.8,0.1c7.3,0,12.6,5.2,12.6,12.5s-5.3,12.5-12.7,12.5c-7.3,0-12.6-5.2-12.6-12.5C112.2,5.3,117.6,0.1,124.8,0.1z
		 M124.8,4.7c-4.5,0-7.3,3.4-7.3,7.9c0,4.5,2.9,7.9,7.3,7.9c4.5,0,7.4-3.4,7.4-7.9C132.2,8.1,129.3,4.7,124.8,4.7z"/>
</g>
</svg>
