<svg id="Layer_1" data-name="Layer 1" xmlns="http://www.w3.org/2000/svg" width="263" height="51.49" viewBox="0 0 263 51.49"><defs><style>.cls-1{fill:#50c6e1;}.cls-2{fill:#231f20;}</style></defs><title>logo</title><path class="cls-1" d="M261.67,46.89v4.62h-5.06V64a3.38,3.38,0,0,0,.58,2.33,3.38,3.38,0,0,0,2.33.58c0.39,0,.76,0,1.12,0a9.38,9.38,0,0,0,1-.15V72a16.47,16.47,0,0,1-1.95.19q-1.07,0-2.09,0a20.16,20.16,0,0,1-3-.22,7.17,7.17,0,0,1-2.53-.85,4.51,4.51,0,0,1-1.73-1.8,6.43,6.43,0,0,1-.63-3.07V51.51h-4.18V46.89h4.18V39.35h6.91v7.54h5.06Z" transform="translate(-51 -29.75)"/><path class="cls-1" d="M234.49,46.89v3.78h0.1c1.44-4.05,3.28-3.78,8.4-3.78v4.62c-2.71,0-3.38.18-4.84,0.88a5.71,5.71,0,0,0-1.83,2.09,9.59,9.59,0,0,0-1.14,3.06,24.4,24.4,0,0,0-.34,4.18V72h-6.91V46.89h6.57Z" transform="translate(-51 -29.75)"/><path class="cls-2" d="M69.5,68.83a7,7,0,0,1-3.11,2.88,10.36,10.36,0,0,1-4.35.88,10.51,10.51,0,0,1-4.85-1.07,9.74,9.74,0,0,1-3.45-2.9,13.14,13.14,0,0,1-2-4.21A17.64,17.64,0,0,1,51,59.46a16.57,16.57,0,0,1,.69-4.78,12.4,12.4,0,0,1,2-4.07,9.93,9.93,0,0,1,8.16-3.9,9.67,9.67,0,0,1,4.16.93,7.25,7.25,0,0,1,3.11,2.73h0.09V38H76V72H69.6V68.83H69.5ZM69.21,56.68a7.16,7.16,0,0,0-1-2.47,5.51,5.51,0,0,0-1.78-1.74,5.24,5.24,0,0,0-2.76-.67,5.49,5.49,0,0,0-2.81.67,5.27,5.27,0,0,0-1.83,1.76,7.79,7.79,0,0,0-1,2.5,13.56,13.56,0,0,0-.31,2.92,12.49,12.49,0,0,0,.33,2.85,7.76,7.76,0,0,0,1.07,2.54A5.91,5.91,0,0,0,61,66.86a5,5,0,0,0,2.69.69,5.35,5.35,0,0,0,2.78-.67,5.05,5.05,0,0,0,1.78-1.78,8,8,0,0,0,1-2.54,15,15,0,0,0,.29-2.95A14.62,14.62,0,0,0,69.21,56.68Z" transform="translate(-51 -29.75)"/><path class="cls-2" d="M115.59,73.78a8.34,8.34,0,0,1-1.74,3.54A10.35,10.35,0,0,1,110,80.1a16.61,16.61,0,0,1-6.75,1.14,15.75,15.75,0,0,1-3.69-.45,11.7,11.7,0,0,1-3.42-1.4,8.41,8.41,0,0,1-2.57-2.45,7.09,7.09,0,0,1-1.16-3.59h6.71A3.85,3.85,0,0,0,101,76a6.66,6.66,0,0,0,3.19.74A4.9,4.9,0,0,0,108.31,75a6.72,6.72,0,0,0,1.26-4.33V67.45h-0.09a6.69,6.69,0,0,1-3.12,2.88,10.1,10.1,0,0,1-4.26.93,10.74,10.74,0,0,1-4.76-1,9,9,0,0,1-3.28-2.66,11.11,11.11,0,0,1-1.88-3.95,18.69,18.69,0,0,1-.59-4.78,15.33,15.33,0,0,1,.69-4.59,12,12,0,0,1,2-3.9,9.77,9.77,0,0,1,3.31-2.69,9.93,9.93,0,0,1,4.54-1,9.51,9.51,0,0,1,4.26.9,7.36,7.36,0,0,1,3.07,3h0.09V47.38H116v23A16.5,16.5,0,0,1,115.59,73.78Zm-9.25-8.18a5.27,5.27,0,0,0,1.81-1.52,6.72,6.72,0,0,0,1.07-2.16,9,9,0,0,0,.36-2.54,13.92,13.92,0,0,0-.29-2.88,7.19,7.19,0,0,0-1-2.4,4.93,4.93,0,0,0-1.76-1.66,5.55,5.55,0,0,0-2.76-.62,5,5,0,0,0-2.45.57,5.13,5.13,0,0,0-1.71,1.55,6.49,6.49,0,0,0-1,2.24,11,11,0,0,0-.31,2.64,13.44,13.44,0,0,0,.26,2.64,7.13,7.13,0,0,0,.9,2.35,5.28,5.28,0,0,0,1.69,1.71,4.78,4.78,0,0,0,2.62.67A5.37,5.37,0,0,0,106.34,65.6Z" transform="translate(-51 -29.75)"/><path class="cls-2" d="M121.61,43.58V38h6.75v5.56h-6.75Zm6.75,3.8V72h-6.75V47.38h6.75Z" transform="translate(-51 -29.75)"/><path class="cls-1" d="M217.86,43.58V38h6.75v5.56h-6.75Zm6.75,3.8V72h-6.75V47.38h6.75Z" transform="translate(-51 -29.75)"/><path class="cls-2" d="M80.55,43.58V38H87.3v5.56H80.55Zm6.75,3.8V72H80.55V47.38H87.3Z" transform="translate(-51 -29.75)"/><path class="cls-2" d="M147.19,47.38V51.9h-4.95V64.08a3.3,3.3,0,0,0,.57,2.28,3.3,3.3,0,0,0,2.28.57c0.38,0,.74,0,1.09,0a9.17,9.17,0,0,0,1-.14V72a16.1,16.1,0,0,1-1.9.19q-1,0-2,0a19.71,19.71,0,0,1-3-.21,7,7,0,0,1-2.47-.83,4.41,4.41,0,0,1-1.69-1.76,6.28,6.28,0,0,1-.62-3V51.9H131.4V47.38h4.09V40h6.75v7.37h4.95Z" transform="translate(-51 -29.75)"/><path class="cls-2" d="M150.14,54.95A7.84,7.84,0,0,1,151.33,51,8.09,8.09,0,0,1,154,48.48a11.61,11.61,0,0,1,3.64-1.36,20.71,20.71,0,0,1,4.07-.4,27.66,27.66,0,0,1,3.76.26,11.52,11.52,0,0,1,3.47,1,6.85,6.85,0,0,1,2.57,2.12,5.92,5.92,0,0,1,1,3.59V66.5a25.5,25.5,0,0,0,.19,3.19,5.73,5.73,0,0,0,.67,2.28H166.5a9.69,9.69,0,0,1-.31-1.16,10.17,10.17,0,0,1-.17-1.21,8.79,8.79,0,0,1-3.8,2.33,15.27,15.27,0,0,1-4.47.67,12.08,12.08,0,0,1-3.28-.43,7.51,7.51,0,0,1-2.66-1.33A6.18,6.18,0,0,1,150,68.55a7.71,7.71,0,0,1-.64-3.28,7.17,7.17,0,0,1,.74-3.45,6.17,6.17,0,0,1,1.9-2.16,8.53,8.53,0,0,1,2.66-1.21,28.56,28.56,0,0,1,3-.64q1.52-.24,3-0.38a18.07,18.07,0,0,0,2.62-.43,4.56,4.56,0,0,0,1.81-.83,1.82,1.82,0,0,0,.62-1.59,3.58,3.58,0,0,0-.36-1.74,2.63,2.63,0,0,0-1-1,3.76,3.76,0,0,0-1.38-.48,11.34,11.34,0,0,0-1.69-.12,5.13,5.13,0,0,0-3.14.86,3.82,3.82,0,0,0-1.33,2.85h-6.75Zm15.6,5a3,3,0,0,1-1.07.59,10.85,10.85,0,0,1-1.38.36q-0.74.14-1.55,0.24t-1.62.24a12.22,12.22,0,0,0-1.5.38,4.43,4.43,0,0,0-1.28.64,3,3,0,0,0-.88,1,3.28,3.28,0,0,0-.33,1.57,3.17,3.17,0,0,0,.33,1.52,2.54,2.54,0,0,0,.9,1,3.8,3.8,0,0,0,1.33.5,8.47,8.47,0,0,0,1.57.14,6,6,0,0,0,3.09-.67A4.46,4.46,0,0,0,165,65.86a5.12,5.12,0,0,0,.64-1.88,13.06,13.06,0,0,0,.12-1.52V59.94Z" transform="translate(-51 -29.75)"/><path class="cls-1" d="M280.46,72V68.55h-0.14A7.6,7.6,0,0,1,277,71.64a9.83,9.83,0,0,1-4.18,1,11.81,11.81,0,0,1-4.45-.71,6.4,6.4,0,0,1-2.73-2,7.9,7.9,0,0,1-1.4-3.19,19.78,19.78,0,0,1-.4-4.16V47.38h6.75V61.27a8.61,8.61,0,0,0,1,4.54,3.68,3.68,0,0,0,3.38,1.5,4.68,4.68,0,0,0,4-1.64q1.24-1.64,1.24-5.4V47.38h6.75V72h-6.42Z" transform="translate(-51 -29.75)"/><path class="cls-1" d="M297.88,66.07a6.92,6.92,0,0,0,7.89.45,4.25,4.25,0,0,0,1.81-2.16h5.94a11.29,11.29,0,0,1-4.38,6.33,12.88,12.88,0,0,1-7.13,1.9,14,14,0,0,1-5.23-.93A10.88,10.88,0,0,1,292.84,69a11.87,11.87,0,0,1-2.5-4.09,15,15,0,0,1-.88-5.23,14.34,14.34,0,0,1,.9-5.14,11.88,11.88,0,0,1,6.54-6.85,12.73,12.73,0,0,1,5.11-1,11.69,11.69,0,0,1,5.47,1.21,10.92,10.92,0,0,1,3.83,3.26,13.4,13.4,0,0,1,2.16,4.66,17.38,17.38,0,0,1,.48,5.47H296.22Q296.36,64.6,297.88,66.07Zm7.63-12.94a4.74,4.74,0,0,0-3.69-1.33,5.88,5.88,0,0,0-2.69.55,5.12,5.12,0,0,0-1.71,1.36,4.94,4.94,0,0,0-.9,1.71,7.67,7.67,0,0,0-.31,1.62h11A7.8,7.8,0,0,0,305.52,53.14Z" transform="translate(-51 -29.75)"/><path class="cls-2" d="M184.36,38.32v34H177.6v-34h6.75Z" transform="translate(-51 -29.75)"/><polygon class="cls-1" points="144.17 42.53 151.53 42.53 167.88 0 160.65 0 144.17 42.53"/><polygon class="cls-1" points="142.61 17.63 135.52 17.63 142.8 38.89 146.35 29.74 142.61 17.63"/></svg>