<?xml version="1.0" encoding="utf-8"?>
<!-- Generator: Adobe Illustrator 20.1.0, SVG Export Plug-In . SVG Version: 6.00 Build 0)  -->
<svg version="1.1" id="Layer_1" xmlns="http://www.w3.org/2000/svg" xmlns:xlink="http://www.w3.org/1999/xlink" x="0px" y="0px"
	 width="317.5" height="317.5" viewBox="0 0 317.5 317.5" style="enable-background:new 0 0 317.5 317.5;" xml:space="preserve">
<style type="text/css">
	.st0{fill:#0F488A;}
	.st1{fill:#009BDE;}
</style>
<g>
	<path class="st0" d="M89.5,132.8c0,3.9,0.4,7.1,1.2,9.4c0.8,2.3,1.9,4.9,3.4,7.6c0.5,0.8,0.7,1.7,0.7,2.4c0,1.1-0.6,2.1-2,3.2
		l-6.7,4.4c-1,0.6-1.9,1-2.7,1c-1.1,0-2.1-0.5-3.2-1.5c-1.5-1.6-2.7-3.3-3.8-5c-1.1-1.8-2.1-3.8-3.3-6.2c-8.2,9.7-18.6,14.6-31,14.6
		c-8.9,0-15.9-2.5-21.1-7.6s-7.8-11.8-7.8-20.3c0-9,3.2-16.3,9.6-21.8c6.4-5.5,15-8.2,25.9-8.2c3.6,0,7.3,0.3,11.2,0.8
		c3.9,0.5,7.9,1.4,12.1,2.3v-7.7c0-8-1.7-13.6-5-16.9c-3.4-3.3-9.1-4.9-17.2-4.9c-3.7,0-7.5,0.4-11.4,1.4S30.7,82,27,83.5
		c-1.7,0.7-3,1.2-3.7,1.4s-1.3,0.3-1.7,0.3c-1.5,0-2.2-1.1-2.2-3.3v-5.2c0-1.7,0.2-3,0.7-3.7c0.5-0.7,1.5-1.5,3-2.2
		c3.7-1.9,8.1-3.5,13.3-4.8c5.2-1.4,10.7-2,16.5-2c12.6,0,21.8,2.9,27.7,8.6c5.8,5.7,8.8,14.4,8.8,26v34.2L89.5,132.8L89.5,132.8z
		 M46.6,148.8c3.5,0,7.1-0.6,10.9-1.9c3.8-1.3,7.2-3.6,10-6.8c1.7-2,3-4.2,3.6-6.8c0.6-2.5,1.1-5.6,1.1-9.2v-4.4
		c-3.1-0.7-6.3-1.4-9.7-1.8c-3.4-0.4-6.7-0.6-9.9-0.6c-7.1,0-12.2,1.4-15.7,4.2c-3.5,2.9-5.2,6.9-5.2,12.1c0,5,1.3,8.7,3.9,11.2
		C38,147.5,41.7,148.8,46.6,148.8z M131.4,160.2c-1.9,0-3.2-0.3-4-1.1c-0.8-0.6-1.6-2.1-2.2-4.1l-24.8-81.6c-0.6-2.1-1-3.5-1-4.2
		c0-1.7,0.8-2.6,2.5-2.6h10.3c2,0,3.4,0.3,4.1,1.1c0.8,0.6,1.5,2.1,2.1,4.1l17.7,69.9l16.5-69.9c0.5-2.1,1.2-3.5,2-4.1
		c0.8-0.6,2.3-1.1,4.2-1.1h8.4c2,0,3.4,0.3,4.2,1.1c0.8,0.6,1.6,2.1,2,4.1l16.7,70.7l18.3-70.7c0.6-2.1,1.4-3.5,2.1-4.1
		c0.8-0.6,2.2-1.1,4.1-1.1h9.8c1.7,0,2.6,0.8,2.6,2.6c0,0.5-0.1,1.1-0.2,1.7c-0.1,0.6-0.3,1.5-0.7,2.6l-25.4,81.6
		c-0.6,2.1-1.4,3.5-2.2,4.1c-0.8,0.6-2.2,1.1-4,1.1h-9.1c-2,0-3.4-0.3-4.2-1.1c-0.8-0.7-1.6-2.1-2-4.2L163,86.9l-16.3,68
		c-0.5,2.1-1.2,3.5-2,4.2c-0.8,0.7-2.3,1.1-4.2,1.1H131.4z M267.1,163.1c-5.5,0-11-0.6-16.3-1.9c-5.3-1.3-9.4-2.6-12.1-4.2
		c-1.7-1-2.9-2-3.3-3c-0.4-1-0.6-2-0.6-3v-5.4c0-2.2,0.8-3.3,2.4-3.3c0.6,0,1.3,0.1,1.9,0.3c0.6,0.2,1.6,0.6,2.6,1.1
		c3.6,1.6,7.5,2.9,11.6,3.7c4.2,0.8,8.3,1.3,12.6,1.3c6.7,0,11.8-1.2,15.4-3.5c3.6-2.3,5.5-5.7,5.5-10c0-3-1-5.4-2.9-7.4
		c-1.9-2-5.5-3.8-10.7-5.5l-15.3-4.8c-7.7-2.4-13.4-6-16.9-10.8c-3.5-4.6-5.3-9.8-5.3-15.3c0-4.4,1-8.3,2.9-11.7s4.4-6.3,7.6-8.7
		c3.2-2.4,6.8-4.2,11-5.5c4.2-1.3,8.7-1.8,13.3-1.8c2.3,0,4.8,0.1,7.1,0.4c2.4,0.3,4.6,0.7,6.9,1.2c2.1,0.5,4.1,1.1,6,1.7
		c1.9,0.6,3.4,1.3,4.4,1.9c1.5,0.8,2.5,1.7,3.2,2.6c0.6,0.8,1,2,1,3.5v5c0,2.2-0.8,3.4-2.4,3.4c-0.8,0-2.2-0.4-4-1.3
		c-6-2.7-12.8-4.1-20.3-4.1c-6,0-10.8,1-14,3c-3.3,2-5,5.1-5,9.4c0,3,1.1,5.5,3.2,7.5c2.1,2,6,4,11.6,5.8l15,4.8
		c7.6,2.4,13.1,5.8,16.4,10.1c3.3,4.3,4.9,9.3,4.9,14.8c0,4.5-1,8.7-2.7,12.2c-1.9,3.6-4.4,6.8-7.7,9.3c-3.3,2.6-7.2,4.5-11.7,5.9
		C277.4,162.3,272.5,163.1,267.1,163.1z"/>
	<path class="st1" d="M287,214.4c-34.7,25.7-85.2,39.3-128.6,39.3c-60.8,0-115.6-22.5-157-59.9c-3.3-3-0.3-7,3.6-4.6
		c44.8,26,100,41.7,157.1,41.7c38.5,0,80.9-8,119.8-24.5C287.8,203.7,292.7,210.2,287,214.4z M301.5,197.9
		c-4.4-5.7-29.4-2.7-40.7-1.4c-3.4,0.4-3.9-2.5-0.8-4.8c19.9-13.9,52.5-9.9,56.3-5.3c3.8,4.8-1.1,37.4-19.6,53
		c-2.9,2.4-5.6,1.2-4.3-2C296.5,227.1,305.9,203.5,301.5,197.9z"/>
</g>
</svg>
