<?xml version="1.0" encoding="utf-8"?>
<!-- Generator: Adobe Illustrator 20.1.0, SVG Export Plug-In . SVG Version: 6.00 Build 0)  -->
<svg version="1.1" id="Слой_1" xmlns="http://www.w3.org/2000/svg" xmlns:xlink="http://www.w3.org/1999/xlink" x="0px" y="0px"
	 width="95.9" height="38.9" viewBox="0 0 95.9 38.9" style="enable-background:new 0 0 95.9 38.9;" xml:space="preserve">
<style type="text/css">
	.st0{fill:#009BDE;}
	.st1{fill:#0F488A;}
</style>
<g>
	<path class="st0" d="M61,6.3c0.3,0,0.6-0.2,1-0.3c0.4-0.2,0.9-0.3,1.3-0.4h0.1c0.3,0,0.6,0.1,0.9,0.3C65,4.8,65.9,3.8,67,2.8
		c1-0.8,1.9-1.4,2.9-1.9c-0.9-0.3-1.9-0.5-3-0.5c-1.8,0-3.5,0.5-4.8,1.5c-1.4,1-2,2-2,3.1c0,0.4,0.1,0.7,0.3,1
		C60.5,6.2,60.8,6.3,61,6.3z"/>
	<path class="st0" d="M62.1,30.3c-0.3-1.4-0.4-2.8-0.3-4.3c0-1.2,0.2-2.1,0.7-2.8c0.3-0.3,0.6-0.6,0.9-0.7c-0.3-0.9-0.6-1.6-1-2.2
		L62,19.8l0.6-0.2c0.7-0.2,1.3-0.5,1.9-0.7c-0.9-1.4-1.4-2.8-1.7-4.4c-0.1-0.8-0.2-1.6-0.2-2.3c0-0.1,0-0.2,0-0.3
		c-1.1,0.8-2.6,1.7-4.5,2.6c-1.2,0.6-2.2,1.1-3,1.5c-0.4,0.2-0.7,0.4-1,0.5c-2.5,1.3-4.4,2.5-5.5,3.7S47,22.5,47,23.6
		c0,0.6,0.2,1.2,0.5,1.7c0.2,0.4,0.6,0.6,1,0.6c0.3,0,0.7-0.2,1.3-0.6c0.7-0.5,1.4-0.8,2-0.8c0.8,0,1.7,0.3,2.3,0.9s0.8,1.3,0.8,2.3
		c0,1.2-0.6,2.4-1.9,3.4c-1.1,0.9-2.6,1.4-4.2,1.4c-1.2,0-2.3-0.3-3.3-0.9c-1-0.5-2.1-1.3-2.9-2.3c-1-1.1-1.7-2.2-2.2-3.6
		c-0.5-1.5-0.7-2.8-0.7-4c0-0.8,0.1-1.6,0.3-2.4c0.3-0.8,0.8-1.2,1.3-1.2h0.1c0.2,0.1,0.4,0.1,0.6,0.2c0.2,0,0.3,0.1,0.5,0.1
		c0.5,0.2,0.9,0.3,1.3,0.3c0.9,0,1.6-0.4,2.2-1.2c0.6-0.7,1-1.8,1-2.8c0-0.4-0.1-0.8-1.3-1.2c-0.2-0.1-0.4-0.2-0.6-0.3
		c-0.2-0.1-0.4-0.2-0.6-0.3c-0.8-0.5-1.4-1.1-1.8-1.7C42.3,10.5,42,9.7,42,8.9c0-1.1,0.4-2,1-2.7c0.7-0.7,1.6-1,2.7-1H46
		c0.6,0.1,1.4,0.2,2,0.4c0.2,0,0.5,0.1,0.7,0.1c0.5,0.1,1,0.2,1.5,0.2s1.3-0.1,1.9-0.6c0.4-0.4,0.5-1.1,0.5-1.5
		c0-1.1-0.7-1.9-2.1-2.7C49,0.3,46.9,0,44.3,0c-3.5,0-6.2,0.8-8.2,2.4c-2,1.5-3.1,3.9-3,6.3c0,0.6,0.1,1.2,0.3,1.8l0.1,0.3
		c0.2,0.6,0.4,1.1,0.7,1.7l0.3,0.5L34,13.2c-1.9,0.9-3.7,2.4-5,4.1c-1.1,1.7-1.7,3.9-1.7,6.1c0,0.9,0.1,1.7,0.2,2.5
		c0.6-1.3,1.4-1.9,2.4-1.9c1.2,0,2.3,0.5,3,1.4c0.6,0.8,1,1.7,1.1,2.6c0.1,0.3,0.1,0.7,0.1,1.1c0,1.4-0.3,2.8-0.8,4.3
		c-0.1,0.5-0.3,1-0.6,1.5c3.3,2.7,7.7,4.1,13,4.1c2.7,0,5.2-0.4,7.4-1.1c2.1-0.7,4.2-1.7,6.1-3.1c1.1-0.9,2.2-2,3-3.3
		C62.2,31,62.1,30.7,62.1,30.3z"/>
</g>
<g>
	<path class="st1" d="M63.4,31.3c0.5,1.4,1,2.6,1.7,3.4c0.9,1,2.6,1.8,5.1,2.6c2.6,0.8,5.5,1.2,8.3,1.2c5.1,0,9.4-1.2,12.9-3.8
		c3.1-2.5,4.6-5.7,4.6-9.6c0-2.9-0.8-5.2-2.4-6.9c-1.5-1.7-4.3-3.2-8.3-4.4c-0.1,0-0.3-0.1-0.4-0.1c-0.2-0.1-0.5-0.2-0.9-0.3
		c-4.1-1.2-6.2-2.6-6.2-4.2c0-0.8,0.4-1.5,1-2c1.8-1.1,4-0.8,5.7-0.1c1.2,0.5,2,1.1,2.7,1.7c0.3,0.2,0.7,0.6,1.2,1.1
		c1.4,1.4,2.8,2.3,3.6,2.3c0.9,0.1,1.7-0.3,2.3-0.9c0.7-0.7,1-1.5,1-2.6c-0.1-1.2-0.3-2.2-0.7-3c-0.5-1.2-1.1-2.3-2-3.3
		c-0.4-0.5-1-1-1.6-1.4c-1.1-0.5-2-0.4-2.9-0.2c-0.7,0.1-1.3,0.2-2,0.2c-0.2,0-1.1-0.1-2.7-0.5C81.7,0.2,80,0,78.5,0
		c-4.4,0-7.8,1.1-10.7,3.5c-2.8,2.3-4.1,5.1-4.1,8.7c-0.1,2.6,0.8,5.1,2.6,7.2c1.9,2.1,4.6,3.8,8.1,5.2c0.5,0.1,1,0.3,1.4,0.5
		c0.5,0.2,0.9,0.3,1.4,0.5c2.9,1,4.4,2.1,4.4,3.3c0,0.9-0.6,1.7-1.4,2.1c-0.9,0.5-1.9,0.8-3,0.8c-1.7,0-3.3-0.4-4.7-1.3
		c-1.6-1-2.9-2.3-4-3.7l-0.9-1.2c-0.9-1.5-1.9-2.2-2.8-2.2c-0.7,0-1.2,0.2-1.5,0.6c-0.3,0.5-0.5,1.2-0.5,2.2
		C62.7,27.9,62.9,29.6,63.4,31.3z"/>
	<path class="st1" d="M2.8,37.6h18.5c2.1,0,4.3,0.2,6.2,0.6c0.2,0,0.3,0,0.3,0.1c0.6,0,1.1-0.1,1.5-0.4c0.5-0.3,1-0.8,1.3-1.3
		c0.9-1.3,1.5-2.6,1.8-3.8c0.5-1.4,0.8-2.7,0.8-4c0-1-0.4-2-1-2.8c-0.5-0.6-1.3-1-2.2-1c-0.5,0-1.2,0.2-1.7,1.9
		c-0.1,0.3-0.2,0.7-0.3,0.9c0,0.1-0.1,0.2-0.1,0.3c-0.7,1.5-1.5,2.5-2.6,3c-1,0.5-2.6,0.9-4.5,0.9c-1.1,0-1.9-0.1-2.7-0.4
		c-0.6-0.1-1.1-0.6-1.4-1.3v-0.1c-0.1-0.7-0.2-1.4-0.2-2.2c-0.1-1.1-0.1-2.7-0.1-4.8V19c0-1.8,0-3.3,0.1-4.6c0-0.9,0-1.7,0-2.4
		c0-1.9,0.1-3.1,0.2-3.6s0.2-0.8,0.4-1.3c0.2-0.3,0.6-0.7,1.1-1C18.3,6,18.5,6,18.6,5.9c0.2-0.1,0.5-0.3,0.7-0.3
		c1.2-0.5,1.8-1.2,1.8-2.1c0-1.3-1.3-2-2.4-2.3c-1.7-0.7-4.3-1-7.9-1c-3.7,0-6.4,0.3-8.2,1C1,1.7,0.1,2.5,0.1,3.6
		c0,0.4,0.1,0.8,0.2,1.1C0.5,5,0.7,5.2,1,5.5c0.1,0,0.2,0.1,0.3,0.1C1.6,5.7,1.8,5.8,2,5.8c0.4,0.1,0.8,0.3,1.1,0.4l0.3,0.2l0.1,0.1
		C3.9,7,4,7.7,4.1,9.2s0.2,4.3,0.2,7.4v4.8c0,3.8-0.1,6.2-0.3,7.5c-0.2,1.4-0.6,2.2-1.1,2.8c-0.4,0.4-0.8,0.7-1.2,0.9
		C0.5,33.2,0,34,0,34.8s0.3,1.6,0.8,2C1.2,37.3,2,37.6,2.8,37.6z"/>
</g>
</svg>
