<?xml version="1.0" encoding="utf-8"?>
<!-- Generator: Adobe Illustrator 20.1.0, SVG Export Plug-In . SVG Version: 6.00 Build 0)  -->
<svg version="1.1" id="Слой_1" xmlns="http://www.w3.org/2000/svg" xmlns:xlink="http://www.w3.org/1999/xlink" x="0px" y="0px"
	 width="268.7" height="50.6" viewBox="0 0 268.7 50.6" style="enable-background:new 0 0 268.7 50.6;" xml:space="preserve">
<style type="text/css">
	.st0{fill:#0F488A;}
	.st1{fill:#009BDE;}
</style>
<g>
	<path class="st0" d="M27,12.2c0,7.2-4.8,12-12.8,12H8.7v9.4H0V0h14.2C22.2,0,27,5,27,12.2z M18,12.1c0-2.4-1.4-3.7-4-3.7H8.7v7.5
		H14C16.6,15.9,18,14.5,18,12.1z"/>
	<path class="st0" d="M42,27c1.8,0,3.4-0.6,4.5-1.7l5.6,4.9c-2.5,2.5-5.9,4-9.9,4c-7.4,0-13-5.1-13-12.9c0-7.3,4.9-12.9,12.4-12.9
		c8.1,0,11.8,5.9,11.8,11.9c0,1-0.2,3.2-0.4,3.9H37.9C38.6,26.2,40,27,42,27z M37.8,19h7.8c-0.3-2.2-1.8-3.2-4-3.2
		C39.7,15.9,38.4,17,37.8,19z"/>
	<path class="st0" d="M77.3,32.1c-1.5,1.2-3.8,2.2-7.2,2.2c-6.5,0-10-3.5-10-10.3v-7.1h-4.2V9.1h4.2V2.2h8.3v6.9h7.1v7.8h-7.1v5.8
		c0,2.4,1.1,3.5,3.2,3.5c0.8,0,1.8-0.2,2.8-0.8L77.3,32.1z"/>
	<path class="st0" d="M91.2,27c1.8,0,3.4-0.6,4.5-1.7l5.6,4.9c-2.5,2.5-5.9,4-9.9,4c-7.4,0-13-5.1-13-12.9c0-7.3,4.9-12.9,12.4-12.9
		c8.1,0,11.8,5.9,11.8,11.9c0,1-0.2,3.2-0.4,3.9H87.1C87.7,26.2,89.1,27,91.2,27z M87,19h7.8c-0.3-2.2-1.8-3.2-4-3.2
		C88.8,15.9,87.6,17,87,19z"/>
	<path class="st0" d="M123.6,9.1l-1.8,8.3c-1.1-0.4-2.1-0.7-3-0.7c-2.4,0-4.1,1.3-4.1,3.8v13.2h-8.3V9.2h7.7l0.3,2.9
		c1.4-2.2,3.7-3.6,6.4-3.6C121.8,8.5,122.8,8.7,123.6,9.1z"/>
	<path class="st1" d="M165.4,8.4h-9.5v25.3h-8.7V8.4h-9.5V0h27.7V8.4z"/>
	<path class="st1" d="M190.1,9.2l-12.7,34.1h-7.6l3.2-9.6L163,9.2h8.8l4.9,13.2l4.4-13.2C181.1,9.2,190.1,9.2,190.1,9.2z"/>
	<path class="st1" d="M190.4,30.7l2-6c2.4,2.2,6.6,3,9.7,3c1,0,2.5,0,2.5-1.5c0-0.8-0.9-1-3.3-1.4c-5.7-1-9.9-2.1-9.9-7.6
		c0-6.6,5.8-8.6,10.9-8.6c3.6,0,7,1.1,9.6,3.1l-2,6c-1.9-1.5-5-2.4-7.5-2.4c-2,0-2.4,0.6-2.4,1.3c0,0.6,0.5,0.7,2,1
		c5.9,1.1,10.8,2.2,10.8,7.9c0,5.6-4.7,8.8-11.2,8.8C197.8,34.3,193,32.9,190.4,30.7z"/>
	<path class="st1" d="M215.5,21.4c0-7.6,5.3-12.9,12.8-12.9s12.9,5.2,12.9,12.9c0,7.6-5.4,12.9-12.9,12.9
		C220.9,34.3,215.5,29,215.5,21.4z M232.7,21.4c0-2.9-1.7-4.9-4.4-4.9c-2.6,0-4.3,2-4.3,4.9s1.7,4.8,4.3,4.8S232.7,24.3,232.7,21.4z
		"/>
	<path class="st1" d="M268.6,17.5v16.1h-8.3V19.8c0-2.1-1.2-3.3-3.2-3.3c-1.9,0-3.9,1.1-3.9,3.1v14.1h-8.3V9.2h7.7l0.2,2.5
		c1.6-2,4.1-3.2,7-3.2C264.7,8.5,268.6,11.9,268.6,17.5z"/>
</g>
<g>
	<path class="st0" d="M192.2,48h-3.7l-0.8,1.7H187l3-6.3h0.7l3,6.3H193L192.2,48z M192,47.5l-1.6-3.4l-1.6,3.4H192z"/>
	<path class="st0" d="M195.9,49c-0.5-0.5-0.7-1.1-0.7-2v-3.6h0.7V47c0,0.7,0.2,1.3,0.5,1.6c0.3,0.4,0.8,0.5,1.5,0.5s1.2-0.2,1.5-0.5
		s0.5-0.9,0.5-1.6v-3.6h0.7V47c0,0.9-0.2,1.6-0.7,2c-0.5,0.5-1.1,0.7-2,0.7S196.3,49.5,195.9,49z"/>
	<path class="st0" d="M203.1,43.4h2.7c0.7,0,1.3,0.1,1.9,0.4c0.5,0.3,1,0.6,1.2,1.1c0.3,0.5,0.4,1,0.4,1.6s-0.1,1.2-0.4,1.6
		c-0.3,0.5-0.7,0.8-1.2,1.1s-1.2,0.4-1.9,0.4h-2.7V43.4z M205.8,49.1c0.6,0,1.1-0.1,1.5-0.3s0.8-0.5,1-0.9s0.4-0.8,0.4-1.3
		s-0.1-0.9-0.4-1.3c-0.2-0.4-0.6-0.7-1-0.9s-0.9-0.3-1.5-0.3h-2v5.1L205.8,49.1L205.8,49.1z"/>
	<path class="st0" d="M211.4,43.4h0.7v6.3h-0.7V43.4z"/>
	<path class="st0" d="M215.9,49.3c-0.5-0.3-0.9-0.7-1.2-1.1c-0.3-0.5-0.4-1-0.4-1.6s0.1-1.2,0.4-1.6c0.3-0.5,0.7-0.9,1.2-1.1
		s1.1-0.4,1.8-0.4s1.2,0.1,1.8,0.4c0.5,0.3,0.9,0.7,1.2,1.1c0.3,0.5,0.5,1,0.5,1.6s-0.2,1.2-0.5,1.6c-0.3,0.5-0.7,0.9-1.2,1.1
		c-0.5,0.3-1.1,0.4-1.8,0.4S216.4,49.6,215.9,49.3z M219.1,48.8c0.4-0.2,0.8-0.5,1-0.9s0.4-0.8,0.4-1.3s-0.1-0.9-0.4-1.3
		c-0.2-0.4-0.6-0.7-1-0.9s-0.9-0.3-1.4-0.3s-1,0.1-1.4,0.3s-0.8,0.5-1,0.9s-0.4,0.8-0.4,1.3s0.1,0.9,0.4,1.3s0.6,0.7,1,0.9
		s0.9,0.3,1.4,0.3C218.2,49.2,218.6,49,219.1,48.8z"/>
	<path class="st0" d="M227.9,42.1h0.6l-3.1,8.5h-0.6L227.9,42.1z"/>
	<path class="st0" d="M238.2,43.4l-2.9,6.3h-0.7l-2.9-6.3h0.8l2.5,5.5l2.6-5.5H238.2z"/>
	<path class="st0" d="M239.6,43.4h0.7v6.3h-0.7V43.4z"/>
	<path class="st0" d="M243.3,49.5c-0.5-0.2-0.8-0.3-1-0.6l0.3-0.5c0.2,0.2,0.6,0.4,1,0.6c0.4,0.1,0.8,0.2,1.2,0.2
		c0.6,0,1-0.1,1.3-0.3s0.4-0.5,0.4-0.8s-0.1-0.5-0.2-0.6c-0.2-0.1-0.4-0.3-0.6-0.3c-0.2-0.1-0.6-0.2-1-0.3c-0.5-0.1-0.9-0.2-1.2-0.3
		s-0.5-0.3-0.8-0.5c-0.2-0.2-0.3-0.5-0.3-0.9c0-0.3,0.1-0.6,0.3-0.9c0.2-0.3,0.4-0.5,0.8-0.6c0.4-0.2,0.8-0.2,1.4-0.2
		c0.4,0,0.7,0,1.1,0.1c0.4,0.1,0.7,0.2,0.9,0.4l-0.2,0.5c-0.3-0.2-0.6-0.3-0.9-0.4c-0.3-0.1-0.6-0.1-0.9-0.1c-0.6,0-1,0.1-1.3,0.3
		s-0.4,0.5-0.4,0.8s0.1,0.5,0.2,0.6c0.2,0.2,0.4,0.3,0.6,0.4c0.2,0.1,0.6,0.2,1,0.3c0.5,0.1,0.9,0.2,1.2,0.3s0.6,0.3,0.8,0.5
		s0.3,0.5,0.3,0.9c0,0.3-0.1,0.6-0.3,0.9c-0.2,0.3-0.5,0.5-0.8,0.6c-0.4,0.2-0.8,0.2-1.4,0.2C244.3,49.7,243.8,49.7,243.3,49.5z"/>
	<path class="st0" d="M249.9,49c-0.5-0.5-0.7-1.1-0.7-2v-3.6h0.7V47c0,0.7,0.2,1.3,0.5,1.6c0.3,0.4,0.8,0.5,1.5,0.5s1.2-0.2,1.5-0.5
		s0.5-0.9,0.5-1.6v-3.6h0.7V47c0,0.9-0.2,1.6-0.7,2c-0.5,0.5-1.1,0.7-2,0.7S250.4,49.5,249.9,49z"/>
	<path class="st0" d="M261.2,48h-3.7l-0.8,1.7H256l3-6.3h0.7l3,6.3H262L261.2,48z M260.9,47.5l-1.6-3.4l-1.6,3.4H260.9z"/>
	<path class="st0" d="M264.3,43.4h0.7v5.7h3.7v0.6h-4.4L264.3,43.4L264.3,43.4z"/>
</g>
</svg>
