<?xml version="1.0" encoding="utf-8"?>
<!-- Generator: Adobe Illustrator 20.1.0, SVG Export Plug-In . SVG Version: 6.00 Build 0)  -->
<svg version="1.1" id="logo" xmlns="http://www.w3.org/2000/svg" xmlns:xlink="http://www.w3.org/1999/xlink" x="0px" y="0px"
	 viewBox="0 0 865 150.8" style="enable-background:new 0 0 865 150.8;" xml:space="preserve">
<style type="text/css">
	.st0{fill:#F70000;}
	.st1{fill:#555555;}
	.st2{fill:#404040;}
	.st3{fill:#252525;}
	.st4{fill:#707070;}
	.st5{fill:#101010;}
</style>
<rect id="item-07" x="100" y="100" class="st0" width="50" height="50"/>
<rect id="item-05" class="st1" width="100" height="100"/>
<rect id="item-04" x="50" class="st2" width="100" height="50"/>
<rect id="item-02" x="50" class="st3" width="50" height="50"/>
<rect id="item-06" y="50" class="st4" width="50" height="100"/>
<rect id="item-03" y="50" class="st2" width="50" height="50"/>
<rect id="item-01" class="st5" width="50" height="50"/>
<g>
	<path class="st5" d="M200.4,150.1V100h32.8v7.3h-23.8v13.6h22.4v7.3h-22.4v21.8H200.4z"/>
	<path class="st5" d="M274.7,150.1l-5-11.7h-24.4l-5,11.7h-9.2l22.6-50.1h7.5l22.6,50.1H274.7z M248.3,131.2h18.3l-9.2-21.3
		L248.3,131.2z"/>
	<path class="st5" d="M294.8,149.1c-3.4-1-6.2-2.5-8.5-4.4l3.1-6.7c2.4,1.8,5,3.2,7.6,4c2.7,0.9,5.6,1.3,8.7,1.3
		c3.5,0,6.1-0.6,8-1.8c1.9-1.2,2.8-2.9,2.8-5.1c0-1.9-0.9-3.3-2.6-4.3c-1.7-1-4.6-1.9-8.6-2.8c-4.2-0.9-7.6-1.9-10.2-3.1
		c-2.6-1.2-4.6-2.7-5.9-4.5c-1.3-1.8-2-4.2-2-7c0-2.9,0.8-5.6,2.4-7.9c1.6-2.3,3.9-4.1,6.8-5.4c2.9-1.3,6.3-2,10.2-2
		c3.5,0,6.8,0.5,10,1.6c3.2,1.1,5.8,2.5,7.8,4.4l-3.1,6.7c-4.4-3.5-9.4-5.3-14.8-5.3c-3.2,0-5.8,0.7-7.6,2c-1.9,1.3-2.8,3.1-2.8,5.4
		c0,1.9,0.8,3.4,2.5,4.5c1.7,1,4.5,2,8.4,2.9c4.2,0.9,7.6,2,10.3,3.2c2.6,1.2,4.6,2.6,6,4.4c1.4,1.8,2.1,4.1,2.1,6.8
		c0,3-0.8,5.6-2.4,7.8c-1.6,2.2-3.9,4-6.9,5.2c-3,1.2-6.5,1.8-10.6,1.8C301.7,150.7,298.1,150.2,294.8,149.1z"/>
	<path class="st5" d="M344.6,150.1v-42.5h-16.3V100h41.8v7.5h-16.3v42.5H344.6z"/>
	<path class="st5" d="M376.3,150.1V100h33.5v7.2h-24.6V121h23.1v7.2h-23.1v14.6h24.6v7.2H376.3z"/>
	<path class="st5" d="M423.6,149.1c-3.4-1-6.2-2.5-8.5-4.4l3.1-6.7c2.4,1.8,5,3.2,7.6,4c2.7,0.9,5.6,1.3,8.7,1.3
		c3.5,0,6.1-0.6,8-1.8c1.9-1.2,2.8-2.9,2.8-5.1c0-1.9-0.9-3.3-2.6-4.3c-1.7-1-4.6-1.9-8.6-2.8c-4.2-0.9-7.6-1.9-10.2-3.1
		c-2.6-1.2-4.6-2.7-5.9-4.5c-1.3-1.8-2-4.2-2-7c0-2.9,0.8-5.6,2.4-7.9c1.6-2.3,3.9-4.1,6.8-5.4c2.9-1.3,6.3-2,10.2-2
		c3.5,0,6.8,0.5,10,1.6c3.2,1.1,5.8,2.5,7.8,4.4l-3.1,6.7c-4.4-3.5-9.4-5.3-14.8-5.3c-3.2,0-5.8,0.7-7.6,2c-1.9,1.3-2.8,3.1-2.8,5.4
		c0,1.9,0.8,3.4,2.5,4.5c1.7,1,4.5,2,8.4,2.9c4.2,0.9,7.6,2,10.3,3.2c2.6,1.2,4.6,2.6,6,4.4c1.4,1.8,2.1,4.1,2.1,6.8
		c0,3-0.8,5.6-2.4,7.8c-1.6,2.2-3.9,4-6.9,5.2c-3,1.2-6.5,1.8-10.6,1.8C430.6,150.7,427,150.2,423.6,149.1z"/>
	<path class="st5" d="M473.5,150.1v-42.5h-16.3V100h41.8v7.5h-16.3v42.5H473.5z"/>
	<path class="st5" d="M539.8,100h8.9v50.1h-8.9v-21.7h-25.6v21.7h-9V100h9v20.9h25.6V100z"/>
	<path class="st5" d="M569.2,147.6c-3.6-2.1-6.3-5.1-8.3-8.9c-1.9-3.9-2.9-8.4-2.9-13.6s1-9.7,2.9-13.6c1.9-3.9,4.7-6.8,8.3-8.9
		c3.6-2.1,7.8-3.1,12.7-3.1c4.9,0,9.1,1,12.7,3.1c3.6,2.1,6.3,5.1,8.2,8.9c1.9,3.9,2.9,8.4,2.9,13.6s-1,9.8-2.9,13.6
		c-1.9,3.9-4.7,6.9-8.3,8.9c-3.6,2.1-7.8,3.1-12.6,3.1C577,150.7,572.8,149.7,569.2,147.6z M592.6,138.6c2.6-3.2,3.9-7.7,3.9-13.6
		s-1.3-10.4-3.9-13.6c-2.6-3.1-6.2-4.7-10.8-4.7c-4.6,0-8.2,1.6-10.8,4.7c-2.6,3.1-3.9,7.7-3.9,13.6s1.3,10.5,3.9,13.6
		c2.6,3.2,6.2,4.8,10.8,4.8C586.5,143.4,590,141.8,592.6,138.6z"/>
	<path class="st5" d="M621.1,149.1c-3.4-1-6.2-2.5-8.5-4.4l3.1-6.7c2.4,1.8,5,3.2,7.6,4c2.7,0.9,5.6,1.3,8.7,1.3
		c3.5,0,6.1-0.6,8-1.8c1.9-1.2,2.8-2.9,2.8-5.1c0-1.9-0.9-3.3-2.6-4.3c-1.7-1-4.6-1.9-8.6-2.8c-4.2-0.9-7.5-1.9-10.2-3.1
		c-2.6-1.2-4.6-2.7-5.9-4.5c-1.3-1.8-2-4.2-2-7c0-2.9,0.8-5.6,2.4-7.9c1.6-2.3,3.9-4.1,6.8-5.4c2.9-1.3,6.3-2,10.2-2
		c3.5,0,6.8,0.5,10,1.6c3.2,1.1,5.8,2.5,7.8,4.4l-3.1,6.7c-4.4-3.5-9.4-5.3-14.8-5.3c-3.2,0-5.8,0.7-7.6,2c-1.9,1.3-2.8,3.1-2.8,5.4
		c0,1.9,0.8,3.4,2.5,4.5c1.7,1,4.5,2,8.4,2.9c4.2,0.9,7.6,2,10.3,3.2c2.6,1.2,4.6,2.6,6,4.4c1.4,1.8,2.1,4.1,2.1,6.8
		c0,3-0.8,5.6-2.4,7.8c-1.6,2.2-3.9,4-6.9,5.2c-3,1.2-6.5,1.8-10.6,1.8C628,150.7,624.4,150.2,621.1,149.1z"/>
	<path class="st5" d="M670.9,150.1v-42.5h-16.3V100h41.8v7.5h-16.3v42.5H670.9z"/>
	<path class="st0" d="M696.5,140.3h9.9v9.8h-9.9V140.3z"/>
	<path class="st0" d="M723.1,147.5c-3.7-2.1-6.5-5.1-8.4-9c-2-3.9-2.9-8.4-2.9-13.6s1-9.7,2.9-13.5c2-3.9,4.8-6.8,8.4-8.9
		c3.7-2.1,8-3.2,12.9-3.2c3.4,0,6.5,0.5,9.5,1.6c3,1,5.5,2.5,7.5,4.4L750,112c-2.3-1.8-4.5-3.1-6.7-3.9c-2.2-0.8-4.6-1.2-7.1-1.2
		c-4.8,0-8.6,1.6-11.2,4.7s-3.9,7.6-3.9,13.5c0,5.9,1.3,10.4,3.9,13.6s6.4,4.7,11.2,4.7c2.5,0,4.9-0.4,7.1-1.2
		c2.2-0.8,4.5-2.1,6.7-3.9l3.1,6.7c-2,1.9-4.5,3.4-7.5,4.4c-3,1-6.2,1.6-9.5,1.6C731.1,150.7,726.8,149.6,723.1,147.5z"/>
	<path class="st0" d="M770.1,147.6c-3.6-2.1-6.3-5.1-8.3-8.9c-1.9-3.9-2.9-8.4-2.9-13.6s1-9.7,2.9-13.6c1.9-3.9,4.7-6.8,8.3-8.9
		c3.6-2.1,7.8-3.1,12.7-3.1c4.9,0,9.1,1,12.7,3.1c3.6,2.1,6.3,5.1,8.2,8.9c1.9,3.9,2.9,8.4,2.9,13.6s-1,9.8-2.9,13.6
		c-1.9,3.9-4.7,6.9-8.3,8.9c-3.6,2.1-7.8,3.1-12.6,3.1C777.9,150.7,773.7,149.7,770.1,147.6z M793.6,138.6c2.6-3.2,3.9-7.7,3.9-13.6
		s-1.3-10.4-3.9-13.6c-2.6-3.1-6.2-4.7-10.8-4.7c-4.6,0-8.2,1.6-10.8,4.7c-2.6,3.1-3.9,7.7-3.9,13.6s1.3,10.5,3.9,13.6
		c2.6,3.2,6.2,4.8,10.8,4.8C787.4,143.4,791,141.8,793.6,138.6z"/>
	<path class="st0" d="M857.5,100h7.2v50.1h-8.1V117l-13.2,25h-6.1L824,117.3l0.1,32.7H816V100h7.2l17.2,32.7L857.5,100z"/>
</g>
</svg>
