<?xml version="1.0" encoding="utf-8"?>
<!-- Generator: Adobe Illustrator 20.1.0, SVG Export Plug-In . SVG Version: 6.00 Build 0)  -->
<svg version="1.1" id="Layer_1" xmlns="http://www.w3.org/2000/svg" xmlns:xlink="http://www.w3.org/1999/xlink" x="0px" y="0px"
	 viewBox="0 0 512 512" style="enable-background:new 0 0 512 512;" xml:space="preserve">
<style type="text/css">
	.st0{fill:#FFFFFF;}
</style>
<g id="Symbols">
	
		<image style="overflow:visible;opacity:0.15;" width="471" height="369" xlink:href="7225672.png"  transform="matrix(1 0 0 1 30.1 81.4)">
	</image>
	<g>
		<g>
			<g id="Logo-_x28_Colour_x29__9_">
				<g id="Logo_9_">
					<path class="st0" d="M402.9,188.6L402.9,188.6c2.9-0.2,5.2-2.6,5.2-5.5c0-2.1-1.2-4-2.9-4.9l-1.4-0.9l-59-36.8l0,0
						c-0.9-0.6-1.9-0.9-3-0.9c-3,0-5.5,2.4-5.5,5.5c0,2.1,1.1,3.9,2.8,4.8l2.9,1.8l43.6,27.2c-6.7,1.1-13,2.7-18.9,5.1l-16-10
						c-0.9-0.6-2-1-3.1-1c-3,0-5.5,2.5-5.5,5.5c0,2,1.1,3.7,2.6,4.7l0,0l0.1,0.1l10.8,6.7c9.2,5.7,9.1,6.4,18.6,3.2
						C382.8,190.2,392.3,189,402.9,188.6L402.9,188.6z M324.4,247.1L324.4,247.1l-40.1-25c-0.9-0.7-2-1-3.2-1c-3,0-5.5,2.4-5.5,5.5
						c0,1.9,1,3.6,2.4,4.6l0,0l0.1,0.1l0.1,0.1l26.9,16.8l7.4,4.6l5.6,3.5c0.9,0.7,2,1.1,3.2,1.1c3,0,5.5-2.5,5.5-5.5
						C327,249.8,326,248.1,324.4,247.1L324.4,247.1z M135.5,346.6c1.4,0,2.6,0.5,3.6,1.4c19.5,14.2,42.8,21.8,67.1,21.9
						c1.2,0,2.4,0,3.5,0l4-0.1l-79-49.3v0c-1.5-1-2.5-2.7-2.5-4.6c0-3,2.5-5.5,5.5-5.5c1.3,0,2.4,0.4,3.4,1.2l88,54.9
						c9.7,5.7,11.8,9.1-1,12.2l-0.6,0.1c-7.1,1.2-14.2,1.8-21.4,1.8c-26.7-0.1-52.4-8.5-73.7-24.3c-0.1-0.1-0.1-0.1-0.1-0.1
						c-1.2-1-2-2.5-2-4.2C130.2,348.9,132.6,346.5,135.5,346.6L135.5,346.6z M121.7,299.3c1.7,0.9,2.9,2.8,2.9,4.8
						c0,3-2.5,5.5-5.5,5.5c-1.1,0-2-0.3-2.9-0.8l-0.1-0.1l-27.9-17.4c-1.8-0.9-3-2.8-3-4.9c0-3,2.5-5.5,5.5-5.5
						c1.1,0,2.1,0.3,2.9,0.9l0,0L121.7,299.3z M156.7,291.4l-67-41.9c-0.9-0.7-2-1-3.2-1c-3,0-5.5,2.4-5.5,5.5c0,2,1.1,3.7,2.6,4.7
						l0,0l67.4,42c0.9,0.6,2,1,3.2,1c3,0,5.5-2.5,5.5-5.5C159.6,294.2,158.4,292.3,156.7,291.4L156.7,291.4z M217.9,150.8
						c1.5,1,2.5,2.7,2.5,4.6c0,3-2.5,5.5-5.5,5.5c-1.1,0-2.2-0.4-3.1-0.9l-0.1-0.1l-29-18.1l0,0c-1.6-1-2.6-2.7-2.6-4.6
						c0-3,2.5-5.5,5.5-5.5c1.2,0,2.4,0.4,3.3,1.1l28.7,17.9l0.1,0.1l0.1,0.1L217.9,150.8z M142.6,163.4c1.6,0.9,2.8,2.7,2.8,4.8
						c0,3-2.5,5.5-5.5,5.5c-1.1,0-2-0.3-2.8-0.8h0l-0.1-0.1l-0.1-0.1l-9-5.6l-0.1-0.1l-0.1-0.1l0,0c-1.5-1-2.5-2.7-2.5-4.6
						c0-3,2.5-5.5,5.5-5.5c1.2,0,2.2,0.4,3.1,1l8.9,5.5L142.6,163.4z M112.9,204.5l-11.1-6.9l-0.1-0.1l0,0c-0.8-0.5-1.8-0.8-2.9-0.8
						c-3,0-5.5,2.4-5.5,5.5c0,2.1,1.2,3.9,2.9,4.8l11,6.9l0.1,0c0.9,0.6,1.9,0.9,3,0.9c3,0,5.5-2.4,5.5-5.5
						C115.8,207.2,114.6,205.4,112.9,204.5L112.9,204.5z M128.8,215.4c1.2,0,2.2,0.4,3.1,1l10.2,6.3l0.6-1.1c1.8-3.4,4-6.7,6.3-9.8
						l0.8-1.1l-40.2-25.1c-1.7-0.9-2.8-2.8-2.8-4.8c0-3,2.5-5.5,5.5-5.5c1.2,0,2.3,0.4,3.2,1.1l43,26.8c6.1,3.8,6.3,6,1.1,11.8
						l-1,1.2c-2.8,3.4-5.3,7.1-7.3,11.1l-0.3,0.5c-3.9,7.9-5.7,9.8-13.9,4.9l-11.1-6.9l-0.3-0.2l0,0l0,0c-1.5-1-2.4-2.6-2.4-4.5
						C123.4,217.8,125.8,215.4,128.8,215.4L128.8,215.4z M112.8,234.2c1.6,0.9,2.8,2.7,2.8,4.8c0,3-2.5,5.5-5.5,5.5
						c-1.2,0-2.2-0.4-3.1-1l0,0l-19.7-12.3c-1.7-0.9-2.8-2.7-2.8-4.8c0-3,2.5-5.5,5.5-5.5c1.1,0,2.1,0.3,2.9,0.8l0,0l0.1,0.1
						L112.8,234.2L112.8,234.2L112.8,234.2z M185.4,309.3c1.5,1,2.4,2.6,2.4,4.5c0,3-2.5,5.5-5.5,5.5c-1.2,0-2.3-0.4-3.2-1.1
						l-9.1-5.7l-0.1-0.1l-0.1-0.1l0,0c-1.5-1-2.4-2.6-2.4-4.5c0-3,2.5-5.5,5.5-5.5c1,0,1.9,0.3,2.7,0.7h0l0.4,0.2L185.4,309.3
						L185.4,309.3z M142.1,252.5c1.5,1,2.5,2.7,2.5,4.6c0,3-2.5,5.5-5.5,5.5c-1.2,0-2.3-0.4-3.2-1.1l-10.1-6.3l-0.1-0.1l-0.1-0.1
						l0,0c-1.5-1-2.4-2.6-2.4-4.6c0-3,2.5-5.5,5.5-5.5c1.2,0,2.3,0.4,3.2,1L142.1,252.5L142.1,252.5z M232.8,189.9l-75.7-47.2l0,0
						c-0.9-0.6-1.9-0.9-3-0.9c-3,0-5.5,2.4-5.5,5.5c0,2.1,1.1,3.9,2.8,4.8l50.4,31.4l-3.5,0.4c-5.5,0.6-11,1.8-16.2,3.7l-0.5,0.2
						l-19.9-12.4c-0.9-0.6-2-1-3.1-1c-3,0-5.5,2.4-5.5,5.5c0,2,1.1,3.7,2.6,4.7l0,0l0.1,0.1l17,10.6c6.2,3.7,5.6,4.3,16.1,1l3-0.8
						l2.8-0.6l1.6-0.3c3.3-0.5,6.6-0.8,9.9-0.8c4.9,0,9.9,0.6,14.7,1.8c2.6,0.7,5.2,1.5,7.7,2.5h0l0,0c0.6,0.3,1.2,0.4,1.9,0.4
						c2.5,0,4.5-2,4.5-4.5C235.2,192.2,234.2,190.7,232.8,189.9L232.8,189.9z M233.7,131.8c0.9,0,1.7,0.2,2.4,0.6l0.1,0l20.3,12.7
						c1.8,1.2,3.3,1.8,4,4.1c0.1,0.5,0.2,1,0.2,1.5c0,3-2.5,5.5-5.5,5.5c-1,0-1.9-0.3-2.7-0.7l0,0c-0.1-0.1-0.3-0.2-0.4-0.3
						l-17.3-10.8l-3.6-2.2c-1.8-0.9-3-2.8-2.9-4.9C228.2,134.3,230.6,131.8,233.7,131.8L233.7,131.8z M238.6,176.6L238.6,176.6
						L238.6,176.6l-7.9-4.9l0,0l-0.1-0.1l-0.1,0c-1.5-1-2.5-2.7-2.5-4.6c0-3,2.5-5.5,5.5-5.5c1.2,0,2.2,0.4,3.1,1l7.5,4.8
						c1.6,0.9,2.7,2.7,2.7,4.7c0,3-2.4,5.4-5.4,5.4C240.4,177.4,239.4,177.1,238.6,176.6L238.6,176.6z M123.2,333.9L123.2,333.9
						L123.2,333.9L123.2,333.9l-0.1-0.1l0,0l0,0c-0.7-0.7-1.3-1.5-2-2.2l0,0l0,0c-1-1.2-2.5-2-4.1-2c-2.9,0-5.3,2.4-5.3,5.3
						c0,1.3,0.5,2.5,1.2,3.4v0l0.1,0.1l0,0l0,0l0,0l0,0l0,0l0,0l0,0c0.8,0.8,1.5,1.7,2.3,2.5l0,0l0,0l0,0l0.2,0.2h0l0,0l0,0
						c0.9,0.9,2.2,1.5,3.7,1.5c2.9,0,5.3-2.4,5.3-5.3C124.6,336.2,124.1,334.9,123.2,333.9L123.2,333.9z M198.8,318.6
						c-3,0-5.5,2.4-5.5,5.5c0,2,1.1,3.8,2.8,4.8l54.1,33.7c9.6,6.1,14.2,7.9,23.6,1.8l0,0l1.7-1.1c3.6-2.2,7.1-4.7,10.5-7.3l0.7-0.5
						l0.1,0c8.7-6.9,5.9-9.3-1.4-13.8L237.4,312c-0.9-0.6-2-1-3.1-1c-3,0-5.5,2.4-5.5,5.5c0,2.1,1.1,3.8,2.8,4.8l45.3,28.3l-1.5,1.1
						c-3.6,2.6-7.4,4.9-11.3,7.1l-0.6,0.3l-61.7-38.5l-0.1-0.1l0,0C200.8,318.9,199.9,318.6,198.8,318.6L198.8,318.6z M318.2,302.8
						L318.2,302.8l-0.1-0.1l-0.1-0.1l-0.1-0.1L275.2,276c-8.1-5-9.3-2.6-12.4,4.1c-1.9,4.3-4.2,8.4-7.1,12.2
						c-6.5,8.7-7.8,9.6,2.9,16l7.8,4.9l4,2.5l0.1,0.1l0,0c0.8,0.5,1.8,0.8,2.9,0.9c3,0,5.5-2.4,5.5-5.5c0-2-1.1-3.8-2.8-4.8
						l-0.1-0.1l-12.3-7.7l0.8-1.1c2.3-3.2,4.3-6.5,6.1-10l0.6-1.2l35.8,22.3l5,3.1l0.1,0.1c0.9,0.6,1.9,0.9,3.1,0.9
						c3,0,5.5-2.5,5.5-5.5C320.7,305.5,319.7,303.8,318.2,302.8L318.2,302.8z M300.2,261.8c0.1,0.1,0.3,0.1,0.3,0.2
						c1.5,1,2.4,2.6,2.4,4.5c0,3-2.5,5.5-5.5,5.5c-1.2,0-2.2-0.4-3.1-1l-21.7-13.6l0,0c-1.6-1-2.6-2.7-2.6-4.7c0-3,2.5-5.5,5.5-5.5
						c1.2,0,2.3,0.4,3.2,1L300.2,261.8z M393.3,230.5L393.3,230.5l-8.3-5.2c-0.9-0.7-2-1-3.2-1c-3,0-5.5,2.4-5.5,5.5
						c0,1.9,0.9,3.6,2.4,4.6l0,0l0.1,0.1l0.1,0.1l8.1,5.1c0.9,0.7,2,1.1,3.2,1.1c3,0,5.5-2.4,5.5-5.5
						C395.8,233.1,394.8,231.4,393.3,230.5L393.3,230.5z M327.7,278.9c1.5,1,2.5,2.7,2.5,4.6c0,3-2.5,5.5-5.5,5.5
						c-1.2,0-2.3-0.4-3.2-1.1l-8.1-5.1l-0.1-0.1l-0.1-0.1c-1.5-1-2.4-2.7-2.4-4.6c0-3,2.5-5.5,5.5-5.5c1.2,0,2.3,0.4,3.2,1
						L327.7,278.9L327.7,278.9z M317.8,213.2c1.7,0.9,2.8,2.8,2.8,4.8c0,3-2.5,5.5-5.5,5.5c-1.1,0-2.1-0.3-3-0.9l-0.1,0l-13.6-8.5
						l-8.4-5.2c-6.2-3.7-7.9-6.3-3.5-15.1l0,0c2.1-4.3,4.5-8.4,7.3-12.4c5.1-7.7,8.5-7.6,14.9-3.6l17.6,11l22.6,14.1
						c1.7,0.9,2.9,2.3,2.9,4.9s-3.4,5.5-5.5,5.5c-2.1,0-2.2-0.4-3.2-1l-22.5-14l-17.3-10.8l0,0c-2.8,3.9-5.2,8.1-7.2,12.4
						L317.8,213.2z M331.6,162.2c1.6,0.9,2.8,2.7,2.8,4.8c0,3-2.5,5.5-5.5,5.5c-1.1,0-2-0.3-2.8-0.8l0,0l-0.1-0.1l-0.1-0.1
						l-10.6-6.8l-0.1-0.1l-0.1-0.1l0,0c-1.5-1-2.5-2.7-2.5-4.6c0-3,2.5-5.5,5.5-5.5c1.2,0,2.2,0.4,3.1,0.9L331.6,162.2L331.6,162.2z
						 M390.8,139.6c1.5,1,2.5,2.7,2.5,4.6c0,3-2.5,5.5-5.5,5.5c-1.1,0-2.2-0.4-3.1-0.9l-0.1-0.1l-6.9-4.3l-3.4-2.1l0,0
						c-1.6-1-2.6-2.7-2.6-4.6c0-3,2.5-5.5,5.5-5.5c1.2,0,2.4,0.4,3.3,1.1l10,6.2l0.1,0.1l0.1,0.1L390.8,139.6z M428.3,163
						c1.5,1,2.5,2.7,2.5,4.6c0,3-2.5,5.5-5.5,5.5c-1.1,0-2.2-0.4-3-0.9l-0.1-0.1l-12.4-7.7l-5.8-3.6l0,0c-1.6-1-2.6-2.7-2.6-4.6
						c0-3,2.5-5.5,5.5-5.5c1.2,0,2.4,0.4,3.3,1.1l17.8,11.1l0.1,0.1L428.3,163L428.3,163z M342.3,228.5L342.3,228.5l-4.2-2.6
						c-0.9-0.7-2-1-3.2-1c-3,0-5.5,2.4-5.5,5.5c0,1.9,1,3.6,2.4,4.6l0,0l0.1,0.1l0.1,0.1l4.1,2.5c0.9,0.7,2,1,3.2,1.1
						c3,0,5.5-2.4,5.5-5.5C344.9,231.2,343.8,229.5,342.3,228.5L342.3,228.5z M305.1,324.4c1.5,1,2.5,2.7,2.5,4.6
						c0,3-2.5,5.5-5.5,5.5c-1.2,0-2.3-0.4-3.2-1.1l-8.1-5.1l-0.1-0.1l-0.1-0.1c-1.5-1-2.4-2.6-2.4-4.6c0-3,2.5-5.5,5.5-5.5
						c1.2,0,2.3,0.4,3.2,1L305.1,324.4L305.1,324.4z M355.7,237.8c1.2,0,2.2,0.4,3.1,1l24,15c7,5.1,10.8,5.9,7.9,13.3l-0.1,0.1
						l-0.1,0.2l0,0.1l0,0.1l-0.1,0.1l-0.1,0.1l-0.1,0.1v0l-0.1,0.1l-0.1,0.1l-0.1,0.1l-0.1,0.1l0,0l-0.1,0.1l-0.1,0.1l-0.1,0.1
						l0,0.1l0,0.1l-0.1,0.3l-0.1,0.1l0,0l-0.1,0.1l-0.1,0.1l-0.1,0.1l0,0.1l0,0l-0.1,0.1l-0.1,0.1c-2.4,4.4-5.8,7.9-10.2,10.5l0,0
						l-0.2,0.1l0,0l-0.1,0.1l-0.4,0.2l0,0l-0.4,0.2l0,0l-0.1,0l-0.1,0.1l-0.2,0.1l-0.2,0.1l0,0l-0.1,0.1l-0.4,0.2l0,0l0,0h0
						l-0.5,0.2h0l-0.1,0.1l-0.4,0.1l0,0l-0.1,0.1l-0.2,0.1l-0.2,0.1h0l-0.2,0.1l-0.2,0.1l-0.2,0.1h0l-0.2,0l-0.2,0.1
						c-5.2,1.7-7.5,2.1-15.4-2.3c-16.1-10-1.8-1.1-18-11.2c-1.7-0.9-2.8-2.8-2.8-4.8c0-3,2.5-5.5,5.5-5.5c1.1,0,2.1,0.3,2.9,0.8l0,0
						l0.1,0.1c17,10.6,3.7,2.3,20.7,12.9c3.8-0.7,7.4-2.1,10-5c1-1.1,1.9-2.4,2.7-3.9l-18.7-11.7l-7.8-4.9c-1.7-0.9-2.8-2.7-2.8-4.8
						C350.2,240.2,352.6,237.8,355.7,237.8L355.7,237.8z M422.2,144.4l-3.5-2.2l0,0l-0.1-0.1l-0.1,0c-1.5-1-2.5-2.6-2.5-4.6
						c0-3,2.5-5.5,5.5-5.5c1.2,0,2.2,0.4,3.1,1l3.4,2.1c0.1,0.1,0.3,0.2,0.4,0.3v0c1.5,1,2.4,2.6,2.4,4.5c0,3-2.5,5.4-5.5,5.4
						C424.3,145.5,423.1,145.1,422.2,144.4L422.2,144.4z"/>
				</g>
			</g>
		</g>
	</g>
</g>
</svg>
