<svg xmlns="http://www.w3.org/2000/svg" xmlns:xlink="http://www.w3.org/1999/xlink">

    <symbol id="menu-open" role="img" viewBox="0 0 290 290">
        <rect y="220" width="70" height="70"/>
        <rect y="110" width="70" height="70"/>
        <rect width="70" height="70"/>
        <rect x="110" y="220" width="70" height="70"/>
        <rect x="110" y="110" width="70" height="70"/>
        <rect x="110" width="70" height="70"/>
        <rect x="220" y="220" width="70" height="70"/>
        <rect x="220" y="110" width="70" height="70"/>
        <rect x="220" width="70" height="70"/>
    </symbol>

    <symbol id="menu-close" role="img" viewBox="0 0 386.667 386.667">
        <path d="m386.667 45.564-45.564-45.564-147.77 147.769-147.769-147.769-45.564 45.564 147.769 147.769-147.769 147.77 45.564 45.564 147.769-147.769 147.769 147.769 45.564-45.564-147.768-147.77z"/>
    </symbol>

    <symbol id="button-arrow" role="img" viewBox="0 0 98.1 98.1">
        <polygon points="31.5,98 80.5,49 31.5,0 17.5,13.9 52.6,49 17.5,84.1 "/>
    </symbol>

    <symbol id="button-plus" role="img" viewBox="0 0 448 448">
        <path d="m272 184c-4.417969 0-8-3.582031-8-8v-176h-80v176c0 4.417969-3.582031 8-8 8h-176v80h176c4.417969 0 8 3.582031 8 8v176h80v-176c0-4.417969 3.582031-8 8-8h176v-80zm0 0"/>
    </symbol>

    <symbol id="form-01" role="img" viewBox="0 0 512 512">
        <path d="M437.9,328.6c-42.3-36.3-103.5-54.7-181.9-54.7c-78.4,0-139.6,18.4-181.9,54.7C31.5,365.2,9.9,418.3,9.9,486.3
            c0,14.4,11.7,26.2,26.2,26.2h439.7c14.4,0,26.2-11.7,26.2-26.2C502.1,418.3,480.5,365.2,437.9,328.6z M256,326.3
            c117.6,0,182.2,45,192.3,133.9H63.7C73.8,371.3,138.4,326.3,256,326.3z"/>
        <path d="M256,1c-62.6,0-109.8,48-109.8,111.8C146.2,178,195.5,231,256,231s109.8-53,109.8-118.2C365.8,49,318.6,1,256,1z
             M315.1,112.8c0,37.3-26.5,67.6-59.1,67.6c-32.6,0-59.1-30.3-59.1-67.6c0-35.4,24.9-61.1,59.1-61.1
            C289.7,51.7,315.1,77.9,315.1,112.8z"/>
    </symbol>

    <symbol id="form-02" role="img" viewBox="0 0 330.001 330.001">
        <path id="XMLID_17_" d="M165.001,0c-90.981,0-165,74.018-165,164.997c0,90.983,74.019,165.004,165,165.004c8.284,0,15-6.716,15-15
        c0-8.284-6.716-15-15-15c-74.44,0-135-60.563-135-135.004C30,90.56,90.561,30,165.001,30s135,60.56,135,134.997v37.507
        c0,12.407-10.096,22.5-22.504,22.5c-12.406,0-22.499-10.093-22.499-22.5v-37.507c0-49.626-40.372-90-89.997-90
        c-49.626,0-89.999,40.374-89.999,90c0,49.63,40.373,90.007,89.999,90.007c25.927,0,49.323-11.026,65.762-28.63
        c8.706,16.978,26.379,28.63,46.734,28.63c28.951,0,52.504-23.551,52.504-52.5v-37.507C330,74.018,255.982,0,165.001,0z
         M165.001,225.004c-33.084,0-59.999-26.919-59.999-60.007c0-33.084,26.915-60,59.999-60c33.083,0,59.997,26.916,59.997,60
        C224.998,198.085,198.083,225.004,165.001,225.004z"/>
    </symbol>

    <symbol id="form-03" role="img" viewBox="0 0 417.398 417.398">
        <path d="M395.552,284.869l-41.993-34.404c-27.358-22.413-69.826-20.292-94.784,4.665l-1.667,1.667
            c-4.185,4.185-11.002,4.152-15.128,0.025l-81.135-81.135c-4.096-4.096-4.177-10.684-0.23-14.867
            c0.072-0.076,0.145-0.151,0.219-0.226l-0.223,0.223l0,0c0.074-0.074,0.148-0.149,0.222-0.223
            c24.82-25.058,27.195-67.722,5.453-95.21l-34.059-43.059C110.335-5.353,72.287-7.491,47.332,17.464l-6.256,6.256
            c-44.325,44.325-54.77,124.215-21.522,177.332c0,0,19.572,45.39,85.622,111.44s111.44,85.622,111.44,85.622
            c53.613,32.438,132.98,22.83,177.295-21.485l5.958-5.958C424.843,345.697,422.892,307.267,395.552,284.869z M369.698,340.501
            l-5.958,5.958c-30.424,30.424-88.22,37.426-125.038,15.15l-2.505-1.516l-2.688-1.159c-3.3-1.423-11.572-5.908-24.078-14.296
            c-22.211-14.898-47.153-35.382-74.086-62.315s-47.418-51.875-62.315-74.086c-8.388-12.506-12.874-20.778-14.296-24.078
            l-1.288-2.987l-1.726-2.757C33.335,142.653,40.552,84.585,71.246,53.891l6.256-6.256c6.937-6.937,15.231-6.465,21.263,1.161
            l34.059,43.059c8.398,10.617,7.311,29.101-2.381,38.794c-20.618,20.859-20.516,54.462,0.233,75.21l81.135,81.135
            c20.799,20.799,54.632,20.811,75.469-0.025l1.667-1.667c9.46-9.46,27.192-10.336,37.574-1.83l41.993,34.404
            C376.354,324.298,376.813,333.387,369.698,340.501z"/>
    </symbol>

    <symbol id="form-04" role="img" viewBox="0 0 512 512">
        <path d="M510.2,192.9c-3.2-9.2-11.1-15.8-20.7-17.3l-145.2-22.2l-65.2-139c-4.3-9-13.6-14.9-23.6-14.9c-10,0-19.3,5.9-23.5,14.9
            l-65.2,139L21.7,175.6C12,177,4,183.6,0.9,193c-3.1,9.2-0.8,19.2,6,26.3l105.9,108.5L87.7,481.4c-1.6,9.7,2.6,19.7,10.7,25.4
            c8.2,5.6,19,6.2,27.5,1.4l129.5-71.6L385,508.2l0.1,0.1c4.6,2.4,8.8,3.2,12.6,3.2c6.5,0,11.7-2.6,14.8-4.6l0.1-0.1
            c8.1-5.7,12.3-15.7,10.7-25.4l-25.1-153.6l105.9-108.5C511,212.3,513.3,202.2,510.2,192.9z M166.1,323.2c1.3-8.1-1.3-16.4-7-22.2
            l-79.8-81.8l109-16.7c8.5-1.3,15.9-6.7,19.6-14.7l47.5-101.2l47.3,101.3c3.7,7.9,11,13.4,19.6,14.7l109.1,16.6L351.7,301
            c-5.8,5.9-8.3,14-7,22.2l18.6,113.7L268,384.2c-7.9-4.3-17.3-4.3-25.2,0l-95.2,52.7L166.1,323.2z"/>
    </symbol>

    <symbol id="form-05" role="img" viewBox="0 0 426.667 426.667">
        <path d="M393.196,243.277l-10.828-6.251c1.075-7.743,1.631-15.653,1.631-23.692s-0.556-15.949-1.631-23.692l10.828-6.251
            c20.334-11.74,27.348-37.824,15.578-58.21l-21.378-37.028c-11.73-20.316-37.831-27.374-58.21-15.608l-10.83,6.253
            c-12.411-9.702-26.2-17.725-41.023-23.725V42.576C277.333,19.107,258.251,0,234.711,0h-42.756
            c-23.459,0-42.622,19.062-42.622,42.576v12.497c-14.823,6-28.612,14.023-41.023,23.725L97.48,72.545
            c-20.339-11.743-46.44-4.777-58.21,15.608L17.892,125.18c-11.73,20.316-4.795,46.447,15.578,58.21l10.828,6.251
            c-1.075,7.743-1.631,15.653-1.631,23.692s0.556,15.949,1.631,23.692l-10.828,6.251c-20.334,11.74-27.348,37.824-15.578,58.21
            l21.378,37.027C51,358.83,77.101,365.888,97.48,354.122l10.831-6.253c12.411,9.702,26.2,17.725,41.023,23.725v12.497
            c0,23.469,19.083,42.576,42.622,42.576h42.756c23.459,0,42.622-19.062,42.622-42.576v-12.497
            c14.823-6,28.612-14.023,41.023-23.725l10.83,6.253c20.339,11.743,46.44,4.777,58.21-15.608l21.378-37.027
            C420.504,281.17,413.57,255.039,393.196,243.277z M340.108,195.511c0.814,5.861,1.226,11.809,1.226,17.823
            s-0.412,11.962-1.226,17.823l-3.952,28.455l35.646,20.58l-21.333,36.95l-35.71-20.617l-22.68,17.73
            c-9.381,7.333-19.729,13.327-30.754,17.79l-26.658,10.791V384H192v-41.164l-26.658-10.791
            c-11.025-4.463-21.374-10.457-30.754-17.79l-22.68-17.73l-35.71,20.617l-21.333-36.95l35.646-20.58l-3.952-28.455
            c-0.814-5.861-1.226-11.809-1.226-17.823s0.412-11.962,1.226-17.823l3.952-28.455l-35.646-20.58l21.333-36.95l35.71,20.617
            l22.68-17.73c9.381-7.333,19.729-13.327,30.754-17.79L192,83.831V42.667h42.667v41.164l26.658,10.791
            c11.025,4.463,21.374,10.457,30.754,17.79l22.68,17.73l35.71-20.617l21.333,36.95l-35.646,20.58L340.108,195.511z"/>
        <path d="M213.333,128C166.205,128,128,166.205,128,213.333s38.205,85.333,85.333,85.333s85.333-38.205,85.333-85.333
            S260.462,128,213.333,128z M213.333,256c-23.564,0-42.667-19.103-42.667-42.667s19.103-42.667,42.667-42.667
            S256,189.769,256,213.333S236.897,256,213.333,256z"/>
    </symbol>

    <symbol id="form-06" role="img" viewBox="0 0 384.5 384.5">
        <path d="M0.3,149.3c0,59.6,34.9,111,85.3,135v88.5c0,11.7,7.4,15.3,16.5,7.9l101.4-82H235c82.5,0,149.3-66.8,149.3-149.3
            C384.3,66.9,317.4,0,235,0l-85.4,0C67.1,0,0.3,66.8,0.3,149.3z M42.9,149.3c0-58.9,47.7-106.7,106.6-106.7H235
            c58.9,0,106.6,47.8,106.6,106.7c0,58.9-47.7,106.7-106.6,106.7h-46.5l-60.2,48.7v-47.3l-24.4-11.6C67,228.2,42.9,190.9,42.9,149.3
            z"/>
        <rect x="256.3" y="128" width="42.7" height="42.7"/>
        <rect x="170.9" y="128" width="42.7" height="42.7"/>
        <rect x="85.6" y="128" width="42.7" height="42.7"/>
    </symbol>

    <symbol id="form-07" role="img" viewBox="0 0 390 390">
        <path d="M195,0C87.305,0,0,87.304,0,195s87.305,195,195,195s195-87.304,195-195S302.695,0,195,0z M119.524,45.678
            c-3.493,4.838-6.838,10.033-10.007,15.6c-4.841,8.503-9.16,17.656-12.945,27.33c-8.064-2.22-16.089-4.713-24.064-7.483
            C85.91,66.718,101.813,54.667,119.524,45.678z M52.298,107.694c11.438,4.293,22.976,8.056,34.591,11.293
            c-4.78,18.934-7.744,39.182-8.745,60.087h-49.72C30.888,153.108,39.305,128.852,52.298,107.694z M52.298,282.306
            c-12.994-21.159-21.411-45.414-23.874-71.38h49.72c1.002,20.905,3.965,41.153,8.745,60.087
            C75.274,274.25,63.736,278.013,52.298,282.306z M72.508,308.876c7.975-2.77,16-5.265,24.063-7.483
            c3.786,9.674,8.105,18.827,12.946,27.33c3.168,5.566,6.514,10.762,10.007,15.6C101.813,335.333,85.91,323.283,72.508,308.876z
             M179.074,354.07c-20.393-7.648-38.458-29.593-51.05-59.894c16.931-3.125,33.977-5.059,51.05-5.8V354.07z M179.074,256.454
            c-20.448,0.818-40.862,3.221-61.117,7.191c-4.16-16.355-6.908-34.13-7.915-52.72h69.032V256.454z M179.074,179.074h-69.032
            c1.007-18.59,3.755-36.365,7.915-52.72c20.254,3.971,40.669,6.373,61.117,7.191V179.074z M179.074,101.623
            c-17.073-0.741-34.118-2.675-51.05-5.8c12.592-30.301,30.657-52.245,51.05-59.894V101.623z M337.703,107.697
            c12.993,21.157,21.409,45.412,23.872,71.377h-49.72c-1.001-20.903-3.965-41.151-8.744-60.083
            C314.727,115.754,326.266,111.992,337.703,107.697z M317.495,81.128c-7.975,2.77-16,5.265-24.065,7.484
            c-3.786-9.676-8.105-18.831-12.947-27.335c-3.169-5.566-6.514-10.762-10.006-15.6C288.189,54.668,304.092,66.72,317.495,81.128z
             M210.926,35.93c20.393,7.648,38.459,29.595,51.051,59.898c-16.931,3.124-33.977,5.057-51.051,5.797V35.93z M210.926,133.547
            c20.45-0.817,40.865-3.219,61.118-7.188c4.16,16.354,6.907,34.128,7.914,52.716h-69.032V133.547z M210.926,210.926h69.032
            c-1.007,18.588-3.754,36.362-7.914,52.716c-20.253-3.97-40.668-6.371-61.118-7.189V210.926z M210.926,354.07v-65.694
            c17.075,0.741,34.121,2.673,51.051,5.798C249.385,324.475,231.319,346.422,210.926,354.07z M270.477,344.322
            c3.493-4.838,6.838-10.033,10.006-15.6c4.842-8.504,9.161-17.659,12.947-27.334c8.064,2.22,16.089,4.714,24.065,7.484
            C304.092,323.28,288.189,335.332,270.477,344.322z M337.703,282.304c-11.437-4.296-22.976-8.058-34.591-11.296
            c4.779-18.932,7.742-39.179,8.744-60.082h49.72C359.112,236.891,350.696,261.146,337.703,282.304z"/>
    </symbol>

    <symbol id="form-08" role="img" viewBox="0 0 390 390">
        <path d="M195,0C87.305,0,0,87.304,0,195s87.305,195,195,195s195-87.304,195-195S302.695,0,195,0z M119.524,45.678
            c-3.493,4.838-6.838,10.033-10.007,15.6c-4.841,8.503-9.16,17.656-12.945,27.33c-8.064-2.22-16.089-4.713-24.064-7.483
            C85.91,66.718,101.813,54.667,119.524,45.678z M52.298,107.694c11.438,4.293,22.976,8.056,34.591,11.293
            c-4.78,18.934-7.744,39.182-8.745,60.087h-49.72C30.888,153.108,39.305,128.852,52.298,107.694z M52.298,282.306
            c-12.994-21.159-21.411-45.414-23.874-71.38h49.72c1.002,20.905,3.965,41.153,8.745,60.087
            C75.274,274.25,63.736,278.013,52.298,282.306z M72.508,308.876c7.975-2.77,16-5.265,24.063-7.483
            c3.786,9.674,8.105,18.827,12.946,27.33c3.168,5.566,6.514,10.762,10.007,15.6C101.813,335.333,85.91,323.283,72.508,308.876z
             M179.074,354.07c-20.393-7.648-38.458-29.593-51.05-59.894c16.931-3.125,33.977-5.059,51.05-5.8V354.07z M179.074,256.454
            c-20.448,0.818-40.862,3.221-61.117,7.191c-4.16-16.355-6.908-34.13-7.915-52.72h69.032V256.454z M179.074,179.074h-69.032
            c1.007-18.59,3.755-36.365,7.915-52.72c20.254,3.971,40.669,6.373,61.117,7.191V179.074z M179.074,101.623
            c-17.073-0.741-34.118-2.675-51.05-5.8c12.592-30.301,30.657-52.245,51.05-59.894V101.623z M337.703,107.697
            c12.993,21.157,21.409,45.412,23.872,71.377h-49.72c-1.001-20.903-3.965-41.151-8.744-60.083
            C314.727,115.754,326.266,111.992,337.703,107.697z M317.495,81.128c-7.975,2.77-16,5.265-24.065,7.484
            c-3.786-9.676-8.105-18.831-12.947-27.335c-3.169-5.566-6.514-10.762-10.006-15.6C288.189,54.668,304.092,66.72,317.495,81.128z
             M210.926,35.93c20.393,7.648,38.459,29.595,51.051,59.898c-16.931,3.124-33.977,5.057-51.051,5.797V35.93z M210.926,133.547
            c20.45-0.817,40.865-3.219,61.118-7.188c4.16,16.354,6.907,34.128,7.914,52.716h-69.032V133.547z M210.926,210.926h69.032
            c-1.007,18.588-3.754,36.362-7.914,52.716c-20.253-3.97-40.668-6.371-61.118-7.189V210.926z M210.926,354.07v-65.694
            c17.075,0.741,34.121,2.673,51.051,5.798C249.385,324.475,231.319,346.422,210.926,354.07z M270.477,344.322
            c3.493-4.838,6.838-10.033,10.006-15.6c4.842-8.504,9.161-17.659,12.947-27.334c8.064,2.22,16.089,4.714,24.065,7.484
            C304.092,323.28,288.189,335.332,270.477,344.322z M337.703,282.304c-11.437-4.296-22.976-8.058-34.591-11.296
            c4.779-18.932,7.742-39.179,8.744-60.082h49.72C359.112,236.891,350.696,261.146,337.703,282.304z"/>
    </symbol>

</svg>