<?xml version="1.0" encoding="utf-8"?>
<!-- Generator: Adobe Illustrator 20.1.0, SVG Export Plug-In . SVG Version: 6.00 Build 0)  -->
<svg version="1.1" id="Layer_1" xmlns="http://www.w3.org/2000/svg" xmlns:xlink="http://www.w3.org/1999/xlink" x="0px" y="0px"
	 width="641" height="219" viewBox="0 0 641 219" style="enable-background:new 0 0 641 219;" xml:space="preserve">
<style type="text/css">
	.st0{fill:#0F488A;}
	.st1{fill:#009BDE;}
</style>
<g id="g46" transform="translate(-92.57 -10.77)">
	<path id="polygon4" class="st0" d="M104.6,12h-12v216.6h43.2l0.3-2.7v-6.3h-31.5L104.6,12z"/>
	<path id="polygon14" class="st0" d="M152.2,165.3l-6.3,59.9l6.5-59.9L152.2,165.3L152.2,165.3z"/>
	<path id="polygon22" class="st0" d="M135.1,225.9l-0.3,2.7h0.3V225.9z"/>
	<path class="st0" d="M233.8,12h-25.5v216.6h25.5c17.7,0,27-6.9,27-23.1V35.1C260.8,18.9,251.5,12,233.8,12z M248.8,206.4
		c0,1.2-0.1,2.2-0.3,3.2c-1.2,7-6.5,10-15.9,10h-12.3l0,0V21h12.3c10.8,0,16.2,3.9,16.2,13.2V206.4z"/>
	<path class="st0" d="M300.1,12h-25.5v216.6h25.5c17.7,0,27-6.9,27-23.1V35.1C327.1,18.9,317.8,12,300.1,12z M315.1,206.4
		c0,1.2-0.1,2.2-0.3,3.2c-1.2,7-6.5,10-15.9,10h-12.3l0,0V21h12.3c10.8,0,16.2,3.9,16.2,13.2L315.1,206.4L315.1,206.4z"/>
	<path id="polygon28" class="st0" d="M380.2,112.8h-27.3V21H382v-9h-41.1v216.6h43.2v-9h-31.2v-97.8h27.3L380.2,112.8L380.2,112.8z"
		/>
	<path class="st0" d="M442,96V32.1c0-13.5-10.2-20.1-24.6-20.1h-27v216.6h12V121.8h11.1c12,0,16.5,7.5,16.5,15.6v91.2h12v-91.2
		c0-13.2-7.8-18.6-18.6-19.5v-0.6C438.7,116.1,442,107.7,442,96z M420.9,111.9c-2,0.6-4.2,0.9-6.8,0.9h-11.7V21h12.9
		c9.6,0,14.7,4.2,14.7,13.5v63.9c0,3-0.6,5.5-1.6,7.6c-0.4,0.8-0.9,1.6-1.5,2.3C425.3,109.9,423.3,111.1,420.9,111.9z"/>
	<path id="path32" class="st0" d="M470.2,87c-3.3-7.2-4.8-13.5-4.8-20.7V32.7c0-7.2,4.5-12.9,12.9-12.9s12.9,3.6,12.9,12.3v37.5H502
		V30.9c0-14.1-8.4-20.1-24.6-20.1c-15.3,0-24.9,8.4-24.9,22.5v31.5c0,8.4,2.7,19.8,7.8,29.4l25.2,47.7c4.2,9.9,6.3,16.5,6.3,27.9
		V207c0,9.9-4.5,13.8-14.7,13.8c-11.1,0-13.8-6-13.8-13.2v-39.3h-10.8v38.4c0,14.7,6.9,23.1,25.5,23.1c18.9,0,25.8-8.4,25.8-22.2
		v-40.8c0-12-3.9-22.5-9-32.7L470.2,87z"/>
	<path id="polygon34" class="st0" d="M522.7,228.6h12V21H556v-9h-54.6v9h21.3V228.6z"/>
	<path class="st0" d="M584.2,10.8c-16.8,0-26.4,8.4-26.4,23.4v172.2c0,15,9.6,23.4,26.4,23.4c16.8,0,26.1-8.4,26.1-23.4V34.2
		C610.3,19.2,601,10.8,584.2,10.8z M598.3,206.1c0,9.6-5.4,14.7-14.1,14.7c-5.4,0-9.7-2-12.1-5.8c-1.5-2.3-2.3-5.3-2.3-8.9V34.5
		c0-9.6,5.7-14.7,14.4-14.7s14.1,5.1,14.1,14.7L598.3,206.1L598.3,206.1z"/>
	<path class="st0" d="M675.7,96V32.1c0-13.5-10.2-20.1-24.6-20.1h-27v216.6h12V121.8h11.1c12,0,16.5,7.5,16.5,15.6v91.2h12v-91.2
		c0-13.2-7.8-18.6-18.6-19.5v-0.6C672.4,116.1,675.7,107.7,675.7,96z M647.8,112.8h-11.7V21H649c9.6,0,14.7,4.2,14.7,13.5v63.9
		C663.7,108,658,112.8,647.8,112.8z"/>
	<path id="polygon40" class="st0" d="M729.7,121.8v-9h-27.3V21h29.1v-9h-41.1v216.6h43.2v-9h-31.2v-97.8H729.7z"/>
	<path class="st1" d="M188.8,228.6h12L175.9,12h-16.8l-24,213.9v2.7h10.5l0.4-3.4l5-47.9h32.3L188.8,228.6z M161.2,85.2
		c2.4-21.6,3.3-43.8,5.7-65.4h0.6c0.6,21.9,3.6,43.8,6,65.4l2.9,27.6h-18.2L161.2,85.2z M151.9,168.3l0.3-3h0.2l4.8-43.5h20.2
		l3.6,34.5l1.3,12H151.9z"/>
</g>
</svg>
