<?xml version="1.0" encoding="utf-8"?>
<!-- Generator: Adobe Illustrator 20.1.0, SVG Export Plug-In . SVG Version: 6.00 Build 0)  -->
<svg version="1.1" id="Слой_1" xmlns="http://www.w3.org/2000/svg" xmlns:xlink="http://www.w3.org/1999/xlink" x="0px" y="0px"
	 viewBox="0 0 134.5 118.1" style="enable-background:new 0 0 134.5 118.1;" xml:space="preserve">
<style type="text/css">
	.st0{fill:#47B4E7;}
	.st1{fill:#0F488A;}
</style>
<path class="st0" d="M80.8,22.1h3l8.7-8.7L93,9.8C76.8-4.5,52.2-3,37.9,13.2c-4,4.5-6.8,9.8-8.4,15.6c1-0.4,2-0.5,3-0.2l17.4-2.9
	c0,0,0.9-1.5,1.3-1.4C59,15.9,72,14.9,80.8,22.1L80.8,22.1z"/>
<path class="st0" d="M45.5,80.2h21.7V62.9H45.5c-1.5,0-3.1-0.3-4.5-1l-3,0.9l-8.7,8.7l-0.8,3C33.4,78.3,39.4,80.2,45.5,80.2z"/>
<path class="st0" d="M45.5,23.9c-15.6,0.1-28.1,12.8-28,28.4c0.1,8.7,4.1,16.9,11,22.2L41,61.9c-5.5-2.5-7.9-8.9-5.4-14.3
	c2.5-5.5,8.9-7.9,14.4-5.5c2.4,1.1,4.3,3,5.4,5.4L68,35C62.6,28,54.3,23.9,45.5,23.9z"/>
<path class="st1" d="M9.4,112.6c-2.5,0-4.9-0.9-6.6-2.7c-1.8-1.7-2.8-4-2.8-6.5s1-4.8,2.8-6.5c1.7-1.8,4.1-2.8,6.6-2.8
	c2.4,0,4.6,0.9,6.3,2.6l-1.8,1.8c-1.2-1.2-2.9-1.8-4.5-1.8c-1.8,0-3.5,0.7-4.7,2c-1.3,1.3-2,3-1.9,4.8c0,1.8,0.7,3.5,1.9,4.7
	c2.6,2.6,6.7,2.6,9.4,0.1c0.8-0.9,1.3-2,1.4-3.1h-6v-2.6H18c0.1,0.5,0.1,1,0.1,1.6c0.1,2.2-0.7,4.3-2.2,5.9
	C14.1,111.8,11.8,112.7,9.4,112.6z M29.1,110.9c-2.4,2.3-6.1,2.3-8.5,0c-1.1-1.1-1.8-2.7-1.7-4.3c0-1.6,0.6-3.1,1.7-4.3
	c2.4-2.3,6.1-2.3,8.5,0c1.1,1.1,1.8,2.7,1.7,4.3C30.9,108.3,30.3,109.8,29.1,110.9L29.1,110.9z M22.5,109.2c1.2,1.3,3.3,1.4,4.6,0.2
	c0.1,0,0.1-0.1,0.2-0.2c0.7-0.7,1-1.6,1-2.6s-0.3-1.9-1-2.6c-1.3-1.3-3.3-1.4-4.7-0.1l-0.1,0.1c-0.7,0.7-1,1.6-1,2.6
	C21.5,107.6,21.8,108.6,22.5,109.2L22.5,109.2z M42.1,110.9c-2.4,2.3-6.1,2.3-8.5,0c-1.1-1.1-1.8-2.7-1.7-4.3c0-1.6,0.6-3.1,1.7-4.3
	c2.4-2.3,6.1-2.3,8.5,0c1.1,1.1,1.8,2.7,1.7,4.3C43.9,108.3,43.3,109.8,42.1,110.9z M35.5,109.2c1.2,1.3,3.3,1.4,4.6,0.2
	c0.1,0,0.1-0.1,0.2-0.2c0.7-0.7,1-1.6,1-2.6s-0.3-1.9-1-2.6c-1.3-1.3-3.3-1.4-4.7-0.1l-0.1,0.1c-0.7,0.7-1,1.6-1,2.6
	C34.5,107.6,34.8,108.6,35.5,109.2L35.5,109.2z M50.7,118c-1.2,0-2.4-0.3-3.3-1.1c-0.8-0.6-1.5-1.5-1.9-2.5l2.3-1
	c0.2,0.6,0.6,1.1,1.1,1.5s1.2,0.6,1.9,0.6c0.9,0.1,1.7-0.3,2.3-0.9c0.6-0.7,0.9-1.7,0.8-2.6v-0.9h-0.1c-0.8,0.9-1.9,1.4-3.1,1.3
	c-1.5,0-3-0.6-4-1.7c-1.1-1.1-1.7-2.6-1.7-4.2s0.6-3.1,1.7-4.2c1-1.1,2.5-1.8,4-1.8c0.6,0,1.3,0.1,1.8,0.4c0.5,0.2,0.9,0.5,1.3,1
	h0.1v-1h2.5v10.7c0.1,1.7-0.4,3.4-1.6,4.7C53.7,117.5,52.2,118,50.7,118z M50.9,110.3c0.9,0,1.7-0.3,2.3-1s0.9-1.6,0.9-2.6
	s-0.3-1.9-0.9-2.6c-0.6-0.7-1.4-1-2.3-1c-0.9,0-1.7,0.3-2.3,1c-0.7,0.7-1,1.6-1,2.6s0.3,1.9,1,2.6C49.1,109.9,50,110.3,50.9,110.3z
	 M60.8,94.8v17.5h-2.6V94.8H60.8z M67.9,112.6c-1.6,0-3.1-0.6-4.2-1.7c-1.1-1.1-1.7-2.7-1.7-4.2c-0.1-1.6,0.5-3.1,1.6-4.3
	c1-1.1,2.5-1.7,4-1.7c0.7,0,1.4,0.1,2,0.4c0.6,0.2,1.1,0.6,1.5,1s0.7,0.8,1,1.2c0.2,0.4,0.4,0.8,0.6,1.2l0.3,0.7l-8,3.3
	c0.5,1.1,1.6,1.9,2.9,1.8c1.2,0,2.3-0.6,2.9-1.7l2,1.3c-0.5,0.7-1.2,1.3-1.9,1.8C70,112.3,69,112.6,67.9,112.6z M64.6,106.5l5.3-2.2
	c-0.2-0.4-0.5-0.7-0.8-0.9c-0.4-0.2-0.9-0.4-1.4-0.3c-0.8,0-1.6,0.4-2.2,0.9C64.9,104.6,64.5,105.5,64.6,106.5z"/>
<path class="st1" d="M86.7,112.6c-4.6,0.1-8.3-3.5-8.4-8.1c0-0.1,0-0.2,0-0.3c-0.1-4.5,3.5-8.3,8-8.4c0.1,0,0.2,0,0.3,0
	c2.3-0.1,4.5,0.9,5.9,2.6l-1.4,1.4c-1.1-1.4-2.7-2.1-4.5-2.1c-1.7,0-3.3,0.6-4.4,1.8c-1.2,1.2-1.9,2.9-1.8,4.7
	c-0.1,1.7,0.6,3.4,1.8,4.7c1.2,1.2,2.8,1.8,4.4,1.8c1.9,0,3.8-0.8,5-2.3l1.4,1.4c-0.8,0.9-1.7,1.6-2.8,2.1
	C89.2,112.4,88,112.6,86.7,112.6z"/>
<path class="st1" d="M97,112.3h-2V96.1h2V112.3z"/>
<path class="st1" d="M100.4,102.5c2.3-2.2,5.9-2.2,8.2,0c1.1,1.1,1.6,2.6,1.6,4.2s-0.5,3.1-1.6,4.2c-2.3,2.2-5.9,2.2-8.2,0
	c-1.1-1.1-1.6-2.6-1.6-4.2C98.8,105.2,99.3,103.7,100.4,102.5z M102,109.6c1.3,1.4,3.5,1.5,4.9,0.1l0.1-0.1c0.7-0.8,1.1-1.8,1.1-2.9
	s-0.3-2.1-1.1-2.9c-1.3-1.4-3.5-1.5-4.9-0.1l-0.1,0.1c-0.7,0.8-1.1,1.8-1.1,2.9C100.8,107.8,101.2,108.8,102,109.6L102,109.6z"/>
<path class="st1" d="M121.6,112.3h-2v-1.5h-0.1c-0.4,0.6-0.9,1.1-1.5,1.4c-0.6,0.4-1.3,0.6-2.1,0.6c-1.2,0.1-2.3-0.4-3.1-1.3
	c-0.8-1-1.1-2.2-1.1-3.4v-6.8h2.1v6.4c0,2.1,0.9,3.1,2.7,3.1c0.8,0,1.6-0.3,2.1-1s0.8-1.5,0.8-2.4v-6.1h2.1L121.6,112.3L121.6,112.3
	z"/>
<path class="st1" d="M128.7,112.6c-1.4,0-2.8-0.6-3.7-1.7c-1-1.1-1.6-2.6-1.6-4.2c0-1.5,0.5-3,1.6-4.2c0.9-1.1,2.3-1.7,3.7-1.7
	c0.8,0,1.6,0.2,2.3,0.5c0.6,0.3,1.1,0.8,1.5,1.3h0.1l-0.1-1.5V96h2.1v16.2h-2v-1.5h-0.1c-0.4,0.6-0.9,1-1.5,1.3
	C130.2,112.4,129.5,112.6,128.7,112.6z M129,110.7c0.9,0,1.9-0.4,2.5-1.1c0.7-0.8,1.1-1.8,1-2.9c0.1-1.1-0.3-2.1-1-2.9
	c-1.3-1.4-3.4-1.5-4.8-0.2c-0.1,0.1-0.2,0.1-0.2,0.2c-0.7,0.8-1.1,1.8-1,2.9c-0.1,1.1,0.3,2.1,1,2.9
	C127.1,110.3,128.1,110.7,129,110.7z"/>
<path class="st0" d="M104.8,29c-2-7.3-6.1-14-11.9-19.1L80.7,22.1c5.1,4.2,8.1,10.5,7.9,17.3v2.2c6,0,10.8,4.9,10.8,10.8
	c0,5.1-3.6,9.4-8.3,10.5h-24v0.3l0,0v17h27.1c13.1-2.4,23-13.8,23.1-27.6C117.4,43.1,112.7,34.3,104.8,29z"/>
</svg>
