<svg xmlns="http://www.w3.org/2000/svg" xmlns:xlink="http://www.w3.org/1999/xlink">

  <symbol id="header-nav--open" role="img" viewBox="0 0 512 512">
    <path d="M60,0C26.9,0,0,26.9,0,60s26.9,60,60,60s60-26.9,60-60S93.1,0,60,0z"/>
    <path d="M256,0c-33.1,0-60,26.9-60,60s26.9,60,60,60c33.1,0,60-26.9,60-60S289.1,0,256,0z"/>
    <path d="M452,120c33.1,0,60-26.9,60-60S485.1,0,452,0s-60,26.9-60,60S418.9,120,452,120z"/>
    <path d="M60,316c33.1,0,60-26.9,60-60c0-33.1-26.9-60-60-60S0,222.9,0,256S26.9,316,60,316z"/>
    <path d="M256,316c33.1,0,60-26.9,60-60c0-33.1-26.9-60-60-60c-33.1,0-60,26.9-60,60C196,289.1,222.9,316,256,316z"/>
    <path d="M452,316c33.1,0,60-26.9,60-60c0-33.1-26.9-60-60-60s-60,26.9-60,60C392,289.1,418.9,316,452,316z"/>
    <path d="M60,392c-33.1,0-60,26.9-60,60c0,33.1,26.9,60,60,60s60-26.9,60-60S93.1,392,60,392z"/>
    <path d="M256,392c-33.1,0-60,26.9-60,60c0,33.1,26.9,60,60,60c33.1,0,60-26.9,60-60S289.1,392,256,392z"/>
    <path d="M452,392c-33.1,0-60,26.9-60,60c0,33.1,26.9,60,60,60c33.1,0,60-26.9,60-60S485.1,392,452,392z"/>
  </symbol>

  <symbol id="header-nav--close" role="img" viewBox="0 0 512 512">
    <path d="M494.4,409.6L340.9,256l152.6-152.6l0,0C504.8,92.5,512,77.1,512,60c0-33.1-26.9-60-60-60c-17,0-32.4,7.2-43.4,18.6l0,0 L256,171.1L103.4,18.6l0,0C92.4,7.2,77,0,60,0C26.9,0,0,26.9,0,60c0,17.1,7.2,32.5,18.6,43.4l0,0L171.1,256L17.6,409.6l0,0 C6.7,420.5,0,435.5,0,452c0,33.1,26.9,60,60,60c16.5,0,31.5-6.7,42.4-17.6l0,0L256,340.9l153.6,153.6l0,0 c10.9,10.9,25.9,17.6,42.4,17.6c33.1,0,60-26.9,60-60C512,435.5,505.3,420.5,494.4,409.6L494.4,409.6z"/>
  </symbol>

  <symbol id="menu-switch" role="img" viewBox="0 0 451.847 451.847">
    <path d="M225.923,354.706c-8.098,0-16.195-3.092-22.369-9.263L9.27,151.157c-12.359-12.359-12.359-32.397,0-44.751 c12.354-12.354,32.388-12.354,44.748,0l171.905,171.915l171.906-171.909c12.359-12.354,32.391-12.354,44.744,0 c12.365,12.354,12.365,32.392,0,44.751L248.292,345.449C242.115,351.621,234.018,354.706,225.923,354.706z"/>
  </symbol>

  <symbol id="advantages-01" role="img" viewBox="0 0 512 512">
    <path fill="#ffffff" d="M487,499.9H21c-6.6,0-12-5.4-12-12v-453c0-6.6,5.4-12,12-12h466c6.6,0,12,5.4,12,12v453 C499,494.5,493.6,499.9,487,499.9z" />
    <path fill="var(--color-02-normal)" d="M486.4,8.5H25.6c-9.4,0-17.1,7.6-17.1,17.1v85.3h494.9V25.6C503.5,16.2,495.8,8.5,486.4,8.5z M59.7,76.8 c-9.4,0-17.1-7.6-17.1-17.1s7.6-17.1,17.1-17.1s17.1,7.6,17.1,17.1S69.2,76.8,59.7,76.8z M128,76.8c-9.4,0-17.1-7.6-17.1-17.1 s7.6-17.1,17.1-17.1s17.1,7.6,17.1,17.1S137.4,76.8,128,76.8z M196.3,76.8c-9.4,0-17.1-7.6-17.1-17.1s7.6-17.1,17.1-17.1 c9.4,0,17.1,7.6,17.1,17.1S205.7,76.8,196.3,76.8z" />
    <path fill="var(--color-01-normal)" d="M486.4,0H25.6C11.5,0,0,11.5,0,25.6v460.8C0,500.5,11.5,512,25.6,512h460.8c14.1,0,25.6-11.5,25.6-25.6V25.6 C512,11.5,500.5,0,486.4,0z M17.1,25.6c0-4.7,3.8-8.5,8.5-8.5h460.8c4.7,0,8.5,3.8,8.5,8.5v76.8H17.1V25.6z M494.9,486.4 c0,4.7-3.8,8.5-8.5,8.5H25.6c-4.7,0-8.5-3.8-8.5-8.5V119.5h477.9V486.4z" />
    <path fill="var(--color-01-normal)" d="M59.7,34.1c-14.1,0-25.6,11.5-25.6,25.6s11.5,25.6,25.6,25.6s25.6-11.5,25.6-25.6S73.9,34.1,59.7,34.1z  M59.7,68.3c-4.7,0-8.5-3.8-8.5-8.5s3.8-8.5,8.5-8.5s8.5,3.8,8.5,8.5S64.4,68.3,59.7,68.3z" />
    <path fill="var(--color-01-normal)" d="M128,34.1c-14.1,0-25.6,11.5-25.6,25.6s11.5,25.6,25.6,25.6s25.6-11.5,25.6-25.6S142.1,34.1,128,34.1z  M128,68.3c-4.7,0-8.5-3.8-8.5-8.5s3.8-8.5,8.5-8.5s8.5,3.8,8.5,8.5S132.7,68.3,128,68.3z" />
    <path fill="var(--color-01-normal)" d="M196.3,34.1c-14.1,0-25.6,11.5-25.6,25.6s11.5,25.6,25.6,25.6s25.6-11.5,25.6-25.6S210.4,34.1,196.3,34.1z  M196.3,68.3c-4.7,0-8.5-3.8-8.5-8.5s3.8-8.5,8.5-8.5s8.5,3.8,8.5,8.5S201,68.3,196.3,68.3z" />
    <path fill="var(--color-02-normal)" d="M256.2,373c8.8,0.5,16.3-6.3,16.8-15.1c0.5-8.8-6.3-16.3-15.1-16.8c-8.8-0.5-16.4,6.3-16.8,15.1 c-0.2,4.2,1.2,8.4,4.1,11.6C247.9,370.9,251.9,372.8,256.2,373z" />
    <path fill="var(--color-01-normal)" d="M249,197h16v32h-16V197z" />
    <path fill="var(--color-01-normal)" d="M207.9,204.5l15.5-4.1l8.3,30.9l-15.5,4.1L207.9,204.5z" />
    <path fill="var(--color-01-normal)" d="M170.1,222.4l13.9-8l16,27.7l-13.9,8L170.1,222.4z" />
    <path fill="var(--color-01-normal)" d="M138.2,249.5l11.3-11.3l22.6,22.6l-11.3,11.3L138.2,249.5z" />
    <path fill="var(--color-01-normal)" d="M114.4,283.9l8-13.9l27.7,16l-8,13.9L114.4,283.9z" />
    <path fill="var(--color-01-normal)" d="M100.4,323.3l4.1-15.5l30.9,8.3l-4.1,15.5L100.4,323.3z" />
    <path fill="var(--color-01-normal)" d="M97,349h32v16H97V349z" />
    <path fill="var(--color-01-normal)" d="M100.4,390.7l30.9-8.3l4.1,15.5l-30.9,8.3L100.4,390.7z" />
    <path fill="var(--color-01-normal)" d="M378.6,397.9l4.1-15.5l30.9,8.3l-4.1,15.5L378.6,397.9z" />
    <path fill="var(--color-01-normal)" d="M385,349h32v16h-32V349z" />
    <path fill="var(--color-01-normal)" d="M378.6,316.1l30.9-8.3l4.1,15.5l-30.9,8.3L378.6,316.1z" />
    <path fill="var(--color-01-normal)" d="M363.8,286.1l27.7-16l8,13.9l-27.7,16L363.8,286.1z" />
    <path fill="var(--color-01-normal)" d="M341.9,260.8l22.6-22.6l11.3,11.3l-22.6,22.6L341.9,260.8z" />
    <path fill="var(--color-01-normal)" d="M314.1,242.2l16-27.7l13.9,8l-16,27.7L314.1,242.2z" />
    <path fill="var(--color-01-normal)" d="M282.4,231.3l8.3-30.9l15.5,4.1l-8.3,30.9L282.4,231.3z" />
    <path fill="var(--color-01-normal)" d="M330.5,294.8l-11.3-11.3l-51.9,51.9c-8.8-4.2-19.2-2.6-26.4,3.9c-7.2,6.5-9.8,16.7-6.6,25.8s11.6,15.4,21.3,16 h1.3c8.3,0.1,15.9-4.1,20.3-11.1c4.4-7,4.9-15.7,1.2-23.1L330.5,294.8z M262.3,363c-2.1,2-5.1,2.6-7.9,1.7c-2.8-0.9-4.8-3.2-5.4-6 s0.4-5.8,2.6-7.6c1.5-1.3,3.4-2.1,5.3-2h0.4c3.2,0.2,6,2.3,7.1,5.3C265.6,357.4,264.8,360.8,262.3,363L262.3,363z" />
  </symbol>

  <symbol id="advantages-02" role="img" viewBox="0 0 512 512">
    <circle fill="#ffffff" cx="33.4" cy="103.3" r="24.9" />
    <circle fill="#ffffff" cx="368.8" cy="59.8" r="24.1" />
    <circle fill="#ffffff" cx="255.2" cy="37.6" r="24.5" />
    <ellipse fill="#ffffff" cx="144.6" cy="62.1" rx="26.3" ry="21.8" />
    <ellipse fill="#ffffff" cx="477.4" cy="105.3" rx="26.6" ry="21.4" />
    <rect x="153.8" y="288.9" fill="#ffffff" width="213.6" height="198" />
    <path fill="var(--color-02-normal)" d="M418.6,324.6h-0.8c4.7-27.9-14.1-54.4-42-59.1c-6.7-1.1-13.6-0.9-20.3,0.6c-27.6-54.8-94.4-76.9-149.2-49.3 c-21.3,10.7-38.6,28-49.3,49.3c-27.6-6.5-55.1,10.6-61.6,38.2c-1.6,6.6-1.8,13.5-0.6,20.3H94c-47.2,0-85.4,38.2-85.4,85.4 s38.2,85.4,85.4,85.4h324.6c47.2,0,85.4-38.2,85.4-85.4S465.8,324.6,418.6,324.6z M341.7,392.9h-37.2c-0.5,1.7-1.2,3.4-2.1,5 l26.3,26.3l-24.2,24.2l-26.3-26.3c-1.6,0.8-3.2,1.5-5,2.1v37.2H239v-37.2c-1.7-0.5-3.4-1.2-5-2.1l-26.3,26.3l-24.2-24.2l26.3-26.3 c-0.8-1.6-1.5-3.2-2.1-5h-37.2v-34.2H208c0.5-1.7,1.2-3.4,2.1-5l-26.3-26.3l24.2-24.2l26.3,26.3c1.6-0.8,3.2-1.5,5-2.1v-37.2h34.2 v37.2c1.7,0.5,3.4,1.2,5,2.1l26.3-26.3l24.2,24.2l-26.3,26.3c0.8,1.6,1.5,3.2,2.1,5H342L341.7,392.9z" />
    <circle fill="var(--color-02-normal)" cx="256.3" cy="382.9" r="25.6" />
    <path fill="var(--color-01-normal)" d="M478.4,138.2c-18.9,0-34.2-15.3-34.2-34.2s15.3-34.2,34.2-34.2s34.2,15.3,34.2,34.2S497.3,138.2,478.4,138.2z M478.4,87c-9.4,0-17.1,7.6-17.1,17.1s7.6,17.1,17.1,17.1s17.1-7.6,17.1-17.1S487.8,87,478.4,87z" />
    <path fill="var(--color-01-normal)" d="M469.8,223.6h17.1v17.1h-17.1V223.6z" />
    <path fill="var(--color-01-normal)" d="M469.8,189.5h17.1v17.1h-17.1V189.5z" />
    <path fill="var(--color-01-normal)" d="M469.8,155.3h17.1v17.1h-17.1V155.3z" />
    <path fill="var(--color-01-normal)" d="M418.6,512H94c-51.9,0-94-42-94-93.9c0-48.6,37-89.2,85.5-93.6c-0.3-25.7,16-48.7,40.4-56.9 c8.5-2.9,17.6-3.9,26.6-2.8c32.8-57.4,105.9-77.3,163.3-44.4c18.5,10.6,33.8,25.9,44.4,44.4c9-1.1,18.1-0.1,26.6,2.8 c24.4,8.2,40.7,31.2,40.4,57c51.7,5,89.4,51,84.4,102.6C506.9,475.1,466.7,511.7,418.6,512z M145.3,281.4c-4.8,0-9.5,0.8-14,2.3 c-19.8,6.7-31.8,26.8-28.2,47.4c0.8,4.6-2.3,9.1-6.9,9.9c-0.5,0.1-1,0.1-1.5,0.1c-42.5-0.2-77.1,34-77.3,76.5s34,77.1,76.5,77.3 h324.6c42.5,0,76.9-34.4,76.9-76.9s-34.4-76.9-76.9-76.9c-2.6,0-5.1-1.1-6.9-3c-1.7-1.9-2.6-4.4-2.3-7c3.6-20.6-8.4-40.8-28.2-47.4 c-7.6-2.6-15.9-3-23.7-1.2c-3.8,0.9-7.8-1-9.6-4.5c-25.5-50.6-87.1-71-137.8-45.5c-19.7,9.9-35.6,25.9-45.5,45.5 c-1.8,3.5-5.7,5.4-9.6,4.5C151.9,281.7,148.6,281.4,145.3,281.4L145.3,281.4z" />
    <path fill="var(--color-01-normal)" d="M273.4,476.8h-34.2c-4.7,0-8.5-3.8-8.5-8.5v-23.5L214,461.5c-3.3,3.3-8.7,3.3-12.1,0l-24.2-24.2 c-3.3-3.3-3.3-8.7,0-12.1l16.7-16.7h-23.5c-4.7,0-8.5-3.8-8.5-8.5v-34.2c0-4.7,3.8-8.5,8.5-8.5h23.5l-16.7-16.7 c-3.3-3.3-3.3-8.7,0-12.1l24.2-24.2c3.3-3.3,8.7-3.3,12.1,0l16.7,16.7v-23.5c0-4.7,3.8-8.5,8.5-8.5h34.2c4.7,0,8.5,3.8,8.5,8.5V321 l16.7-16.7c3.3-3.3,8.7-3.3,12.1,0l24.2,24.2c3.3,3.3,3.3,8.7,0,12.1l-16.7,16.7h23.5c4.7,0,8.5,3.8,8.5,8.5V400 c0,4.7-3.8,8.5-8.5,8.5h-23.5l16.7,16.7c3.3,3.3,3.3,8.7,0,12.1l-24.2,24.2c-3.3,3.3-8.7,3.3-12.1,0l-16.7-16.7v23.5 C281.9,473,278.1,476.8,273.4,476.8z M247.7,459.7h17.1v-28.6c0-3.8,2.5-7.1,6.1-8.2c1.2-0.4,2.3-0.8,3.4-1.4 c3.3-1.7,7.4-1.1,10,1.5l20.3,20.3l12.1-12.1l-20.3-20.3c-2.6-2.6-3.3-6.7-1.5-10c0.6-1.1,1.1-2.2,1.4-3.4c1.1-3.6,4.4-6.1,8.2-6.1 h28.6v-17.1h-28.6c-3.8,0-7.1-2.5-8.2-6.1c-0.4-1.2-0.8-2.3-1.4-3.4c-1.7-3.3-1.1-7.4,1.5-10l20.3-20.3l-12.1-12.1l-20.3,20.3 c-2.6,2.6-6.7,3.3-10,1.5c-1.1-0.6-2.2-1.1-3.4-1.4c-3.6-1.1-6.1-4.4-6.1-8.2V306h-17.1v28.6c0,3.8-2.5,7.1-6.1,8.2 c-1.2,0.4-2.3,0.8-3.4,1.4c-3.3,1.7-7.4,1.1-10-1.5l-20.3-20.3l-12.1,12.1l20.3,20.3c2.6,2.6,3.3,6.7,1.5,10 c-0.6,1.1-1.1,2.2-1.4,3.4c-1.1,3.6-4.4,6.1-8.2,6.1h-28.6v17.1H208c3.8,0,7.1,2.5,8.2,6.1c0.4,1.2,0.8,2.3,1.4,3.4 c1.7,3.3,1.1,7.4-1.5,10l-20.3,20.3l12.1,12.1l20.3-20.3c2.6-2.6,6.7-3.3,10-1.5c1.1,0.6,2.2,1.1,3.4,1.4c3.6,1.1,6.1,4.4,6.1,8.2 V459.7z" />
    <path fill="var(--color-01-normal)" d="M256.3,417c-18.9,0-34.2-15.3-34.2-34.2s15.3-34.2,34.2-34.2s34.2,15.3,34.2,34.2S275.1,417,256.3,417z M256.3,365.8c-9.4,0-17.1,7.6-17.1,17.1s7.6,17.1,17.1,17.1c9.4,0,17.1-7.6,17.1-17.1S265.7,365.8,256.3,365.8z" />
    <path fill="var(--color-01-normal)" d="M469.8,292h17.1v17.1h-17.1V292z" />
    <path fill="var(--color-01-normal)" d="M469.8,257.8h17.1v17.1h-17.1V257.8z" />
    <path fill="var(--color-01-normal)" d="M256.3,69.9c-18.9,0-34.2-15.3-34.2-34.2s15.3-34.2,34.2-34.2s34.2,15.3,34.2,34.2S275.1,69.9,256.3,69.9z M256.3,18.6c-9.4,0-17.1,7.6-17.1,17.1s7.6,17.1,17.1,17.1c9.4,0,17.1-7.6,17.1-17.1S265.7,18.6,256.3,18.6z" />
    <path fill="var(--color-01-normal)" d="M247.7,155.3h17.1v17.1h-17.1L247.7,155.3L247.7,155.3z" />
    <path fill="var(--color-01-normal)" d="M247.7,121.1h17.1v17.1h-17.1L247.7,121.1L247.7,121.1z" />
    <path fill="var(--color-01-normal)" d="M247.7,87h17.1v17h-17.1L247.7,87L247.7,87z" />
    <path fill="var(--color-01-normal)" d="M367.3,95.5c-18.9,0-34.2-15.3-34.2-34.2s15.3-34.2,34.2-34.2s34.2,15.3,34.2,34.2S386.2,95.5,367.3,95.5z M367.3,44.2c-9.4,0-17.1,7.6-17.1,17.1s7.6,17.1,17.1,17.1c9.4,0,17.1-7.6,17.1-17.1S376.8,44.2,367.3,44.2z" />
    <path fill="var(--color-01-normal)" d="M358.8,180.9h17.1V198h-17.1V180.9z" />
    <path fill="var(--color-01-normal)" d="M358.8,146.8h17.1v17.1h-17.1V146.8z" />
    <path fill="var(--color-01-normal)" d="M358.8,112.6h17.1v17.1h-17.1V112.6z" />
    <path fill="var(--color-01-normal)" d="M358.8,215.1h17.1v17.1h-17.1V215.1z" />
    <path fill="var(--color-01-normal)" d="M34.2,138.2C15.3,138.2,0,122.9,0,104s15.3-34.2,34.2-34.2S68.3,85.2,68.3,104S53,138.2,34.2,138.2z M34.2,87 c-9.4,0-17.1,7.6-17.1,17.1s7.6,17.1,17.1,17.1s17.1-7.6,17.1-17.1S43.6,87,34.2,87z" />
    <path fill="var(--color-01-normal)" d="M25.6,223.6h17.1v17.1H25.6V223.6z" />
    <path fill="var(--color-01-normal)" d="M25.6,189.5h17.1v17.1H25.6V189.5z" />
    <path fill="var(--color-01-normal)" d="M25.6,155.3h17.1v17.1H25.6V155.3z" />
    <path fill="var(--color-01-normal)" d="M25.6,292h17.1v17.1H25.6V292z" />
    <path fill="var(--color-01-normal)" d="M25.6,257.8h17.1v17.1H25.6V257.8z" />
    <path fill="var(--color-01-normal)" d="M145.2,95.5c-18.9,0-34.2-15.3-34.2-34.2s15.3-34.2,34.2-34.2s34.2,15.3,34.2,34.2S164.1,95.5,145.2,95.5z M145.2,44.2c-9.4,0-17.1,7.6-17.1,17.1s7.6,17.1,17.1,17.1c9.4,0,17.1-7.6,17.1-17.1S154.7,44.2,145.2,44.2z" />
    <path fill="var(--color-01-normal)" d="M136.7,180.9h17.1V198h-17.1V180.9z" />
    <path fill="var(--color-01-normal)" d="M136.7,146.8h17.1v17.1h-17.1V146.8z" />
    <path fill="var(--color-01-normal)" d="M136.7,112.6h17.1v17.1h-17.1V112.6z" />
    <path fill="var(--color-01-normal)" d="M136.7,215.1h17.1v17.1h-17.1V215.1z" />
  </symbol>

  <symbol id="advantages-03" role="img" viewBox="0 0 512 512">
    <circle fill="#ffffff" cx="25.7" cy="486.4" r="8.5" />
    <circle fill="#ffffff" cx="25.7" cy="401.1" r="8.5" />
    <circle fill="#ffffff" cx="25.7" cy="315.8" r="8.5" />
    <circle fill="#ffffff" cx="486.4" cy="239" r="8.5" />
    <circle fill="#ffffff" cx="486.4" cy="170.7" r="8.5" />
    <circle fill="#ffffff" cx="341.4" cy="25.7" r="8.5" />
    <circle fill="#ffffff" cx="452.3" cy="34.2" r="8.5" />
    <path fill="var(--color-01-normal)" d="M510.6,162.2c4.7,13.3-2.3,28-15.6,32.7c-13.3,4.7-28-2.3-32.7-15.6h-35.7v51.2h35.7 c3.6-10.2,13.2-17,24-17.1c10.8,0,20.5,6.8,24.1,17c4.7,13.3-2.2,27.9-15.5,32.6c-13.3,4.7-27.9-2.2-32.6-15.5h-35.7v49.6 c-0.2,82.3-47.6,157.3-122,192.7l-45,21.3c-2.3,1.1-5,1.1-7.3,0l-45-21.3c-19.1-9.1-36.8-21-52.4-35.4l-40.4,40.5H49.7 c-2.6,7.3-8.3,13-15.6,15.6c-13.3,4.7-28-2.3-32.7-15.6s2.3-28,15.6-32.7s28,2.3,32.7,15.6h57.8l35.4-35.4 c-9.4-10.1-17.8-21.1-25.1-32.8h-68c-2.6,7.3-8.3,13-15.6,15.6c-13.3,4.7-28-2.3-32.7-15.6s2.3-28,15.6-32.7s28,2.3,32.7,15.6 h58.6c-10.8-21.4-17.9-44.5-21-68.2H49.7c-2.6,7.3-8.3,13-15.6,15.6c-13.3,4.7-28-2.3-32.7-15.6c-4.7-13.3,2.3-28,15.6-32.7 s28,2.3,32.7,15.6h36.1c-0.2-3.4-0.4-6.7-0.4-10.1V136.6c0-4,2.8-7.5,6.8-8.3l155.3-32.7V53.9L316,28.2c-0.1-0.8-0.2-1.7-0.3-2.5 c0-6.8,2.7-13.4,7.5-18.2c10-10,26.2-9.9,36.2,0.1c10,10,9.9,26.2-0.1,36.2c-10,10-26.2,9.9-36.2-0.1l-58.7,22v29.9l110.9,23.3 V72.3L427,37.9c-0.2-1.2-0.3-2.5-0.4-3.7c0-6.3,2.3-12.5,6.6-17.2c9.4-10.5,25.6-11.3,36-1.9s11.3,25.6,1.9,36 c-9.4,10.5-25.6,11.3-36,1.9l-42.5,28.4v41l27.4,5.8c3.9,0.8,6.8,4.3,6.8,8.3v25.6h35.7c2.6-7.3,8.3-13,15.6-15.6 C491.3,141.9,505.9,148.9,510.6,162.2z M494.9,170.7c0-4.7-3.8-8.5-8.5-8.5s-8.5,3.8-8.5,8.5s3.8,8.5,8.5,8.5 S494.9,175.4,494.9,170.7z M494.9,239c0-4.7-3.8-8.5-8.5-8.5s-8.5,3.8-8.5,8.5c0,4.7,3.8,8.5,8.5,8.5S494.9,243.7,494.9,239z  M460.8,34.2c0-4.7-3.8-8.5-8.5-8.5s-8.5,3.8-8.5,8.5s3.8,8.5,8.5,8.5S460.8,39,460.8,34.2z M409.6,297.1V143.5L256,111.2 l-153.6,32.3v153.6c0.2,75.7,43.8,144.7,112.2,177.3L256,494l41.4-19.6C365.8,441.8,409.4,372.9,409.6,297.1z M349.9,25.7 c0-4.7-3.8-8.5-8.5-8.5s-8.5,3.8-8.5,8.5s3.8,8.5,8.5,8.5S349.9,30.4,349.9,25.7z M34.2,315.8c0-4.7-3.8-8.5-8.5-8.5 s-8.5,3.8-8.5,8.5s3.8,8.5,8.5,8.5S34.2,320.5,34.2,315.8z M34.2,401.1c0-4.7-3.8-8.5-8.5-8.5s-8.5,3.8-8.5,8.5s3.8,8.5,8.5,8.5 S34.2,405.8,34.2,401.1z M34.2,486.4c0-4.7-3.8-8.5-8.5-8.5s-8.5,3.8-8.5,8.5s3.8,8.5,8.5,8.5S34.2,491.1,34.2,486.4z" />
    <path fill="#ffffff" d="M409.6,143.5v153.6c-0.2,75.8-43.8,144.7-112.2,177.3L256,494l-41.4-19.6c-68.4-32.6-112-101.5-112.2-177.3 V143.5L256,111.2L409.6,143.5z" />
    <path fill="var(--color-02-normal)" d="M256,138.4l-128,26.9v132.8c0.2,65.9,38.1,125.8,97.6,154.2l30.4,14.4l30.4-14.4 c59.5-28.4,97.4-88.3,97.6-154.2V165.4L256,138.4z" />
    <path fill="var(--color-01-normal)" d="M126.3,157c-3.9,0.8-6.8,4.3-6.8,8.4v132.8c0.2,69.2,40,132.1,102.5,161.9l30.4,14.4c2.3,1.1,5,1.1,7.3,0 l30.4-14.4c62.4-29.8,102.3-92.7,102.5-161.9V165.4c0-4-2.8-7.5-6.8-8.4l-128-26.9c-1.2-0.2-2.4-0.2-3.5,0L126.3,157z M375.5,172.3 v125.9c-0.2,62.6-36.2,119.5-92.7,146.5L256,457.3l-26.7-12.7c-56.5-27-92.5-83.9-92.7-146.5V172.3L256,147.2L375.5,172.3z" />
    <path fill="var(--color-01-normal)" d="M233,339.9c3.3,3.3,8.7,3.3,12.1,0l84.5-84.5c3.3-3.4,3.2-8.8-0.2-12.1c-3.3-3.2-8.5-3.2-11.9,0L239,321.8 l-42.2-42.2c-3.4-3.3-8.8-3.2-12.1,0.2c-3.2,3.3-3.2,8.5,0,11.9L233,339.9z" />
  </symbol>

  <symbol id="advantages-04" role="img" viewBox="0 0 512 512">
    <circle fill="#ffffff" cx="256" cy="36.2" r="25.1" />
    <circle fill="#ffffff" cx="478.5" cy="255.4" r="24.1" />
    <ellipse fill="#ffffff" cx="257" cy="482.3" rx="25.1" ry="21.5" />
    <circle fill="#ffffff" cx="34.6" cy="255.4" r="24.1" />
    <ellipse fill="#ffffff" cx="256.8" cy="254.9" rx="221.1" ry="219" />
    <path fill="var(--color-02-normal)" d="M384,136.5c0,12-8.3,22.3-20,24.9c5.7,22.6,9.2,45.7,10.6,69h0.1c0.3,0,0.5-0.1,0.8-0.1 c14.1,0,25.6,11.5,25.6,25.6h51.2c0-13.5,10.5-24.6,24-25.4c-5-43.9-23-85.3-51.8-118.8c-13,8-26.7,14.7-41,19.9 C383.8,133.3,384,134.9,384,136.5z" />
    <path fill="var(--color-02-normal)" d="M128,366.9c0-11.2,7.3-21.1,18-24.3c-4.5-20.1-7.4-40.5-8.6-61.1h-0.1c-0.3,0-0.5,0.1-0.8,0.1 c-14.1,0-25.6-11.5-25.6-25.6H59.7c0,13.5-10.5,24.6-24,25.4c5,43.9,23,85.3,51.8,118.8c13.8-8.5,28.4-15.6,43.7-21 C129.1,375.5,128,371.2,128,366.9z" />
    <path fill="var(--color-02-normal)" d="M452.3,256h-51.2c0,14.1-11.5,25.6-25.6,25.6c-0.3,0-0.5-0.1-0.8-0.1h-0.1c-1.2,20.6-4.1,41-8.6,61.1 c13.4,4,21,18.1,17,31.4c-0.5,1.8-1.3,3.6-2.2,5.2c15.3,5.4,29.9,12.5,43.7,21c28.8-33.5,46.9-74.9,51.8-118.8 C462.8,280.6,452.3,269.5,452.3,256z" />
    <path fill="var(--color-02-normal)" d="M59.7,256h51.2c0-14.1,11.5-25.6,25.6-25.6c0.3,0,0.5,0.1,0.8,0.1h0.1c1.4-23.3,4.9-46.4,10.6-69 c-13.5-3-22.2-16.2-19.5-29.7c-14.3-5.3-28-11.9-41-19.9c-28.8,33.5-46.8,74.9-51.8,118.8C49.2,231.4,59.7,242.5,59.7,256z" />
    <path fill="var(--color-02-normal)" d="M162.1,256h68.3c0-14.1,11.5-25.6,25.6-25.6v-51.2c-14.1,0-25.6-11.5-25.6-25.6c0-0.3,0.1-0.5,0.1-0.8v-0.1 c-17.8-1.1-35.6-3.4-53.1-6.9c-4.5,11.8-17.1,18.5-29.4,15.6c-5.7,22.6-9.2,45.8-10.6,69C151.2,230.9,162.1,242.2,162.1,256z" />
    <path fill="var(--color-02-normal)" d="M349.9,256h-68.3c0,14.1-11.5,25.6-25.6,25.6v51.2c14.1,0,25.6,11.5,25.6,25.6c0,0.3-0.1,0.5-0.1,0.8v0.1 c17.3,1,34.4,3.2,51.4,6.6c0.4-13.9,11.9-24.9,25.8-24.5c2.5,0.1,4.9,0.5,7.2,1.3c4.5-20.1,7.4-40.5,8.6-61.1 C360.8,281.1,349.9,269.8,349.9,256z" />
    <path fill="var(--color-02-normal)" d="M334.6,145.8c-17.5,3.5-35.3,5.9-53.1,6.9v0.1c0,0.3,0.1,0.5,0.1,0.8c0,14.1-11.5,25.6-25.6,25.6v51.2 c14.1,0,25.6,11.5,25.6,25.6h68.3c0-13.8,11-25.1,24.7-25.5c-1.4-23.3-4.9-46.4-10.6-69C351.7,164.3,339.1,157.7,334.6,145.8 L334.6,145.8z" />
    <path fill="var(--color-02-normal)" d="M153.6,341.3c13.7,0,24.9,10.8,25.5,24.5c17-3.4,34.1-5.6,51.4-6.6v-0.1c0-0.3-0.1-0.5-0.1-0.8 c0-14.1,11.5-25.6,25.6-25.6v-51.2c-14.1,0-25.6-11.5-25.6-25.6h-68.3c0,13.8-11,25.1-24.7,25.5c1.2,20.6,4.1,41,8.6,61.1l0,0 C148.5,341.8,151,341.4,153.6,341.3z" />
    <path fill="var(--color-02-normal)" d="M230.9,472.9c-28.2-11.2-52.6-40.8-69.6-81.7c-11.6,3.9-24.4-1.1-30.1-12c-15.3,5.4-29.9,12.5-43.7,21 c36.3,42.6,87.4,69.8,143,76.2C230.6,475.2,230.7,474.1,230.9,472.9L230.9,472.9z" />
    <path fill="var(--color-02-normal)" d="M358.4,392.5c-2.6,0-5.3-0.5-7.7-1.3c-17,40.9-41.4,70.5-69.6,81.7l0,0c0.2,1.2,0.3,2.3,0.4,3.5 c55.6-6.3,106.7-33.6,143-76.2c-13.8-8.5-28.4-15.6-43.7-21C376.3,387.4,367.7,392.5,358.4,392.5z" />
    <path fill="var(--color-02-normal)" d="M256,452.3V384c-13.8,0-25.1-11-25.5-24.7c-17.3,1-34.4,3.2-51.4,6.6v0c0,0.4,0.1,0.7,0.1,1 c0,11.1-7.2,20.9-17.9,24.3c17,40.9,41.4,70.5,69.6,81.7C233.3,460.9,243.8,452.3,256,452.3z" />
    <path fill="var(--color-02-normal)" d="M332.8,366.9c0-0.4,0.1-0.7,0.1-1.1c-17-3.4-34.1-5.6-51.4-6.6C281.1,373,269.8,384,256,384v68.3 c12.2,0,22.7,8.6,25.1,20.6c28.2-11.2,52.6-40.8,69.6-81.7C340,387.9,332.8,378,332.8,366.9z" />
    <path fill="var(--color-02-normal)" d="M281.1,39.1c26.5,10.5,49.6,37.2,66.4,74.4c12.6-6.1,27.8-0.8,33.9,11.8c1,2,1.7,4.2,2.1,6.4 c14.3-5.3,28-11.9,41-19.9c-36.3-42.6-87.4-69.9-143-76.2C281.4,36.8,281.3,37.9,281.1,39.1L281.1,39.1z" />
    <path fill="var(--color-02-normal)" d="M153.6,110.9c3.8,0,7.5,0.9,10.9,2.6c16.8-37.1,39.9-63.8,66.4-74.4l0,0c-0.2-1.2-0.3-2.3-0.4-3.5 c-55.6,6.3-106.7,33.6-143,76.1c13,8,26.7,14.7,41,19.9C130.8,119.7,141.3,111,153.6,110.9z" />
    <path fill="var(--color-02-normal)" d="M256,59.7V128c13.8,0,25.1,11,25.5,24.7c17.8-1.1,35.6-3.4,53.1-6.9c-5-12.5,0.7-26.7,12.9-32.3 c-16.8-37.1-39.9-63.8-66.4-74.4C278.7,51.1,268.2,59.7,256,59.7z" />
    <path fill="var(--color-02-normal)" d="M179.2,136.5c0,3.2-0.6,6.4-1.8,9.3c17.5,3.5,35.3,5.9,53.1,6.9C230.9,139,242.2,128,256,128V59.7 c-12.2,0-22.7-8.6-25.1-20.6c-26.5,10.5-49.6,37.2-66.4,74.4C173.5,117.7,179.2,126.6,179.2,136.5z" />
    <path fill="var(--color-01-normal)" d="M512,256c0-16.5-11.9-30.6-28.2-33.5C469,121.9,390.1,42.9,289.5,28.1c-3.3-18.5-21-30.8-39.5-27.5 C236,3,225,14,222.5,28.1C121.9,42.9,43,121.9,28.2,222.5c-18.5,3.2-30.9,20.9-27.6,39.4C3,276,14,287,28.2,289.5 C43,390.1,121.9,469,222.5,483.9c3.3,18.5,21,30.8,39.5,27.5c14-2.5,25-13.5,27.5-27.5c100.6-14.8,179.5-93.8,194.3-194.4 C500.1,286.6,512,272.5,512,256z M466.8,223.9c-10.8,3.7-19,12.6-21.8,23.6h-36.6c-3.2-12.5-13.2-22.1-25.8-24.8 c-1.5-18.8-4.3-37.5-8.5-56c11-5.7,18-16.9,18.4-29.2c10.3-4.1,20.3-9,30-14.5C445.9,152.1,461.2,186.9,466.8,223.9z M285.6,461.2 c-4.5-8.1-12.1-14-21.1-16.3v-53.6c11.4-3,20.5-11.7,23.9-22.9c12.5,1,24.7,2.6,36.4,4.7c1.7,9.1,6.9,17.1,14.6,22.2 C325.1,426.9,306.4,449.9,285.6,461.2z M226.4,461.2c-20.8-11.3-39.5-34.3-53.8-65.9c7.7-5.1,12.9-13.2,14.6-22.3 c11.6-2.1,23.7-3.7,36.4-4.7c3.4,11.3,12.5,20,24,23v53.6C238.5,447.3,230.9,453.2,226.4,461.2z M226.4,50.7 c4.5,8.1,12.1,14,21.1,16.3v53.6c-11.4,3-20.5,11.7-24,23c-12.5-1-24.6-2.6-36-4.7c0.1-0.9,0.3-1.6,0.3-2.5 c0-10.1-4.5-19.6-12.3-26C189.3,82.1,207,61.3,226.4,50.7L226.4,50.7z M285.7,50.7c19.3,10.5,37,31.4,50.9,59.8 c-7.8,6.4-12.3,15.9-12.3,26c0,0.9,0.2,1.7,0.3,2.5c-11.5,2.1-23.5,3.6-36,4.7c-3.4-11.3-12.5-20-24-23V67 C273.5,64.7,281.1,58.8,285.7,50.7L285.7,50.7z M342.5,247.5h-53.6c-3.1-11.9-12.4-21.3-24.4-24.4v-36.6 c12.5-3.2,22.1-13.2,24.8-25.8c13.6-1.1,27.2-2.9,40.6-5.4c6.1,9.2,16.4,14.9,27.5,15.2c4,17.4,6.7,35.1,8.1,52.9 C354.2,226.9,345.5,236,342.5,247.5z M256,375.5c-9.4,0-17.1-7.6-17.1-17.1c0-9.4,7.6-17.1,17.1-17.1s17.1,7.6,17.1,17.1 C273.1,367.8,265.4,375.5,256,375.5z M256,273.1c-9.4,0-17.1-7.6-17.1-17.1s7.6-17.1,17.1-17.1s17.1,7.6,17.1,17.1 S265.4,273.1,256,273.1z M256,136.5c9.4,0,17.1,7.6,17.1,17.1c0,9.4-7.6,17.1-17.1,17.1s-17.1-7.6-17.1-17.1 C238.9,144.2,246.6,136.5,256,136.5z M358.4,153.6c-9.4,0-17.1-7.6-17.1-17.1s7.6-17.1,17.1-17.1c9.4,0,17.1,7.6,17.1,17.1 S367.8,153.6,358.4,153.6z M170.7,136.5c0,9.4-7.6,17.1-17.1,17.1c-9.4,0-17.1-7.6-17.1-17.1s7.6-17.1,17.1-17.1 C163,119.5,170.7,127.1,170.7,136.5z M154.6,170.6c11.1-0.3,21.3-6,27.5-15.2c13.4,2.5,27,4.3,40.6,5.4 c2.7,12.6,12.3,22.5,24.8,25.8v36.6c-11.9,3.1-21.3,12.4-24.4,24.4h-53.6c-3-11.4-11.7-20.5-23-24 C147.8,205.7,150.6,188,154.6,170.6z M136.5,238.9c9.4,0,17.1,7.6,17.1,17.1s-7.6,17.1-17.1,17.1s-17.1-7.6-17.1-17.1 S127.1,238.9,136.5,238.9z M146.4,288.5c11.3-3.4,20-12.5,23-24h53.6c3.1,11.9,12.4,21.3,24.4,24.4v36.6 c-12.5,3.2-22.1,13.2-24.8,25.8c-12.8,1-25.1,2.6-36.9,4.7c-4.7-13.8-17.6-23.1-32.1-23.1c-0.3,0-0.6,0.1-1,0.1 C149.7,318.2,147.6,303.4,146.4,288.5z M153.6,349.9c9.4,0,17.1,7.6,17.1,17.1S163,384,153.6,384c-9.4,0-17.1-7.6-17.1-17.1 S144.2,349.9,153.6,349.9z M358.4,384c-9.4,0-17.1-7.6-17.1-17.1s7.6-17.1,17.1-17.1c9.4,0,17.1,7.6,17.1,17.1S367.8,384,358.4,384 z M358.4,332.8c-14.6,0-27.5,9.4-32.2,23.2c-11.9-2.1-24.2-3.6-36.8-4.7c-2.7-12.6-12.3-22.6-24.8-25.9v-36.6 c11.9-3.1,21.3-12.4,24.4-24.4h53.6c3,11.4,11.7,20.5,23,24c-1.2,14.9-3.3,29.7-6.3,44.4C359,332.9,358.7,332.8,358.4,332.8z  M375.5,273.1c-9.4,0-17.1-7.6-17.1-17.1s7.6-17.1,17.1-17.1s17.1,7.6,17.1,17.1S384.9,273.1,375.5,273.1z M411,109.9 c-7.3,4-14.8,7.6-22.5,10.8c-6.9-13.4-21.8-20.6-36.6-17.6c-9.1-19.4-21.6-37.1-37-52C351.6,61.6,384.9,81.9,411,109.9z M256,17.1 c9.4,0,17.1,7.6,17.1,17.1s-7.6,17.1-17.1,17.1s-17.1-7.6-17.1-17.1S246.6,17.1,256,17.1z M197.1,51.1c-15.4,14.9-28,32.5-37,52 c-14.8-3-29.7,4.2-36.6,17.6c-7.7-3.2-15.2-6.8-22.5-10.8C127.1,81.9,160.3,61.6,197.1,51.1z M89.6,122.9 c9.6,5.6,19.7,10.4,30,14.6c0.4,12.4,7.4,23.5,18.4,29.2c-4.2,18.4-7.1,37.1-8.5,56c-12.6,2.7-22.6,12.4-25.8,24.9H67 c-2.9-11-11.1-19.9-21.8-23.6C50.8,186.9,66.1,152,89.6,122.9z M17.1,256c0-9.4,7.6-17.1,17.1-17.1s17.1,7.6,17.1,17.1 s-7.6,17.1-17.1,17.1S17.1,265.4,17.1,256z M45.2,288.1c10.8-3.7,19-12.6,21.8-23.6h36.6c3.2,12.5,13.2,22.1,25.8,24.8 c1.3,16.2,3.6,32.4,6.8,48.4c-10.4,6.1-16.7,17.2-16.8,29.2c0,2.5,0.3,4.9,0.9,7.3c-10.6,4.2-20.9,9.2-30.7,14.9 C66.1,360,50.8,325.1,45.2,288.1z M101,402.1c8.8-4.8,17.8-9,27.1-12.7c6.4,7.3,15.7,11.6,25.4,11.6c0.9,0,1.8-0.2,2.7-0.3 c9.4,22.6,23.3,43,40.8,60.1C160.3,450.4,127.1,430.1,101,402.1L101,402.1z M256,494.9c-9.4,0-17.1-7.6-17.1-17.1 s7.6-17.1,17.1-17.1s17.1,7.6,17.1,17.1S265.4,494.9,256,494.9z M314.9,460.9c17.5-17.1,31.4-37.6,40.8-60.1 c0.9,0.1,1.8,0.3,2.7,0.3c9.8,0,19-4.3,25.4-11.6c9.3,3.6,18.4,7.9,27.1,12.7C384.9,430.1,351.6,450.4,314.9,460.9z M422.4,389.1 c-9.9-5.7-20.1-10.6-30.7-14.9c3.2-14.4-3.2-29.2-16-36.5c3.3-15.9,5.6-32.1,6.9-48.3c12.6-2.7,22.6-12.4,25.8-24.8h36.6 c2.9,11,11.1,19.9,21.8,23.6C461.2,325.1,445.9,360,422.4,389.1z M477.9,273.1c-9.4,0-17.1-7.6-17.1-17.1s7.6-17.1,17.1-17.1 s17.1,7.6,17.1,17.1S487.3,273.1,477.9,273.1z" />
  </symbol>

  <symbol id="about-01" role="img" viewBox="0 0 480 480">
    <path fill="#ffffff" d="M209.9,305.6c0.1-1.4,0.8-2.8,2.5-3.7c5.2-2.6,8.8-7,14.5-8.5c5.5-1.4,11-0.2,16.5-0.2 c13.8,0,27.7-0.5,41.5-0.8c13.3-0.3,28-0.4,40.6-5.1c5.7-2.1,10.6-5.7,15.4-9.4V172c0-6.6-5.4-12-12-12H155c-6.6,0-12,5.4-12,12 v101.2c5.4,3.9,9.6,9.3,15.2,12.8c7.1,4.3,16.2,4.6,24.1,6.8c2.2,0.6,3.5,2.6,3.7,4.8c0.2,2.7,0.1,5.3,0,8H209.9z" />
    <path fill="var(--color-02-normal)" d="M264,424h-48c-8.8,0-16,7.2-16,16v16c0,8.8,7.2,16,16,16h48c8.8,0,16-7.2,16-16v-16 C280,431.2,272.8,424,264,424z" />
    <path fill="var(--color-02-normal)" d="M457.8,160C424.3,68.7,337.3,8,240,8S55.7,68.7,22.2,160h34.6C88.6,87.1,160.5,40,240,40s151.4,47.1,183.2,120 H457.8z" />
    <path fill="var(--color-02-normal)" d="M8,176v112c0,17.7,14.3,32,32,32h48V160H24C15.2,160,8,167.2,8,176z" />
    <path fill="var(--color-02-normal)" d="M456,160h-56v160h40c17.7,0,32-14.3,32-32V176C472,167.2,464.8,160,456,160z" />
    <path fill="var(--color-01-normal)" d="M463.8,153.4C428,61,339.1,0,240,0S52,61,16.2,153.4C6.6,156.7,0.1,165.8,0,176v112c0,22.1,17.9,40,40,40h48 c4.4,0,8-3.6,8-8V160c0-4.4-3.6-8-8-8H69.5C102.4,88.1,168.2,48,240,48s137.6,40.1,170.5,104H400c-4.4,0-8,3.6-8,8v160 c0,4.4,3.6,8,8,8h28.4c-27.1,57.4-78.7,99.5-140.4,114.4V440c0-13.3-10.7-24-24-24h-48c-13.3,0-24,10.7-24,24v16 c0,13.3,10.7,24,24,24h48c12.1,0,22.3-9.1,23.7-21.2c70.9-15.8,129.8-64.7,158.4-131.4c19.4-3,33.8-19.7,33.9-39.4V176 C480,165.8,473.4,156.7,463.8,153.4z M272,456c0,4.4-3.6,8-8,8h-48c-4.4,0-8-3.6-8-8v-16c0-4.4,3.6-8,8-8h48c4.4,0,8,3.6,8,8V456z M80,312H40c-13.3,0-24-10.7-24-24V176c0-4.4,3.6-8,8-8h56V312z M240,32C159.2,32,85.8,78.8,51.6,152H33.9 C69.2,69.5,150.3,16,240,16s170.8,53.5,206.1,136h-17.7C394.2,78.8,320.8,32,240,32z M464,288c0,13.3-10.7,24-24,24h-32V168h48 c4.4,0,8,3.6,8,8V288z" />
    <path fill="var(--color-01-normal)" d="M301.4,196.8c-1.7-4.1-6.4-5.9-10.5-4.2c-1.9,0.8-3.4,2.3-4.2,4.2l-24,56c-1.7,4.1,0.3,8.8,4.3,10.4 c4,1.6,8.6-0.2,10.4-4.1l4.8-11.2h23.7l4.8,11.2c1.7,4.1,6.4,6,10.4,4.3c4.1-1.7,6-6.4,4.3-10.4c0-0.1-0.1-0.1-0.1-0.2L301.4,196.8z M289,232l5-11.7l5,11.7H289z" />
    <path fill="var(--color-01-normal)" d="M221.2,229.8c0.5-1.9,0.8-3.9,0.8-5.8v-24c0-13.3-10.7-24-24-24h-8c-13.3,0-24,10.7-24,24v24 c0,13.3,10.7,24,24,24h8c5.2,0,10.2-1.7,14.3-4.9l5.2,3.5c3.7,2.5,8.6,1.5,11.1-2.2s1.5-8.6-2.2-11.1L221.2,229.8z M190,232 c-4.4,0-8-3.6-8-8v-24c0-4.4,3.6-8,8-8h8c4.4,0,8,3.6,8,8v19.6l-2.5-1.7c-3.7-2.5-8.6-1.5-11.1,2.2s-1.5,8.6,2.2,11.1l1.2,0.8H190z" />
    <path fill="var(--color-01-normal)" d="M264.5,176.4c-4.2-1.4-8.7,0.9-10.1,5.1l-24,72c-1.4,4.2,0.9,8.7,5.1,10.1c4.2,1.4,8.7-0.9,10.1-5.1l24-72 C271,182.3,268.7,177.8,264.5,176.4C264.5,176.4,264.5,176.4,264.5,176.4z" />
    <path fill="var(--color-01-normal)" d="M310,152H174c-22.1,0-40,17.9-40,40v64c0,22.1,17.9,40,40,40h8v24c0,4.4,3.6,8,8,8c2.1,0,4.2-0.8,5.7-2.3 l29.7-29.7H310c22.1,0,40-17.9,40-40v-64C350,169.9,332.1,152,310,152z M334,256c0,13.3-10.7,24-24,24h-88c-2.1,0-4.2,0.8-5.7,2.3 L198,300.7V288c0-4.4-3.6-8-8-8h-16c-13.3,0-24-10.7-24-24v-64c0-13.3,10.7-24,24-24h136c13.3,0,24,10.7,24,24V256z" />
  </symbol>

  <symbol id="about-02" role="img" viewBox="0 0 480 480">
    <ellipse fill="#ffffff" cx="238" cy="238.9" rx="173" ry="185" />
    <path fill="var(--color-02-normal)" d="M184,168h-48v160h48V168z" />
    <path fill="var(--color-02-normal)" d="M404.6,206.1c2.3,11.1,3.4,22.5,3.4,33.9C408,228.6,406.9,217.3,404.6,206.1z" />
    <path fill="var(--color-02-normal)" d="M369.6,133.1c13.9,16.8,24.3,36.1,30.8,56.9C394,169.2,383.5,149.9,369.6,133.1z" />
    <path fill="var(--color-02-normal)" d="M333.9,100.7c8.9,6,17.3,12.9,24.9,20.5C351.2,113.6,342.9,106.7,333.9,100.7z" />
    <path fill="var(--color-02-normal)" d="M408,240c0,5.3-0.3,10.4-0.8,15.6C407.7,250.4,408,245.3,408,240z" />
    <path fill="var(--color-02-normal)" d="M406.7,260.2c-0.4,3.7-1,7.3-1.7,10.9C405.7,267.5,406.2,263.9,406.7,260.2z" />
    <path fill="var(--color-02-normal)" d="M404.1,275.9c-0.9,4-1.9,7.9-3,11.8C402.2,283.8,403.2,279.9,404.1,275.9z" />
    <path fill="var(--color-02-normal)" d="M386.5,322.2c-1.8,3.2-3.7,6.3-5.7,9.3C382.8,328.4,384.7,325.3,386.5,322.2z" />
    <path fill="var(--color-02-normal)" d="M331.6,380.7c-3.1,2-6.2,3.9-9.5,5.8C325.3,384.7,328.5,382.8,331.6,380.7z" />
    <path fill="var(--color-02-normal)" d="M287.9,401c-4,1.2-8,2.2-12.1,3.1C279.9,403.2,283.9,402.2,287.9,401z" />
    <path fill="var(--color-02-normal)" d="M271.1,405c-3.6,0.7-7.3,1.2-10.9,1.7C263.9,406.2,267.5,405.7,271.1,405z" />
    <path fill="var(--color-02-normal)" d="M304.4,395.2c-4.6,1.9-9.2,3.6-13.9,5.1C295.2,398.8,299.8,397.1,304.4,395.2z" />
    <path fill="var(--color-02-normal)" d="M317.9,388.8c-3.2,1.7-6.5,3.3-9.9,4.8C311.4,392.1,314.6,390.5,317.9,388.8z" />
    <path fill="var(--color-02-normal)" d="M100.7,333.9c12.1,17.9,27.5,33.3,45.4,45.4C128.2,367.2,112.8,351.8,100.7,333.9z" />
    <path fill="var(--color-02-normal)" d="M110.4,133.1C66.9,186,59.7,259.9,92.3,320.1C59.7,259.9,66.9,186,110.4,133.1z" />
    <path fill="var(--color-02-normal)" d="M159.9,387.7C184.5,401.1,212,408,240,408c5.3,0,10.4-0.3,15.6-0.8c-5.1,0.5-10.3,0.8-15.6,0.8 C212,408,184.5,401.1,159.9,387.7z" />
    <path fill="var(--color-02-normal)" d="M146.1,100.7c-13.4,9.1-25.4,20-35.7,32.4C120.7,120.7,132.7,109.7,146.1,100.7z" />
    <path fill="var(--color-02-normal)" d="M433.2,188.2c-4.9-18.5,17.1-48.1,7.7-64.2c-9.5-16.4-46.2-12.1-59.5-25.4c-13.3-13.3-9-50-25.4-59.5 c-16.2-9.3-45.8,12.6-64.2,7.7C274,42,259.3,8,240,8s-34,34-51.8,38.8c-18.5,4.9-48.1-17.1-64.2-7.7c-16.4,9.5-12.1,46.2-25.4,59.5 c-13.3,13.3-50,9-59.5,25.4c-9.3,16.2,12.6,45.8,7.7,64.2C42,206,8,220.7,8,240s34,34,38.8,51.8c4.9,18.5-17.1,48.1-7.7,64.2 c9.5,16.4,46.2,12.1,59.5,25.4c13.3,13.3,9,50,25.4,59.5c16.2,9.3,45.8-12.6,64.2-7.7C206,438,220.7,472,240,472s34-34,51.8-38.8 c18.5-4.9,48.1,17.1,64.2,7.7c16.4-9.5,12.1-46.2,25.4-59.5c13.3-13.3,50-9,59.5-25.4c9.3-16.2-12.6-45.8-7.7-64.2 C438,274,472,259.3,472,240S438,206,433.2,188.2z M380.8,331.5c-0.7,1.1-1.4,2.2-2.1,3.3c-0.3,0.4-0.5,0.8-0.8,1.2 c0.3-0.4,0.5-0.8,0.8-1.2c-5.5,8.1-11.8,15.6-18.6,22.6c0.9-1,1.9-1.9,2.8-2.8c-0.9,1-1.9,1.9-2.8,2.8c-0.8,0.8-1.6,1.7-2.5,2.5 c-0.9,0.8-1.5,1.5-2.2,2.3c0.8-0.7,1.5-1.5,2.2-2.3c-7.1,6.9-14.7,13.2-22.9,18.8c0.4-0.2,0.7-0.5,1.1-0.7 c-0.4,0.3-0.7,0.5-1.1,0.7c-1,0.7-2.1,1.3-3.1,2c-3.1,2-6.3,3.9-9.5,5.8c-1.4,0.8-2.8,1.5-4.2,2.3c-3.2,1.7-6.5,3.3-9.9,4.8 c-1.2,0.5-2.4,1.1-3.6,1.6c-4.6,1.9-9.2,3.6-13.9,5.1c-0.8,0.3-1.7,0.4-2.5,0.7c-4,1.2-8,2.2-12.1,3.1c-1.6,0.3-3.1,0.6-4.7,0.9 c-3.6,0.7-7.2,1.2-10.9,1.7c-1.5,0.2-3.1,0.4-4.6,0.5c-5.1,0.5-10.3,0.8-15.6,0.8c-28,0-55.5-6.9-80.1-20.3 c-4.8-2.6-9.4-5.4-13.8-8.4c-17.9-12.1-33.3-27.5-45.4-45.4c-3-4.5-5.8-9.1-8.4-13.8c-32.6-60.2-25.4-134.1,18.1-187 c10.3-12.5,22.3-23.4,35.7-32.4c66.7-45,155.9-36.4,212.7,20.5c3.8,3.8,7.4,7.8,10.8,11.9c13.9,16.8,24.3,36.1,30.8,56.9 c1.6,5.3,3,10.6,4.1,16.1c2.3,11.1,3.4,22.5,3.4,33.9c0,5.3-0.3,10.4-0.8,15.6c-0.1,1.6-0.4,3.1-0.5,4.6c-0.4,3.7-1,7.3-1.7,10.9 c-0.3,1.6-0.6,3.2-0.9,4.8c-0.9,4-1.9,7.9-3,11.8c-0.3,0.9-0.5,1.9-0.8,2.8c-1.5,4.7-3.2,9.4-5.1,13.9c-0.5,1.2-1.1,2.4-1.6,3.6 c-1.5,3.4-3.1,6.7-4.8,9.9c-0.8,1.4-1.5,2.8-2.3,4.2C384.7,325.3,382.8,328.4,380.8,331.5z" />
    <path fill="var(--color-02-normal)" d="M400.2,290.5c-1.5,4.7-3.2,9.4-5.1,13.9C397,299.9,398.8,295.2,400.2,290.5z" />
    <path fill="var(--color-02-normal)" d="M393.5,308c-1.5,3.4-3.1,6.7-4.8,9.9C390.5,314.7,392,311.4,393.5,308z" />
    <path fill="var(--color-02-normal)" d="M322.1,386.5c-1.4,0.8-2.8,1.5-4.2,2.3C319.3,388,320.7,387.3,322.1,386.5z" />
    <path fill="var(--color-02-normal)" d="M334.7,378.7c-1,0.7-2.1,1.3-3.1,2C332.6,380.1,333.7,379.4,334.7,378.7z" />
    <path fill="var(--color-02-normal)" d="M386.5,322.2c0.8-1.4,1.5-2.8,2.3-4.2C388,319.4,387.2,320.8,386.5,322.2z" />
    <path fill="var(--color-02-normal)" d="M360,357.4c-0.8,0.8-1.6,1.7-2.5,2.5C358.4,359.1,359.2,358.3,360,357.4z" />
    <path fill="var(--color-02-normal)" d="M405,271.1c-0.3,1.6-0.6,3.2-0.9,4.8C404.4,274.3,404.7,272.7,405,271.1z" />
    <path fill="var(--color-02-normal)" d="M380.8,331.5c-0.7,1.1-1.4,2.2-2.1,3.3C379.4,333.7,380.1,332.6,380.8,331.5z" />
    <path fill="var(--color-02-normal)" d="M407.2,255.6c-0.1,1.6-0.4,3.1-0.5,4.6C406.9,258.7,407.1,257.1,407.2,255.6z" />
    <path fill="var(--color-02-normal)" d="M260.2,406.7c-1.5,0.2-3.1,0.4-4.6,0.5C257.1,407.1,258.6,406.9,260.2,406.7z" />
    <path fill="var(--color-02-normal)" d="M275.8,404.1c-1.6,0.3-3.1,0.6-4.7,0.9C272.7,404.7,274.3,404.4,275.8,404.1z" />
    <path fill="var(--color-02-normal)" d="M308,393.5c-1.2,0.5-2.4,1.1-3.6,1.6C305.6,394.7,306.8,394.1,308,393.5z" />
    <path fill="var(--color-02-normal)" d="M395.2,304.4c-0.5,1.2-1.1,2.4-1.6,3.6C394.1,306.8,394.7,305.6,395.2,304.4z" />
    <path fill="var(--color-02-normal)" d="M401,287.7c-0.3,0.9-0.5,1.9-0.8,2.8C400.5,289.6,400.8,288.6,401,287.7z" />
    <path fill="var(--color-02-normal)" d="M290.4,400.3c-0.8,0.3-1.7,0.4-2.5,0.7C288.7,400.7,289.6,400.5,290.4,400.3z" />
    <path fill="var(--color-01-normal)" d="M240,480c-14.1,0-24.5-11.5-34.6-22.7c-5.1-6.9-11.6-12.5-19.2-16.4c-8.9-0.6-17.8,1-25.9,4.6 c-14,4.5-28.5,9.1-40.3,2.3c-11.9-6.9-15.2-21.9-18.3-36.4c-1-8.7-4-17-8.8-24.4c-7.3-4.8-15.7-7.8-24.3-8.7 C54,375.2,39,371.9,32.1,360c-6.8-11.7-2.2-26.2,2.3-40.3c3.6-8.1,5.1-17,4.6-25.9c-3.9-7.6-9.5-14.2-16.4-19.3 C11.5,264.5,0,254.1,0,240s11.5-24.5,22.7-34.6c6.9-5.1,12.5-11.6,16.4-19.2c0.6-8.9-1-17.8-4.6-25.9c-4.5-14-9.1-28.5-2.3-40.3 C39,108,54,104.8,68.6,101.7c8.7-1,17-4,24.4-8.8c4.8-7.3,7.8-15.7,8.7-24.3C104.8,54,108.1,39,120,32.1c11.7-6.8,26.2-2.2,40.3,2.3 c8.2,3.6,17,5.1,25.9,4.6c7.6-3.9,14.2-9.5,19.2-16.4C215.5,11.5,225.9,0,240,0s24.5,11.5,34.6,22.7c5.1,6.9,11.6,12.5,19.2,16.4 c8.9,0.6,17.8-1,25.9-4.6c14-4.5,28.6-9.1,40.2-2.3c11.9,6.9,15.2,21.9,18.3,36.4c1,8.7,4,17,8.8,24.4c7.3,4.8,15.7,7.8,24.3,8.7 c14.5,3.1,29.6,6.4,36.4,18.3c6.8,11.7,2.2,26.2-2.3,40.3c-3.6,8.2-5.1,17-4.6,25.9c3.9,7.6,9.5,14.2,16.4,19.2 c11.2,10.1,22.7,20.5,22.7,34.6s-11.5,24.5-22.7,34.6c-6.9,5.1-12.5,11.6-16.4,19.2c-0.6,8.9,1,17.8,4.6,25.9 c4.5,14,9.1,28.5,2.3,40.3c-6.9,11.9-21.9,15.2-36.4,18.3c-8.7,1-17,4-24.4,8.8c-4.8,7.3-7.8,15.7-8.7,24.3 c-3.1,14.5-6.4,29.6-18.3,36.4c-11.7,6.8-26.2,2.2-40.3-2.3c-8.1-3.6-17-5.1-25.9-4.6c-7.6,3.9-14.2,9.5-19.2,16.4 C264.5,468.5,254.1,480,240,480z M182.2,424.5c2.7,0,5.5,0.3,8.1,1c10.8,4.4,20.1,11.7,27,21.1C225,455.2,233,464,240,464 s15-8.8,22.7-17.4c6.9-9.4,16.2-16.7,27-21.1c11.9-1.6,23.9,0,34.9,4.8c10.7,3.4,21.8,7,27.4,3.7c5.8-3.3,8.3-14.8,10.7-26 c2.6-12,5.3-24.5,13.1-32.3c9.4-7.3,20.5-11.8,32.3-13.1c11.1-2.4,22.6-4.9,26-10.7c3.2-5.6-0.3-16.7-3.7-27.4 c-4.8-11-6.4-23.1-4.8-34.9c4.4-10.8,11.7-20.1,21.1-27C455.2,255,464,247,464,240s-8.8-15-17.4-22.7c-9.4-6.9-16.7-16.2-21.1-27 c-1.6-11.9,0-23.9,4.8-34.9c3.4-10.7,7-21.8,3.7-27.4c-3.3-5.8-14.8-8.3-26-10.7c-12-2.6-24.5-5.3-32.3-13.1 c-7.3-9.4-11.8-20.5-13.1-32.3c-2.4-11.1-4.9-22.6-10.7-26c-5.6-3.2-16.7,0.3-27.4,3.7c-11,4.8-23.1,6.4-34.9,4.8 c-10.8-4.4-20.1-11.7-27-21.1C255,24.8,247,16,240,16s-15,8.8-22.7,17.4c-6.9,9.4-16.2,16.7-27,21.1c-11.9,1.6-23.9,0-34.9-4.8 c-10.7-3.4-21.8-7-27.4-3.7c-5.8,3.3-8.3,14.8-10.7,26c-2.6,12-5.3,24.5-13.1,32.3c-9.4,7.3-20.5,11.8-32.3,13.1 c-11.1,2.4-22.6,4.9-26,10.7c-3.2,5.6,0.3,16.7,3.7,27.4c4.8,11,6.4,23.1,4.8,34.9c-4.4,10.8-11.7,20.1-21.1,27 C24.8,225,16,233,16,240s8.8,15,17.4,22.7c9.4,6.9,16.7,16.2,21.1,27c1.6,11.9,0,23.9-4.8,34.9c-3.4,10.7-7,21.8-3.7,27.4 c3.3,5.8,14.8,8.3,26,10.7c12,2.6,24.5,5.3,32.3,13.1c7.3,9.4,11.8,20.5,13.1,32.3c2.4,11.1,4.9,22.6,10.7,26 c5.6,3.3,16.7-0.3,27.4-3.7C164,427,173,425.1,182.2,424.5z" />
    <path fill="var(--color-01-normal)" d="M240,416c-81.1,0-151.6-55.4-170.9-134.1C49.8,203.2,86.7,121.5,158.6,84c71.8-37.5,160-21.1,213.6,39.8 c53.5,60.8,58.6,150.4,12.3,216.9c-1.6,2.5-4.4,3.8-7.3,3.6c-2.9-0.2-5.5-2-6.7-4.7c-1.2-2.7-0.9-5.8,0.9-8.1 c47.4-68,35-160.9-28.5-214.1c-63.5-53.2-157.1-49.1-215.8,9.4c-58.6,58.5-62.9,152.2-9.8,215.8c53.1,63.6,146,76.2,214,28.9 c3.6-2.5,8.6-1.6,11.1,2s1.6,8.6-2,11.1C310.9,405.1,275.9,416.1,240,416z" />
    <path fill="var(--color-01-normal)" d="M355.3,370.2c-3.3,0-6.2-2-7.4-5c-1.2-3-0.4-6.5,1.9-8.8c2.5-2.3,4.8-4.7,7.2-7.2c3-3.2,8.1-3.4,11.3-0.4 c3.2,3,3.4,8.1,0.4,11.3c-2.5,2.7-5.2,5.4-7.9,7.9C359.3,369.4,357.4,370.2,355.3,370.2z" />
    <path fill="var(--color-01-normal)" d="M359.9,205.9c-1.4-12.6-12.1-22.1-24.8-21.9H280v-40c0-13.3-10.7-24-24-24h-16c-4.4,0-8,3.6-8,8v32 c0,13.3-10.7,24-24,24h-16v-16c0-4.4-3.6-8-8-8h-48c-4.4,0-8,3.6-8,8v160c0,4.4,3.6,8,8,8h48c4.4,0,8-3.6,8-8v-9.1l3.7,2.4 c6.5,4.4,14.2,6.7,22.1,6.7H312c13.2-0.1,23.9-10.8,24-24c0-4.1-1.1-8.2-3.1-11.8c1.4-0.9,2.8-2,3.9-3.2c4.6-4.5,7.2-10.6,7.1-17 c0-4.1-1.1-8.2-3.1-11.8c1.4-0.9,2.8-2,3.9-3.2c4.6-4.5,7.2-10.6,7.1-17c0-4.1-1.1-8.2-3.1-11.8c1.4-0.9,2.8-2,3.9-3.2 C358,220,360.6,213,359.9,205.9z M176,320h-32V176h32V320z M341.6,213.7c-1.5,1.5-3.5,2.3-5.6,2.3h-32c-4.4,0-8,3.6-8,8s3.6,8,8,8 h24c4.4,0,8,3.6,8,8c0,2.2-0.9,4.2-2.4,5.7c-1.5,1.5-3.5,2.3-5.6,2.3h-24c-4.4,0-8,3.6-8,8c0,4.4,3.6,8,8,8h16c4.4,0,8,3.6,8,8 c0,2.2-0.9,4.2-2.4,5.7c-7.1,1.4-14.3,2.2-21.6,2.3c-4.4,0-8,3.6-8,8s3.6,8,8,8h8c4.4,0,8,3.6,8,8c0,2.2-0.9,4.2-2.4,5.7 c-1.5,1.5-3.5,2.3-5.6,2.3h-94.2c-4.7,0-9.3-1.4-13.3-4l-12.5-8.3V200h16c22.1,0,40-17.9,40-40v-24h8c4.4,0,8,3.6,8,8v48 c0,4.4,3.6,8,8,8h63.1c4.4-0.2,8.2,2.9,8.9,7.3C344.2,209.7,343.3,212,341.6,213.7z" />
  </symbol>

  <symbol id="about-03" role="img" viewBox="0 0 480 480">
    <path fill="var(--color-02-normal)" d="M413.4,85.4L389,109.8c17.4,12.6,32.6,27.8,45.2,45.2l24.5-24.5L413.4,85.4z" />
    <path fill="var(--color-02-normal)" d="M272,440c92.8,0,168-75.2,168-168s-75.2-168-168-168s-168,75.2-168,168S179.2,440,272,440z M256,320 l111.2-111.2L256,320l-53.3-53.3L256,320z" />
    <path fill="var(--color-01-normal)" d="M272,448c97.2,0,176-78.8,176-176S369.2,96,272,96S96,174.8,96,272C96.1,369.2,174.8,447.9,272,448z M264,112.4V136c0,4.4,3.6,8,8,8s8-3.6,8-8v-23.6c81.9,4.2,147.4,69.7,151.6,151.6H400c-4.4,0-8,3.6-8,8s3.6,8,8,8h31.6 c-4.2,81.9-69.7,147.4-151.6,151.6V408c0-4.4-3.6-8-8-8s-8,3.6-8,8v23.6c-81.9-4.2-147.4-69.7-151.6-151.6H136c4.4,0,8-3.6,8-8 s-3.6-8-8-8h-23.6C116.6,182.1,182.1,116.6,264,112.4z" />
    <path fill="var(--color-01-normal)" d="M444.5,156l19.8-19.8c3.1-3.1,3.1-8.2,0-11.3l-45.2-45.2c-3.1-3.1-8.2-3.1-11.3,0L388,99.5 c-32-21.6-69.4-33.8-108-35.3V16h56c4.4,0,8-3.6,8-8s-3.6-8-8-8H208c-4.4,0-8,3.6-8,8s3.6,8,8,8h56v48.3 C192.7,67,127.7,106.2,92,168H48c-4.4,0-8,3.6-8,8s3.6,8,8,8h48c0.2,0,0.4-0.1,0.6-0.1c2.9,0,5.6-1.5,7-4 c42.1-77,131-115.6,216-93.9S464,184.3,464,272c0,87.7-59.5,164.3-144.4,186s-173.9-16.9-216-93.9c-1.4-2.5-4.1-4.1-7-4 c-0.2,0-0.4-0.1-0.6-0.1H48c-4.4,0-8,3.6-8,8s3.6,8,8,8h44c38,65.8,108.9,105.6,184.8,103.9c76-1.7,144.9-44.8,179.9-112.3 C491.6,300.2,487,219,444.5,156z M401.1,109.1l12.4-12.4l33.9,33.9L434.9,143C425,130.4,413.6,119,401.1,109.1L401.1,109.1z" />
    <path fill="var(--color-01-normal)" d="M80,272c0-4.4-3.6-8-8-8H8c-4.4,0-8,3.6-8,8s3.6,8,8,8h64C76.4,280,80,276.4,80,272z" />
    <path fill="var(--color-01-normal)" d="M24,232h56c4.4,0,8-3.6,8-8s-3.6-8-8-8H24c-4.4,0-8,3.6-8,8S19.6,232,24,232z" />
    <path fill="var(--color-01-normal)" d="M88,320c0-4.4-3.6-8-8-8H24c-4.4,0-8,3.6-8,8s3.6,8,8,8h56C84.4,328,88,324.4,88,320z" />
    <path fill="var(--color-01-normal)" d="M250.3,325.7c3.1,3.1,8.2,3.1,11.3,0l111.2-111.2c3-3.1,3-8.1-0.1-11.2s-8.1-3.1-11.2-0.1L256,308.7 l-47.6-47.6c-3.1-3-8.1-3-11.2,0.1s-3.1,8.1-0.1,11.2L250.3,325.7z" />
  </symbol>

  <symbol id="about-04" role="img" viewBox="0 0 480 480">
    <path fill="var(--color-02-normal)" d="M310,280h-40V8.1l-96,56v16h48V280h-40v32h128V280z" />
    <path fill="#ffffff" d="M409.2,460.3c-22.6,8.9-48.4,2.2-63.9-16.5C367.9,434.9,393.7,441.5,409.2,460.3z" />
    <path fill="#ffffff" d="M320.1,351.3c18.1,16.3,23.5,42.4,13.4,64.6c-8.8-7.9-14.8-18.5-17.2-30.1 C313.8,374.2,315.2,362.1,320.1,351.3z" />
    <path fill="#ffffff" d="M392.1,396.9c15.4-18.8,41.2-25.5,63.8-16.6C440.5,399.1,414.7,405.8,392.1,396.9L392.1,396.9z" />
    <path fill="#ffffff" d="M352.1,301.5c23.2,7.3,39.1,28.6,39.4,52.9C368.3,347.2,352.4,325.8,352.1,301.5z" />
    <path fill="#ffffff" d="M443.5,304.5c8.7-8.1,19.8-13.1,31.5-14.5c-4.8,23.9-24.4,41.9-48.5,44.7 C428.8,323.2,434.7,312.5,443.5,304.5z" />
    <path fill="#ffffff" d="M462.4,193.4c1.4,24.3-13.1,46.7-35.8,55.4C425.3,224.6,439.8,202.2,462.4,193.4z" />
    <path fill="#ffffff" d="M356.6,226.2c24.2,2.4,44.1,20.1,49.2,43.9C381.7,267.7,361.8,250,356.6,226.2L356.6,226.2z" />
    <path fill="#ffffff" d="M372.1,134.6c20.7,12.7,30.9,37.3,25.3,61c-10.1-6.2-18-15.4-22.6-26.4l0,0 C370.3,158.2,369.3,146.1,372.1,134.6z" />
    <path fill="var(--color-01-normal)" d="M484.3,273.8c4.4,0.2,7.9,3.9,7.7,8.3c-1.6,38.5-33.3,69-71.9,69c-1,0-2,0-3-0.1c-0.8-0.1-1.6-0.3-2.3-0.5 c-2,5.2-4.1,10.3-6.6,15.3c2.9-1.2,5.9-2.3,9-3.1c18.5-4.9,38.1-2.1,54.6,7.6c3.8,2.2,5.1,7.1,2.9,10.9 c-9.6,16.5-25.4,28.5-43.9,33.3c-6,1.6-12.1,2.4-18.3,2.4c-11.6,0-23-2.9-33.3-8.4c-5,5.5-10.3,10.6-16,15.4 c26.4-1,51.3,12.6,64.7,35.4c2.2,3.8,1,8.7-2.8,11c-33,19.5-75.6,9.5-96.6-22.6c-7.8,4.1-16,7.7-24.3,10.6 c-0.9,0.3-1.8,0.4-2.6,0.4c-3.9,0-7.3-2.8-7.9-6.6c-0.7-3.9,1.6-7.6,5.2-8.9c9.5-3.4,18.6-7.6,27.3-12.6 c-29-23.2-35.6-64.6-15.3-95.7c2.4-3.7,7.4-4.7,11.1-2.3c26.4,17.3,38.4,49.8,29.7,80.2c8.4-7.1,16.1-15.1,23-23.8 c4.8-6,9.1-12.4,13.1-19c-34.3-10.2-56-44-50.8-79.4c0.6-4.4,4.7-7.4,9.1-6.8c27.1,4,49.6,23.1,58,49.2 c4.6-15.1,6.9-30.8,7.1-46.6c-38-0.2-69.3-29.9-71.5-67.8c-0.3-4.4,3.1-8.2,7.5-8.4c20.6-1.2,40.7,6.6,55.2,21.3 c-2.1-6.4-4.6-12.6-7.5-18.7c0-0.1-0.1-0.3-0.1-0.4c-34-16.8-49.1-57-34.5-92c1.7-4.1,6.4-6,10.4-4.3 c35.9,15,53.5,55.8,39.6,92.1c1.9,4.1,3.6,8.2,5.1,12.3c8.6-22.9,28.2-39.8,52.1-45c4.3-0.9,8.6,1.8,9.5,6.1 c8,37.1-14.2,74.1-50.8,84.3c1.2,11.1,1.3,22.3,0.4,33.4c1.9-2.3,4-4.4,6.1-6.5C446.6,279.8,465.3,273,484.3,273.8z M426.6,248.9 c22.7-8.8,37.1-31.1,35.8-55.4C439.8,202.2,425.3,224.6,426.6,248.9z M475,290.1c-11.8,1.3-22.8,6.4-31.5,14.5 c-8.7,8-14.7,18.6-17,30.3C450.6,332,470.2,313.9,475,290.1z M455.9,380.3c-22.6-8.9-48.4-2.2-63.8,16.6l0,0 C414.7,405.8,440.5,399.1,455.9,380.3z M397.4,195.6c5.7-23.6-4.5-48.3-25.3-61c-2.8,11.5-1.9,23.6,2.7,34.6l0,0 C379.4,180.2,387.3,189.4,397.4,195.6z M345.3,443.8c15.5,18.8,41.2,25.4,63.9,16.5C393.7,441.5,367.9,434.9,345.3,443.8z M405.9,270.1c-5.2-23.8-25-41.5-49.2-43.9l0,0C361.8,250,381.7,267.7,405.9,270.1z M391.5,354.5c-0.3-24.3-16.2-45.7-39.4-52.9 C352.4,325.8,368.3,347.2,391.5,354.5z M333.5,415.9c10-22.2,4.6-48.3-13.4-64.6c-4.9,10.8-6.3,22.9-3.8,34.5 C318.7,397.4,324.7,407.9,333.5,415.9z" />
    <path fill="#ffffff" d="M82.9,460.3c15.5-18.8,41.2-25.4,63.9-16.5C131.3,462.5,105.5,469.2,82.9,460.3L82.9,460.3z" />
    <path fill="#ffffff" d="M172,351.3c10,22.2,4.6,48.3-13.4,64.6c-4.9-10.8-6.3-22.9-3.8-34.5l0,0C157.1,369.8,163.1,359.3,172,351.3z" />
    <path fill="#ffffff" d="M100,397c-22.7,8.9-48.4,2.1-63.8-16.7C58.8,371.4,84.5,378.1,100,397z" />
    <path fill="#ffffff" d="M17,290.1c24.2,2.8,43.8,20.9,48.5,44.7C41.4,332,21.8,313.9,17,290.1z" />
    <path fill="#ffffff" d="M139.9,301.5L139.9,301.5c-0.2,24.3-16.1,45.7-39.3,53C100.8,330.2,116.7,308.8,139.9,301.5z" />
    <path fill="#ffffff" d="M135.4,226.2c-5.2,23.8-25.1,41.5-49.3,43.9C91.3,246.4,111.2,228.6,135.4,226.2z" />
    <path fill="#ffffff" d="M119.9,134.6c5.7,23.6-4.5,48.3-25.3,61C88.9,171.9,99.1,147.3,119.9,134.6z" />
    <path fill="#ffffff" d="M29.6,193.4c22.7,8.8,37.1,31.1,35.8,55.4C54.3,244.6,44.9,237,38.5,227C32,217.1,28.9,205.3,29.6,193.4z" />
    <path fill="var(--color-01-normal)" d="M193.1,443.2c3.7,1.3,5.9,5,5.3,8.9c-0.7,3.9-4,6.7-7.9,6.6c-0.9,0-1.8-0.1-2.6-0.4 c-8.4-3-16.5-6.5-24.3-10.6c-21,32.1-63.5,42.1-96.6,22.6c-3.8-2.2-5.1-7.1-2.8-10.9c13.4-22.8,38.3-36.4,64.7-35.4 c-5.6-4.8-10.9-10-15.9-15.5c-10.3,5.5-21.7,8.4-33.3,8.4c-6.2,0-12.3-0.8-18.3-2.4c-18.5-4.8-34.3-16.8-43.9-33.3 c-2.2-3.8-1-8.7,2.9-10.9c16.5-9.7,36.1-12.4,54.6-7.6c3.1,0.8,6.1,1.9,9,3.1c-2.5-5-4.6-10.1-6.6-15.3c-0.7,0.3-1.5,0.5-2.3,0.5 c-1,0.1-2,0.1-3,0.1c-38.6-0.1-70.3-30.5-71.9-69c-0.2-4.4,3.3-8.1,7.7-8.3c19.1-0.9,37.7,6,51.7,19c2.2,2,4.2,4.2,6.1,6.5 c-0.9-11.1-0.8-22.3,0.4-33.4c-36.6-10.3-58.8-47.2-50.8-84.3c0.9-4.3,5.2-7.1,9.5-6.1c23.9,5.2,43.5,22.1,52.1,45 c1.5-4.1,3.3-8.2,5.1-12.3c-13.8-36.4,3.7-77.2,39.7-92.1c4.1-1.7,8.8,0.3,10.4,4.3c14.5,35-0.6,75.2-34.6,92 c0,0.2-0.1,0.3-0.1,0.4c-2.9,6.1-5.4,12.4-7.5,18.8c14.5-14.7,34.6-22.5,55.2-21.4c4.4,0.3,7.8,4,7.5,8.4 c-2.2,37.9-33.5,67.6-71.5,67.8c0.1,15.8,2.5,31.5,7.1,46.6c8.4-26.1,30.9-45.2,58-49.2c4.4-0.6,8.4,2.4,9.1,6.8 c5.2,35.4-16.5,69.3-50.8,79.4c3.9,6.6,8.3,13,13.1,19c6.9,8.6,14.6,16.6,23,23.8c-8.7-30.4,3.3-62.8,29.7-80.1 c3.7-2.4,8.6-1.4,11.1,2.3c20.4,31.1,13.7,72.5-15.3,95.7C174.5,435.6,183.6,439.8,193.1,443.2L193.1,443.2z M158.5,415.9 c18-16.3,23.5-42.4,13.4-64.6c-8.8,7.9-14.9,18.5-17.2,30.1l0,0C152.2,393,153.6,405.1,158.5,415.9z M139.9,301.5L139.9,301.5 c-23.2,7.2-39.1,28.6-39.4,53C123.7,347.2,139.6,325.9,139.9,301.5z M146.7,443.8c-22.6-8.9-48.4-2.2-63.9,16.5l0,0 C105.5,469.2,131.3,462.5,146.7,443.8z M94.6,195.6c20.8-12.7,30.9-37.3,25.3-61C99.1,147.3,88.9,171.9,94.6,195.6z M86.1,270.1 c24.2-2.4,44.1-20.1,49.3-43.9C111.2,228.6,91.3,246.4,86.1,270.1z M36.1,380.3c15.4,18.8,41.2,25.5,63.8,16.7 C84.5,378.1,58.8,371.4,36.1,380.3z M65.4,248.9c1.3-24.3-13.1-46.6-35.8-55.4c-0.7,11.9,2.4,23.6,8.9,33.6 C44.9,237,54.3,244.6,65.4,248.9z M65.6,334.8c-4.8-23.9-24.4-41.9-48.5-44.7C21.8,313.9,41.4,332,65.6,334.8z" />
    <path fill="var(--color-01-normal)" d="M174,88.1h40v184h-32c-4.4,0-8,3.6-8,8v32c0,4.4,3.6,8,8,8h128c4.4,0,8-3.6,8-8v-32c0-4.4-3.6-8-8-8h-32V8.1 c0-2.9-1.5-5.5-4-6.9c-2.5-1.4-5.5-1.4-8,0l-96,56c-2.5,1.4-4,4.1-4,6.9v16C166,84.5,169.6,88.1,174,88.1z M182,68.7L262,22v258 c0,4.4,3.6,8,8,8h32v16H190v-16h32c4.4,0,8-3.6,8-8V80.1c0-4.4-3.6-8-8-8h-40V68.7z" />
  </symbol>

  <symbol id="check-01" role="img" viewBox="0 0 504.1 504.1">
    <path d="M480.1,144.7L256.4,365.9c-3.5,3.5-8.3,4.7-13,4.3c-4.7,0.4-9.5-0.8-13-4.3L98.9,235.5 c-5.9-5.9-5.9-15.8,0-21.7l39.4-39c6.3-5.9,16.1-5.9,22.1,0l82.3,81.1L424.4,68.2C379.3,25.9,318.7,0,252.1,0 C112.9,0,0,112.9,0,252.1s112.9,252.1,252.1,252.1s252.1-112.9,252.1-252.1C504.1,213.6,495.5,177.3,480.1,144.7z" />
  </symbol>

  <symbol id="link-icon" role="img" viewBox="0 0 512 512">
    <path d="M267.3,511.7c1.1,0,2.2-0.1,3.3-0.2c1-0.1,2.1-0.1,3.1-0.2c1.2-0.1,2.5-0.2,3.7-0.3c0.3,0,0.5,0,0.8-0.1 c60-5.1,115.7-30.9,158.8-74c44.9-44.9,71-103.5,74.6-166.3c0-0.2,0-0.5,0-0.7c0.1-1,0.1-2.1,0.1-3.1c0-1,0.1-2.1,0.1-3.1 c0-0.7,0-1.5,0.1-2.2c0-1.9,0.1-3.7,0.1-5.6c0-68.4-26.6-132.7-75-181S324.4,0,256,0S123.3,26.6,75,75S0,187.6,0,256 c0,1.9,0,3.7,0.1,5.6c0,0.7,0,1.5,0.1,2.2c0,1,0.1,2.1,0.1,3.1c0,1,0.1,2.1,0.1,3.1c0,0.2,0,0.5,0,0.7C4,333.6,30.1,392.2,75,437 c43.1,43.1,98.8,68.9,158.8,74c0.3,0,0.5,0,0.8,0.1c1.2,0.1,2.5,0.2,3.7,0.3c1,0.1,2.1,0.1,3.1,0.2c1.1,0.1,2.2,0.1,3.3,0.2 c1.3,0.1,2.6,0.1,3.9,0.1c0.6,0,1.2,0,1.8,0c1.9,0,3.7,0.1,5.6,0.1s3.7,0,5.6-0.1c0.6,0,1.2,0,1.8,0 C264.7,511.8,266,511.8,267.3,511.7z M77.8,378c-0.4-0.7-0.8-1.4-1.2-2.1c-21.4-32-33.8-68.5-36.2-106.2c0-0.6-0.1-1.2-0.1-1.9 c0-0.7-0.1-1.4-0.1-2.1c0-1-0.1-2.1-0.1-3.1c0-0.6,0-1.1,0-1.7c0-1.6-0.1-3.3-0.1-4.9c0-119.1,96.9-216,216-216s216,96.9,216,216 c0,1.6,0,3.3-0.1,4.9c0,0.6,0,1.1,0,1.7c0,1-0.1,2.1-0.1,3.1c0,0.7-0.1,1.4-0.1,2.1c0,0.6-0.1,1.2-0.1,1.9 c-2.4,37.8-14.8,74.2-36.2,106.2c-0.5,0.7-0.8,1.4-1.2,2.1c-30,43.7-75.7,75.9-128.9,88.4c-0.3,0.1-0.7,0.2-1,0.2 c-1.5,0.3-3,0.7-4.5,1c-0.4,0.1-0.8,0.2-1.2,0.2c-1.1,0.2-2.2,0.4-3.3,0.6c-0.6,0.1-1.3,0.2-1.9,0.3c-1.1,0.2-2.3,0.4-3.4,0.6 c-0.8,0.1-1.6,0.3-2.5,0.4c-1,0.1-2,0.3-2.9,0.4c-0.7,0.1-1.4,0.2-2.1,0.3c-1.1,0.1-2.2,0.3-3.3,0.4c-0.7,0.1-1.4,0.2-2.2,0.2 c-1.2,0.1-2.3,0.2-3.5,0.3c-0.6,0-1.2,0.1-1.7,0.1c-1.4,0.1-2.8,0.2-4.2,0.3c-0.3,0-0.6,0-0.9,0c-1.5,0.1-3,0.1-4.5,0.2 c-0.4,0-0.9,0-1.3,0c-1.6,0-3.3,0.1-4.9,0.1s-3.3,0-4.9-0.1c-0.4,0-0.9,0-1.3,0c-1.5,0-3-0.1-4.5-0.2c-0.3,0-0.6,0-0.9,0 c-1.4-0.1-2.8-0.2-4.2-0.3c-0.6,0-1.2-0.1-1.7-0.1c-1.2-0.1-2.3-0.2-3.5-0.3c-0.7-0.1-1.4-0.1-2.2-0.2c-1.1-0.1-2.2-0.2-3.3-0.4 c-0.7-0.1-1.4-0.2-2.1-0.3c-1-0.1-2-0.3-2.9-0.4c-0.8-0.1-1.6-0.2-2.5-0.4c-1.1-0.2-2.3-0.4-3.4-0.6c-0.6-0.1-1.3-0.2-1.9-0.3 c-1.1-0.2-2.2-0.4-3.3-0.6c-0.4-0.1-0.8-0.2-1.2-0.2c-1.5-0.3-3-0.6-4.5-1c-0.3-0.1-0.7-0.2-1-0.2 C153.5,453.9,107.9,421.7,77.8,378z" />
    <path d="M339.2,276l-72.3,71.8c-7.8,7.8-7.9,20.4-0.1,28.3c3.9,3.9,9,5.9,14.2,5.9c5.1,0,10.2-1.9,14.1-5.8l78.2-77.7 c11.4-11.3,17.7-26.4,17.7-42.5s-6.3-31.1-17.7-42.5l-78.2-77.7c-7.8-7.8-20.5-7.7-28.3,0.1c-7.8,7.8-7.7,20.5,0.1,28.3l72.3,71.8 H132c-11,0-20,9-20,20s9,20,20,20H339.2z" />
  </symbol>

  <symbol id="facebook-icon" role="img" viewBox="0 0 512 512">
    <path d="M314.829,135.492h70.595c11.423,0,20.682-9.26,20.682-20.682V20.682C406.107,9.26,396.848,0,385.425,0h-70.595 c-76.282,0-138.341,62.06-138.341,138.341v49.913h-49.913c-11.422,0-20.682,9.26-20.682,20.682v94.127 c0,11.423,9.26,20.682,20.682,20.682h49.913v167.572c0,11.423,9.26,20.682,20.682,20.682h94.127 c11.423,0,20.682-9.259,20.682-20.682V323.746h49.913c9.49,0,17.763-6.458,20.065-15.666l23.532-94.127 c1.544-6.179,0.156-12.725-3.763-17.744c-3.919-5.02-9.932-7.954-16.301-7.954H311.98v-49.913 C311.98,136.77,313.258,135.492,314.829,135.492z M291.298,229.619h67.637l-13.191,52.763h-54.447 c-11.423,0-20.682,9.259-20.682,20.682v167.572h-52.763V303.064c0-11.423-9.26-20.682-20.682-20.682h-49.913v-52.763h49.913 c11.422,0,20.682-9.26,20.682-20.682v-70.595c0-53.473,43.503-96.977,96.977-96.977h49.913v52.763h-49.913 c-24.38,0-44.214,19.835-44.214,44.214v70.595C270.615,220.359,279.875,229.619,291.298,229.619z" />
  </symbol>

  <symbol id="twitter-icon" role="img" viewBox="0 0 512 512">
    <path d="M502.954,47.189c-7.126-4.852-16.515-4.774-23.559,0.196c-15.351,10.828-31.974,19.528-49.557,25.948 c-19.253-17.414-43.615-27.826-69.915-29.656c-31.056-2.16-61.081,7.9-84.561,28.326c-25.59,22.259-40.174,54.444-40.046,88.349 c-85.248-7.609-139.14-61.55-177.09-108.986c-4.598-5.746-11.901-8.619-19.182-7.538c-7.279,1.078-13.438,5.944-16.171,12.777 c-0.948,2.369-23.141,58.799-17.453,127.057c4.761,57.133,30.23,131.964,120.039,181.717 c-32.436,14.756-68.282,21.939-103.953,20.519c-9.576-0.378-18.15,5.859-20.736,15.08c-2.587,9.221,1.497,19.013,9.869,23.665 c51.359,28.532,108.03,43.736,163.889,43.965c0.432,0.002,0.861,0.003,1.294,0.003c54.105-0.001,106.379-13.938,151.246-40.336 c42.898-25.241,78.416-61.759,102.715-105.603c26.162-47.206,39.427-101.75,39.427-162.186c-0.011-3.544-0.186-7.098-0.52-10.638 c20.7-22.885,35.388-50.567,42.719-80.667C513.451,60.803,510.081,52.04,502.954,47.189z M432.297,128.07 c-4.916,4.847-7.088,11.827-5.793,18.607c0.877,4.588,1.329,9.278,1.344,13.874c0,101.956-44.378,186.544-121.756,232.072 c-60.586,35.649-133.037,43.933-203.609,25.057c0.729-0.201,1.459-0.407,2.185-0.615c27.596-7.885,53.63-20.055,77.377-36.174 c6.329-4.296,9.77-11.734,8.946-19.34c-0.825-7.605-5.778-14.134-12.881-16.975C97.757,312.434,53.563,257.594,46.757,181.575 c-2.536-28.334,0.707-54.721,4.766-74.501c16.638,17.909,37.384,37.227,62.129,53.407c42.771,27.966,90.663,42.146,142.346,42.146 c11.423,0,20.682-9.26,20.682-20.682v-21.393c0-0.045,0-0.091,0-0.137c-0.146-21.948,9.268-42.797,25.829-57.202 c15.146-13.175,34.51-19.665,54.543-18.27c20.026,1.393,38.311,10.502,51.487,25.648c5.339,6.138,13.783,8.577,21.567,6.229 c5.725-1.724,11.375-3.645,16.941-5.757C442.599,117.081,437.672,122.769,432.297,128.07z" />
  </symbol>

  <symbol id="linkedin-icon" role="img" viewBox="0 0 512 512">
    <path d="M2.5,510V153.7h137.3V510H2.5z M102.5,472.7V191H39.8v281.7H102.5z" />
    <path d="M375.4,510l0.1-158.1c0.5-23.6-8.8-42.9-24.9-51.7c-5.4-3-11.2-4.5-17.3-4.5c-5.2,0-10.4,1.1-15.5,3.3l-1.1,211H176.1 V153.7h140.6V166c16.6-6,33.6-9.1,50.6-9.1c24.7,0,48.3,6.4,70.2,18.9c44,25.2,72.5,71.8,72.5,118.8V510H375.4z M472.7,472.7V294.6 c0-33.8-21.1-67.7-53.7-86.4c-15.9-9.1-33.8-13.9-51.7-14h-0.3c-20.1,0-40.1,5.8-59.6,17.3L279.4,228V191h-66.1v281.7h66.2l1-194.7 l8.2-5.5c13.7-9.2,29.1-14.1,44.5-14.1c12.4,0,24.2,3,35.1,9c13.7,7.5,25,19.2,32.8,33.8c7.9,14.9,11.9,32.6,11.5,51.1l0,120.3 H472.7z" />
    <path d="M70.9,139.9C32.9,139.9,2,109,2,71c0-38,30.9-69,68.9-69c38,0,68.9,30.9,68.9,69C139.8,109,108.9,139.9,70.9,139.9z M70.9,39.3c-17.4,0-31.6,14.2-31.6,31.7c0,17.5,14.2,31.7,31.6,31.7c17.4,0,31.6-14.2,31.6-31.7C102.5,53.5,88.3,39.3,70.9,39.3z" />
  </symbol>

  <symbol id="instagram-icon" role="img" viewBox="0 0 512 512">
    <path d="M373.659,0H138.341C62.06,0,0,62.06,0,138.341v235.318C0,449.94,62.06,512,138.341,512h235.318 C449.94,512,512,449.94,512,373.659V138.341C512,62.06,449.94,0,373.659,0z M470.636,373.659 c0,53.473-43.503,96.977-96.977,96.977H138.341c-53.473,0-96.977-43.503-96.977-96.977V138.341 c0-53.473,43.503-96.977,96.977-96.977h235.318c53.473,0,96.977,43.503,96.977,96.977V373.659z" />
    <path d="M370.586,238.141c-3.64-24.547-14.839-46.795-32.386-64.342c-17.547-17.546-39.795-28.746-64.341-32.385 c-11.176-1.657-22.507-1.657-33.682,0c-30.336,4.499-57.103,20.541-75.372,45.172c-18.269,24.631-25.854,54.903-21.355,85.237 c4.499,30.335,20.541,57.102,45.172,75.372c19.996,14.831,43.706,22.619,68.153,22.619c5.667,0,11.375-0.418,17.083-1.265 c30.336-4.499,57.103-20.541,75.372-45.172C367.5,298.747,375.085,268.476,370.586,238.141z M267.791,327.632 c-19.405,2.882-38.77-1.973-54.527-13.66c-15.757-11.687-26.019-28.811-28.896-48.216c-2.878-19.405,1.973-38.77,13.66-54.527 c11.688-15.757,28.811-26.019,48.217-28.897c3.574-0.53,7.173-0.795,10.772-0.795s7.199,0.265,10.773,0.796 c32.231,4.779,57.098,29.645,61.878,61.877C335.608,284.268,307.851,321.692,267.791,327.632z" />
    <path d="M400.049,111.951c-3.852-3.851-9.183-6.058-14.625-6.058c-5.442,0-10.773,2.206-14.625,6.058 c-3.851,3.852-6.058,9.174-6.058,14.625c0,5.451,2.207,10.773,6.058,14.625c3.852,3.851,9.183,6.058,14.625,6.058 c5.442,0,10.773-2.206,14.625-6.058c3.851-3.852,6.058-9.183,6.058-14.625C406.107,121.133,403.9,115.802,400.049,111.951z" />
  </symbol>

  <symbol id="footer-phone" role="img" viewBox="0 0 512 512">
    <path d="M421.216,195.504c-5.092-26.101-17.723-49.836-36.526-68.64c-18.804-18.803-42.54-31.434-68.641-36.527 c-11.21-2.189-22.073,5.128-24.261,16.339c-2.187,11.212,5.128,22.073,16.339,24.26c36.847,7.188,65.3,35.642,72.489,72.489 c1.927,9.874,10.581,16.726,20.278,16.726c1.313,0,2.645-0.125,3.984-0.387C416.088,217.577,423.403,206.715,421.216,195.504z" />
    <path d="M511.422,196.929c-5.629-50.096-28.373-97.304-64.042-132.927C411.712,28.378,364.475,5.694,314.371,0.128 c-11.355-1.261-21.578,6.92-22.839,18.272c-1.261,11.353,6.919,21.578,18.272,22.84c84.961,9.438,150.966,75.36,160.512,160.31 c1.188,10.566,10.139,18.374,20.527,18.374c0.771,0,1.552-0.043,2.336-0.131C504.53,218.516,512.698,208.281,511.422,196.929z" />
    <path d="M432.59,312.566c-0.062-0.008-0.124-0.017-0.186-0.025c-20.013-2.639-39.751-7.557-58.619-14.596 c-23.91-8.99-51.103-3.191-69.27,14.772c-0.028,0.028-0.056,0.055-0.083,0.083l-17.148,17.148 c-42.633-26.924-78.756-63.047-105.679-105.679l17.149-17.149c0.027-0.028,0.054-0.055,0.082-0.083 c17.964-18.166,23.762-45.356,14.79-69.223c-7.057-18.914-11.974-38.653-14.614-58.666c-0.007-0.063-0.017-0.127-0.026-0.19 c-4.591-32.478-32.782-56.734-65.548-56.467H66.053c-1.943,0.002-3.912,0.091-5.853,0.267 C24.143,26.016-2.541,58.001,0.718,94.058c0.01,0.108,0.02,0.215,0.032,0.323c7.684,72.354,32.649,142.88,72.197,203.955 c35.892,56.461,84.701,105.269,141.162,141.164c60.792,39.406,130.99,64.369,203.013,72.196c0.127,0.015,0.254,0.027,0.38,0.038 c1.961,0.176,3.949,0.266,5.921,0.266c0.083,0,0.165,0,0.247,0.001c36.204-0.148,65.538-29.722,65.391-65.841v-67.233 C489.746,345.714,465.515,317.211,432.59,312.566z M447.698,378.695v67.548c0.055,13.396-10.8,24.338-24.19,24.393 c-0.715-0.004-1.425-0.027-2.135-0.086c-65.578-7.161-129.488-29.914-184.837-65.808c-0.053-0.035-0.107-0.069-0.161-0.103 c-51.429-32.68-95.885-77.137-128.565-128.565c-0.032-0.051-0.064-0.101-0.097-0.153C71.683,220.306,48.928,156.086,41.902,90.193 C40.779,76.91,50.63,65.155,63.923,63.954c0.717-0.064,1.443-0.098,2.145-0.098h67.463c0.146-0.001,0.294-0.003,0.443-0.002 c12.021,0,22.322,8.905,24.044,20.819c3.05,23.063,8.721,45.806,16.871,67.649c3.319,8.832,1.189,18.869-5.427,25.591 l-28.517,28.517c-6.583,6.582-7.956,16.753-3.354,24.847c33.837,59.508,83.177,108.847,142.685,142.685 c8.094,4.6,18.264,3.23,24.848-3.355l28.512-28.512c6.72-6.621,16.765-8.752,25.642-5.415 c21.799,8.134,44.547,13.805,67.61,16.855c12.18,1.757,21.122,12.339,20.816,24.647 C447.7,378.353,447.698,378.524,447.698,378.695z" />
  </symbol>

  <symbol id="footer-mail" role="img" viewBox="0 0 512 512">
    <path d="M256,141.176c-63.306,0-114.809,51.503-114.809,114.809S192.694,370.795,256,370.795s114.809-51.503,114.809-114.809 S319.306,141.176,256,141.176z M256,329.43c-40.498,0-73.445-32.947-73.445-73.445c0-40.498,32.947-73.445,73.445-73.445 c40.499,0,73.445,32.947,73.445,73.445C329.445,296.483,296.499,329.43,256,329.43z" />
    <path d="M437.008,74.97C388.656,26.623,324.375,0,256,0c-0.005,0-0.013,0-0.017,0C187.603,0.004,123.318,26.637,74.97,74.992 C26.62,123.347-0.005,187.637,0,256.017c0.004,68.379,26.637,132.666,74.992,181.014C123.344,485.377,187.625,512.001,256,512 c0.004,0,0.012,0,0.017,0c55.945-0.004,111.216-18.738,155.631-52.752c9.07-6.945,10.792-19.927,3.846-28.995 c-6.945-9.069-19.926-10.794-28.995-3.846c-37.24,28.518-83.58,44.224-130.486,44.228c-0.006,0-0.006,0-0.014,0 c-57.324,0-111.224-22.324-151.761-62.856c-40.542-40.536-62.871-94.435-62.875-151.766 C41.357,137.663,137.636,41.372,255.986,41.364c0.007,0,0.006,0,0.014,0c118.34,0,214.628,96.279,214.636,214.622v23.532 c0,27.523-22.39,49.913-49.913,49.913c-27.523,0-49.913-22.391-49.913-49.913v-23.532c0-11.422-9.259-20.682-20.682-20.682 s-20.682,9.26-20.682,20.682v23.532c0,50.33,40.947,91.278,91.278,91.278S512,329.848,512,279.518v-23.534 C511.995,187.604,485.362,123.318,437.008,74.97z" />
  </symbol>

  <symbol id="footer-location" role="img" viewBox="0 0 512 512">
    <path d="M406.766,62.449C366.495,22.178,312.951,0,256,0S145.505,22.178,105.234,62.449 c-40.272,40.271-62.449,93.814-62.449,150.766c0,37.656,10.972,76.863,32.609,116.532c16.825,30.846,40.15,62.102,69.326,92.898 c49.17,51.903,97.763,84.519,99.808,85.881C248.001,510.842,252,512,256,512c4,0,7.999-1.158,11.473-3.474 c2.045-1.363,50.638-33.978,99.808-85.881c29.176-30.795,52.501-62.051,69.326-92.898c21.637-39.669,32.609-78.876,32.609-116.532 C469.215,156.263,447.038,102.72,406.766,62.449z M256.001,465.903C215.826,436.156,84.15,329.739,84.15,213.215 c0-94.759,77.091-171.851,171.85-171.851s171.85,77.092,171.851,171.851C427.851,329.748,296.159,436.168,256.001,465.903z" />
    <path d="M256,128.355c-46.791,0-84.86,38.068-84.86,84.86c0,46.791,38.068,84.86,84.86,84.86c46.792,0,84.861-38.068,84.86-84.86 C340.86,166.423,302.791,128.355,256,128.355z M256,256.71c-23.983,0-43.495-19.512-43.495-43.495 c0-23.983,19.512-43.495,43.495-43.495c23.984,0,43.495,19.512,43.495,43.495C299.495,237.198,279.984,256.71,256,256.71z" />
  </symbol>

  <symbol id="footer-time" role="img" aria-labelledby="footer-time_title" viewBox="0 0 512 512">
    <path d="M437.019,74.981C388.667,26.629,324.38,0,256,0S123.333,26.63,74.981,74.981S0,187.62,0,256 s26.629,132.667,74.981,181.019C123.332,485.371,187.62,512,256,512s132.667-26.629,181.019-74.981 C485.371,388.667,512,324.38,512,256S485.371,123.332,437.019,74.981z M256,470.636C137.65,470.636,41.364,374.35,41.364,256 S137.65,41.364,256,41.364S470.636,137.65,470.636,256S374.35,470.636,256,470.636z" />
    <path d="M341.221,311.97l-64.538-64.537V114.809c0-11.422-9.259-20.682-20.682-20.682c-11.422,0-20.682,9.26-20.682,20.682V256 c0,5.486,2.179,10.746,6.058,14.625l70.594,70.595c4.038,4.039,9.332,6.058,14.625,6.058c5.293,0,10.586-2.019,14.626-6.058 C349.297,333.142,349.297,320.047,341.221,311.97z" />
  </symbol>

</svg>